<mxfile host="Electron" agent="Mozilla/5.0 (Macintosh; Intel Mac OS X 10_15_7) AppleWebKit/537.36 (KHTML, like Gecko) draw.io/24.7.17 Chrome/128.0.6613.36 Electron/32.0.1 Safari/537.36" version="24.7.17">
  <diagram name="Page-1" id="Mi2P3wzthptmz9Yyu4yk">
    <mxGraphModel dx="1354" dy="1024" grid="1" gridSize="10" guides="1" tooltips="1" connect="1" arrows="1" fold="1" page="0" pageScale="1" pageWidth="1169" pageHeight="827" math="0" shadow="0">
      <root>
        <mxCell id="0" />
        <mxCell id="1" parent="0" />
        <mxCell id="u8F_S0l8aTNUOHP5Od4l-38" value="" style="html=1;shadow=0;dashed=0;align=center;verticalAlign=middle;shape=mxgraph.arrows2.bendArrow;dy=5;dx=24.5;notch=0;arrowHead=30;rounded=1;flipH=0;direction=west;fillColor=#f8cecc;strokeColor=#b85450;strokeWidth=2;" parent="1" vertex="1">
          <mxGeometry x="450" y="224" width="110" height="286" as="geometry" />
        </mxCell>
        <mxCell id="u8F_S0l8aTNUOHP5Od4l-8" value="&lt;pre&gt;- PGDATABASE: postgres&lt;br&gt;- PGHOST: 127.0.0.1&lt;br&gt;- PGPORT: 5432&lt;br&gt;- PGUSER: tst&lt;/pre&gt;" style="rounded=0;whiteSpace=wrap;fillColor=#e1d5e7;strokeColor=#9673a6;html=1;align=left;strokeWidth=1;dashed=1;" parent="1" vertex="1">
          <mxGeometry x="210" y="10" width="170" height="80" as="geometry" />
        </mxCell>
        <mxCell id="u8F_S0l8aTNUOHP5Od4l-9" value="&lt;pre&gt;- PGDATABASE: postgres&lt;br&gt;- PGHOST: 127.0.0.1&lt;br&gt;- PGPORT: 5433&lt;br&gt;- PGUSER: tst&lt;/pre&gt;" style="rounded=0;whiteSpace=wrap;fillColor=#e1d5e7;strokeColor=#9673a6;html=1;align=left;strokeWidth=1;dashed=1;verticalAlign=middle;fontFamily=Helvetica;fontSize=12;" parent="1" vertex="1">
          <mxGeometry x="470" y="10" width="170" height="80" as="geometry" />
        </mxCell>
        <mxCell id="u8F_S0l8aTNUOHP5Od4l-10" value="" style="group" parent="1" vertex="1" connectable="0">
          <mxGeometry x="390" y="130" width="180" height="90" as="geometry" />
        </mxCell>
        <mxCell id="u8F_S0l8aTNUOHP5Od4l-2" value="db-replica" style="rounded=1;whiteSpace=wrap;html=1;fillColor=#d5e8d4;strokeColor=#82b366;strokeWidth=3;fontFamily=Courier New;fontStyle=1" parent="u8F_S0l8aTNUOHP5Od4l-10" vertex="1">
          <mxGeometry x="60" y="30" width="120" height="60" as="geometry" />
        </mxCell>
        <mxCell id="u8F_S0l8aTNUOHP5Od4l-4" value="img:pg-17" style="rounded=0;whiteSpace=wrap;html=1;strokeColor=#d79b00;strokeWidth=2;align=center;verticalAlign=middle;fontFamily=Courier New;fontSize=12;fontStyle=1;fillColor=#ffe6cc;" parent="u8F_S0l8aTNUOHP5Od4l-10" vertex="1">
          <mxGeometry width="80" height="40" as="geometry" />
        </mxCell>
        <mxCell id="u8F_S0l8aTNUOHP5Od4l-51" value="" style="shape=image;verticalLabelPosition=bottom;labelBackgroundColor=default;verticalAlign=top;aspect=fixed;imageAspect=0;image=data:image/png,iVBORw0KGgoAAAANSUhEUgAAAQAAAAEACAYAAABccqhmAAAACXBIWXMAAAsSAAALEgHS3X78AAAgAElEQVR4nO19B5hURbb/GN7u2xf+b9197+0qqICiksNMVYOESbe6aoZgxJzAiAlzAAmSRKIiyqqr5AwSlCQqIEERUBTJ2Yio+9w1rAr0+X/n1K3bt3sCA9MTOb/vO183w0x339t1fnXqxLQ0BoPBYDAYDAaDwWAwGAwGg8FgMBgMBoPBYDAYDAaDwWAwGAwGg8FgMBgMBoPBYDAYDAaDwWAwGAwGg8FgMBgMBoPBYDAYDAaDwWAwGAwGg8FgMBgMBoPBYDAYDAaDwWAwGAwGg8FgMBgMBoPBYDAYDAaDwWAwGAwGg8FgMBgMBoPBYDAYDAaDwWAwGAwGg8FgMBiMcoFQJnhEkZ62j+Ugwr0XPnqaPgc+ZzAYFUACFQ2ZWzk+B4Nx3ECovOBRKHOi9PSJ9FgOIjx81CdKz5wgs/PpczAJMBjlCKHMSf7jlUKZrdLT7wpl1sryEE+/J5X5QHp6sfCi/4qfg48ADEY5Qnr6ZP/xgVbtL4BINA8iOh9alIPg+7TMaw9C6e+Eiv47fg6hmAAYjHKDUIYIQChzdwvTDoQyv0hPHxLKHBI6v2wkmnfIf4+DUhmQnv5CeNF/w8/BFgCDUY6QPgFIZbrhbiw9fVAoE5O5UZCtW4NslUKh12sFMjMbiQbf6zBaHFLp/UJZAmALgMGoQAKgXTk3GhPtLgTRfQiIniNAPDY8NdJjGIg+z4C4+V6Q2R6+FxMAg1HpCCDbi4lLroL0pZ9C+soDkL5if2pk+ReQvu57yBgxGWSbTBDRPCYABqPSEUCOFxMXXwkZ8zdDxuu7IGPRDshYnAJZuA3Sl38OGU++DLItEwCDUbkJYMFWSH9jjyWBVMjiHWQJZAweywTAYFQpAliyu/TCBMBgVC4wATAYxzGYABiM4xhMAAzGcQwmAAbjOAYTAINxHIMJgME4jsEEwGAcx2ACYDCOYzABMBjHMZgAGIzjGEwADMZxDCYABuM4BhMAg3EcgwmAwSghpGfSRDs3wcafcOMeq6i4pqBSmXuYABiMYiCiOk2ebwdXSGVOoIEWqmqLUPo3dG2eLpwAlqSwIciiHZD+9peQMXgME0ARkP714yOOS0v37MAU4fHAlEoDmVX9FqlU5vYCBIAtvNgCKDcILxqf1OTpE/BReuZEfGydlVNpRrgdt0AWllG7QIVnHpLKzJKemSCVmVSFZbJU+mWpzDpURuzUm0wA6a/vgvQlu0stTABFww5JDQa1kvI7SE+f5JQf5yY0jkYr5kMe73CTbO1zvbx1+wsBh2ngzlnVBaf0SKVj/qAOEKY9iBtuB9H5DhA3pEpuB9HlLhCdrgGcO8BtwS3cRGZ67o9qk8qkC2U+EJ5pjf+2cxQtMeDRAP03jHKGdfgFTsBXUWmEMj/7wzQOimhe2Qia5fgeZfo++Yd95UcSiAkkgezc1EtWDogcBfheggeDpIWvWSjtz2nUfxZK72mZ3wGEZ34Vnulif5N8A3QksA7o4+9eVfwRIHDSmAW4+/sjrkDmKIhkZkEkM9t/TIXY15K5yk7SQclVZD6nXNq0BZlDwzpQMckKiGTnQCQr9eLehycDpQU7vzP7M6J5vxHKrLFj2vTP+J3Tc08Pj/+NJQqyHKJsCVQoAeAMPVT+9IuugCa33A9NbroHmtx0b4rkHmhy832Q0fFSazKjdLwUxJ2PgrgjlfIIiLsfA3HZdaSc7gjQpMvd9jPcmCrpRveo+eXXO1I7rglAKJMW8XAsu06TXp4175We5o9o+5WsJGUOC08fop8pPV8qY4eoeoG1wCPVK5QAonmHIm0zofHtj0Lt6eugzqSVUGfSKqgzuZSCrzFpFdSeuoYUB3djMp9v7GYn9rz1Serkjb2QvvobyOgxDGTrNkQA6RdeBmeNXw51Jr8TfJZSy8QVUHvm+1C/59Nk3RzvTkAR7P5Omc0DCfMZrSAJxJAQKErj6Q3S06fh70tlJztHojZkyKgwAsiCxl0fJmU5a9xSUpzUyDKoM3ElNO18F0Tc+bnLXTakRrH1nSmKz2+n+Lx4dEicAC64DM4a8ybUmfA2fY6UXM/YpURoDXqMOO4JIMM33YV/phdKNxLKBLs+WWGejokcjwa1CpWH//7Vtzr3CmXq2r9ziVx4HLAhREZFWABIAFOQAFKkLL6gRdG0S0ECwNBcSif2FEkAK1J3PeOWQu1p70H9x5gAIphVSkcAG+8Xyiz0lfugxHBsZmZMPP48iMGT0Gkakyh4r5AEMGLjmf1SmXphSyAcTWCU+xEACeDdOAHgzlkaCQhgFTTtcncSAWBs3rcCSpucU1ICKO31oIxbxgSQhtdos/ukZ0N+Qpl8CsOiQzmaF5OZWTFx470x+dpuiCz6BMTIOSDyOsRkdm5MRvOtJUARKP2lUOZs+1q+Y5D8CdX/HlZCAniECYAJoEQQaK4n7v5vBru/F0UHbEyOXQGR13aBnPWxJYEXl4Bof3EiCdi/2S2U/hO+joz7Eir6EqsnmACYAFIFET/7t6TwLjr6ovkx0bZtTDzwBMiFn0Bk9maQc7eBfGUzRBbuA/nyMhAdLimEBPQ6qaK/xdeTyk8hZhIobx+ATwDOYcYEwARQCM6PYr4/JfG43frZoAbDi8Zo9x+/yu7+c7ZAZM7WBBIQLy0F0e6iGKZrk6/ARQeUnk6vl6vDiUUVfLXVDGwBMAGkdA15+j+k0p9QDQZmYrbNjInbu4NcsBcis7eAROWfs7UgCTy/GIRuF5O5KiZUHoYID/ok0INe1yUKKZ0WyeXIQMrABMAEkApI3/knPWOCAixMv87OiYmnZkFkwT6QIQIoQALoExgxEyhEiOFCmycQo9fydI59bd/CYIdg6sAEwARQWkgbqnOpvINb5nVABf6VKjAvvBzkjA8hMm97oPSRudtIwiSAvgEigd7PgWibaY8CyhyytSl6t1T6/+HrC98fkFHN72m5gQmACaC0kCHnnFRmFYXzovmHZNu2IO7oAXL+HojMCZn/PgEEJBAmg/l7QHR9BGs5Aqegny34vP/6JzbP1GmRan5Pyw1MAEwApUG6Urjr+40+9P9Kz/ydknuieTHcyUX/lyCy6FOQvvc/rPwFSWALRObtADl9A4iLr6LIgO8PoHsqPJ3tvw8fBVIFJgAmgNIAC3+ksh1+pDLZoTz/GFVhvrgEIq/tDrz/kSORwGzfKYiJQhgatK93yK9SXRM+dkQ4LFh6MAEwAZQW0qXtKt21pXEt2FRMdLgk4fwvj0QA7nfQWkAS6PY4SMwhwFwCTx/0SeAG+15+xiGXDpcOTABMAKWBLfs1LkQ35Hxs+BHN+1VmZYO4tmviGb8I5S/0KPDqTpCT19pMQVtmbR2Cntkkc22xEGUeZlffe1suYAJgAigNbKdf42fq6SnksIvmH6T4PzoAMfffdwAeiQAcCVBosEBUID8mlLUChDLX0Pt5+qT0/Ly05p5X0beh+hJAbSYAJoBiEL42ofRbdv3kH5KtW8fEw0NALvrUmvRHQQDBUQCPDjM+AnHRlZgliOXD1heg9Nv0fjl27brGo4xjABMAE0AqQoBSmZOkMhuoAjCaf0i0bg3ysZEQWfyZjQCUkAAKOATRCug5yuUGoGPRNXltQe/r2fqDaocW7drRY+OOHdPOb9curXV+florfEyxuGk6CCaA1BKA9AkACTbV31uwHvLz09rm5tL310apcl+noRz93wqld0aiSAB5h0VmFtgQ4CdWkY+CAEicFYC+gInvgsi/AJuIIAFQirD09BC6t54+qVpaAK7+uUUOtUY6SXj65DKUf2maqfB9FhbrA+CGICVuCCI8vV940f/KyM0/Ae9vmX5/8Sac5b5OQ+/9O6HMZ5b88g7T9/rkBFvxd5QWQOALoIjAFpAL9gDVE2BiUTT/sG33bjaHm4bI6hgNiOSWr+kolZnjE8DBOAG4lmDLUiPjsCXYCmoJJsMEQEq7M3WCLcGWfwHi0cEhAugEZ738hm0JRqSWAhn7VlEtwb4oz++uourlXTKO8PS/CU9/kUAAgycFBHBUu39AAqG8gKFTca3EJCYGuVJjZdLj2YHxAqEMbT9Tk6vyaDIRzb+Mz40Mjr1ovUT833XDcSoNnFkTyaWz1T1SmSekMn2lMv3KSB6XyuywVVx5h5EAGt3ZHWrPWO83BF1tm2mWSvA1VtOOmdAU9KZukL78c0hf9hmkL/3MPpZWsDHou3+DjMeGJzQFReWvPfVd+1mmvFN6mbQKas3aAPV7jaR259T9hhao/l4qM8i/r2XxfeFa6C+V6SOV/m9aMxXga3CWqvT076SnPyUCwCMAhgEHjYfIwk+OyQJIOAZgduCUdSDaXYidl+PHAKW7+dd9MtUjUE2CPgHnDKBPAq0jesR/exotsRPwUaroCTSUxLO/gw1McVwZRjNsYxOf1HLyqDlphcDd2Eiu/q309Net2l8AWGSBcdayEsve5rCbCZB+8ZXUF7DJLQ9A41tTKLc9SLtx0Bb8wstA3NvHyj29489LI/g69/cDcUVnkNl+W/C8DvZabnsIGt/6YEqkCV7P7Y9Asyu7BLMOnKOqLL8rknYdbX99ZeoXNn6rfNapG+9lfis93EB8HwCOSev7QpAGHJl79ASQUDU4bweIzncD5RdE8/xSYTPOf2+cO5AyZyCSAY6Yx/uJ14e9DsPXWt4WwG8kJj9Yswcn9vyKlVZC5ZWBmGCSDpFALg4GyYZIVurFH6Nlp+mg4uCCSbW0ycTyUvse/niwsrgWvEehwSBB2+sy+o5+9fvr/yI9c0gq84NU+lxaM36lXHnCOZBbaFKa9XQ+134UoPtTIBd/dlRhwEIjAvj3GA14CI9zrTEzkJKCpGfWhj+LyDEnCqX/VyrdWnrmGqH0I8LTw6RnXhbKTJPKzBbKzBGemSmVHieUHimV7imUvlF6Jkd4pqZQUUpqcmh8TRvfB2fJgN4HSaGsj1xJBLDNb7Bod2ecpJOdWzZia7F9xYySApWJeNEExaRrKgsJXw8+L4tryfaIxNx70PUg8ZTF95NENEQEyvgEUBEWgE7LiLqGoHpxkAfQpk1iG7BjJYBwOPCJ8SAyszEc6PwsB4QyGVKZLtLTLwnPfOAfvQArElv6lhLNijTtyVqiuZfB7Ev7/za3gNbiT0LpjVLpsVKZ24Rn76sDHSWUOTESTDs2aZGyalteGAHQDp0bpak6za+4AZpfdl3KRdh8a6v8HS4Bcc3NIK66EcTVN6VW2l1I7+FMc5ys0/yyVMp1dI8yOlxsrQ18H93Ov5abU3st194C4uIr7PX4pNb80mtSf02X3wDpF1/hSK1yEIDNBDzRfz7GZgLmHZToD7nlQZCv7oyf5Y/RAsBGIpEFe0A+M9fd48ARiBaRG2brRwfcd4Dj7azVVPT8SN+apt+l18TXwNeyo8vIylopPXOf8MyZ7pqFp9FfEBw5ysT3UigBYAikbSY0fOgJ8jyjB5q82akQGnLxFi1cUhg0oe/rSxN70KOOYbXSe+d3QMaiHZDxBtZ8P4RsTjtas2tu8UNqy1InY9+COlPfhUZ39wK8Z0RoOB58/pYgTJiSaAOOG1/+BWQ8OQZk2yy7+HQ7qPvsXIp2UAQlJdezlByX5w0a445PlYIAIh71A3ThuL5UC6DyfpXYCeiKLlZ5Qym+x+YH2EL9BKl3IPoY4h2DEpU9mkctyO3/Ram9GFlNWdmxSGYWCkQyM92cypikmY659vfo2JuHx4vDQvnDa/0ZhjbvwHwvPbIM0kM6is7DsrnnxRFAg4cH0cguCqlNeDs1Qot1GTTvdK1dYHh+vr+fXdyv74J0jNOnSt76JIkAbqX3T9m1UNKRTdBp1K13IgGgwuLYsBRdC5JA+oqvIGPw2EQCGD2PIgSU95CS61lO0YvznhxbqQggaQLw1ba3vzlESTt5HUFOWQuRV3ccsRrwiH6AV3eCwIQg0wGv35Yak8JSvwBKFY5kZsZQ6P7odpDR4VJodnkXaHrdHdDkxvuh8S3o/H2EHpt0uReaXtsVml96LWS0uwitFjxixSJt28Zkdg5QM1Mik7xDjgxs5IHu+RTp2QEmVlft9ZejBYAEsDalI7tsbHwpNHdz7okA+lJIjXa6lCXp7IT0N/cVsADcIk9tgs4aaNQtyQJYsBXSl+xJ3fUssglHGYOTLIDnkABWpm4EGZL9lHfgvEGViwAoF18F/QCaBo5kNM8xZDdyDkQW7A0sgVIRwKQ1gKQSTJXGycx41MAj18VXk2LXf2QEnDtwIpw9ahHU+esKqDNmNdQetwZqj18HtSesh9oT19vH8Wuh9tg1UOflVXDWC8ug7oi5cF6fF6Hh3X2h2ZU3UYNSZyWQQ9daFjjSnohAePoXocxg4Znfl82NLSkBpCKdNYEArk0igM/jBJCKFF20JooggIAEUpFy7KfoFkoAb+xJzfWQBbAD0lfsL2gBPBe3AFKVclwZCSArKyu+Vj3zb64jsERTGh2BPZ4+6oKgAk5ARwDjV9NOHcGMQGWg2VU3Q4MHh0LdYa9AnZdWkWLXmvwh1J74vlVwVPyx70KdMe/4sjok9mf4/44gak36AGpN2kA/O/uZBVD/kaeIDPCIQGQQP3oEFoHwzKfCM7dVUwLoxwTABFDSngAn+M9nBI5AjNlffwfF8J0j8JhSgjEdeP4ekKMX0Cj5Rnf2gbrDZ5Pi1pq8AWpPWOcr+mra0eu8HFfwoxL8u5dXW1IYv9a+9tg1cM7gaXSEoKOGf/ywPgP9M/o8pNJLU35TmQCYAKoKAaR77fAcbJt0eKZbwlAQ7PU/bmXCUJCjMv3do58NeO6Ly2inxt0+UNrQjp4gSAolkZA1UIAQ8OcT10Otie/DOYOnQ0b+Bc4HgV2KXHVi82pIAG2ZAJgASgzhJyEJpc8TSuNnijcG7f0cxfHdMaCk3YHC0mLuNmgw7UOoRef2gmb8USl8CQkhkJdW0rHi3CcmB0ly8XRkM7VMbigTABNAVSEA4eXZ9ly5Ubt2lVlmU5TzDqFHXVx+Q2I48AgEEP4dUv5526HJ9I+gtjPtxybt1qlS/CQScO9BzsKXVqKjESMEtlOxJQFMzGtaJjeVCYAJoKoQAELoaHg60C1Bc1AM1WVlx8SwaQmVgUWRQAHln7sNms/aREpZ21d291hmErYsXl5FjsGG3fpR7gCFC+OzCv4ablCaUjABMAFUJQJoEekQng9wCpZDu8pSTMQRV98So0SgcIFPISSQ3ERUzN4CZ6OXvsKU/wM494mJrgrRZuPaqUX/Jzx9Ol4vVhmm/IYyATABVCUCEBQJiIZHhPX1nYG/ksLg7jlgTNAhyIX3wiRQoIPwnK1w7sR1UKtClH81ORoxnyADOxPjmDNFu78bWnqHf52p3/3tCzMBMAFUHQIoxBn4v8LTB4JBoTnKtvie9J6NCIR8AsmP7nm9ye9DLTz3V4Tyj19LCULNL70Ok4ESTH+p9AK6xlxsMKLTImUxoajSEMByJgAmgBKuWeXKZV1qsLnX7993EOf8SbQCutxjC4SKUX50+jWcugFqoae/LJU+yeHnzH7MK0Dlb3ZFl1gEjy+2/uCgX2z0hVTmz/71nlhmTV+ZAJgAqhoBILAFV9AnMIpdeMw6W1lnSYCKzB4YRJN/kv0Agcd/xsaEHb/Mdv/kMKJ/5j/72cXQvNN1sUhWllN+7LuABUHoB2htr9OU7XxCJgAmgKpEAJJCgSqtTdsHyCQWnv6N/bk+S3j67y5sJhX5A0A8NpKafVJiUCjW32zmxwlKXybKX0DxbfYfZv6dO2gyZLS/xDf748pvpxLpy/377JKeyq6XIBMAE0BlJ4BWHTsGO6C0RUFUGdgkpBRS6UulZ76kicGuoQ2u5Vbng+g+AuT83YE/IP2VzXBWWXr8C0v9HbOasvzwecN7B1KWHzn87OelnH+/+xDNJEQnZ4us3LTm7a4t2x6MlYIAHmACYAIoZG3G50i47ronunN//Hd0B5zgg+a/3yadwmdkAWAxz2XXg3x+cVAnQOG+8e+lXvkLS/MNpfjieR+rB5t3uj5U8GMdfn6PTFT+K/Ca8Bpdr84yH03OBMAEUFkIwPbAc1l+rvuuKUTpzX8KZa6TyryDfQH8sz/W0x8mJ2B2LiYFgbirN8iZG0Eu2BuY/+dMWJuacF9xef1o6mMBEdYSjF9ri3xuuBvXIDYOoV2fPiuG+iiRSX8llW5L94A6BwcdkNPKHEwATAAVQQAy2j5N5qpgDdLQDRKD7bZPDrfCchBKZ2BtvFRmH/Xd09RjDxX/EA71pG7JbdrGxCVXx8SIGXT2l/O209APNP0p1p8c7juWar5w2a9TeCSDce/ZUt+J75N3v16fF6HptbeTuU+OPr+5iN9s1W/8oZcIZWr49xXbiyfoZQG4gQOpEldeGcmldssVRAD9mQAqPQFQ4c15/ho88ajWmL+bB7u67Z1PjS9J2ZU+KaOQ7rdS6d8Iz0SkMr2kMu85pfFN5kNUA+AUv23bmGh3YUxgh+CZH/npwPGqwHqT1icqf0IOvh+aC9fyv5wkflGQ/d01pOzUF2DSBr+2fw2cNfoNOO/xl6DxbY9CesdO2EjEhvdCjT6wss9P7/0BewDGN+K4lVPszi9zstNSiYg/5y2Sq38jPe0TgB3Y0fBBvyfgmDf9nnOpkGX0ekFPQFcO/NYn1EaLevmlRLaT4oiuDyb2BKTed6m6lqV2BNiUd6DR3T0TCeC1zdSViD5HKq5n4VabLDXo5aSegHMsoY1N0fVgj8NJq+C8J15OIAChzC8iaAseLZMjQMQO/WgslL4Zu+9KpXc4pUdTX/rVcZT2iy26cOITKf5FMfHgkyAnraEBITTtN9QYpH4o0ccRQFj5A8XG5h6o1BPf95t2+IKNP6i7z3tB1R4q+zlDZ0C9nqOh4V2PQ7Orb7UlvNTuC9uFYUovtRJDh6Rt7GFsqy/h6UlC6Tp4zc1tgZPf6QifV9CAkEhO3r8kWABt2kKD7sPgzHmbiATQEkiJzFhHr4fddAML4JEnIX3tPyD97f2QvvKr1MiKryD9nW9B3NmdwkFIAE2v62rfP1XXgjJtDdSa+zE0vK9fnAAuucpODVr1tf95DpRe3v4S0tf/CBkjpoBsm2kXkmkPZ7/0OtSa9QFZIam5nveg1uyP4NzhUwqzAM7BtdIs59KjXl8ZNCkHZxea3wlP/4/wdGOpjMG22NIzw6SnF+LEHzzLB913feeYr/SHSOnRe473GXfWS64B8dgzICe/Z+P9mPgTKgWm0t4pHxRQ/uD8Pm4NnPXCUmh21S3UkadJ53tsP7/bukOjO3pBozt7Q6M7ekKjrj1sf7/O3ag7UPpFV1KHaYo04C7v+vu5+n1f6fFogtfgpyoflp55RXqGpg3HJx0HE7NLduYXyrQRnlklPLPUl2UpEHyd5dIzP9obbtkVFabBo0Og4QMDoOGDA1MiDR58gl6P2mhjt1Vk8WtvhYz+z0NGn1GQ8fizKZJRkNFvNJWI0tCO3CikX3R5yq4jkAcGQINHBkOzq26014Le3XYXQkbvp+OfIxXS5xnIGPA8iNsesH378XuK5lE3YuzenLLvCK/n4SdpGlFiW3CNPfjWCM+8dZTraplUeqXw9Bqp9Gbpmc+FMt/bhJ082hVdz/yQwqN5jwk9+J5W6TNpCAs1ABW3PkQz/OSsj+2OT4q/pUBdv83yKyTRx3fW4e5er9fzEGnThu6pHb6SRUSO7cCs4HPq8EvmPCk6OvPwMxXS4Rfvl1N69FEIT+P1jhRKN4krvj3+4PMWUWp3XnImlUrf1qpdR4oZ4hu4IQSlFutQse2I3JCL7By6OWgNpFrCE3toQbdqBbJV69RLeGIPTiAqg2txCyi4HuwpjxNrUn49rUDicSY0GIQWZxlcDw0gdcNU/OEgzuN+LGsL/xbXrD/Tz30n9lxMPfXzDyUoPLbSxl5/6DXH2Q433U9jwOWEdyimj2f8yNyQqR9W/nnboRE29ShK+Z0FMH6tddJhMo49+sb8lt+H8PMkit/jXxXS4z+aT0QWdPP1zKfS0+Ol0p2kZ/4rvnnbPv/BmDNl0DIqufL7BPCob1Lg+C7ygBb8sIWLPPLvxCiN0j0ig2GYoizEHjWs4PugSWVSLPia+No0R66sr6edfQ96n/z4+6dK3Ovhe7n3QSmr64m/Tyz0eOiYRfsKjud32/DSKnqOssqOZ3lUeJxIhNeJQ1XuHwhY348tuuRru2y3HxoAssX270uq6Q8rf1Epvq6nH8bl6w6fE/T9d8qcSFqJRFbYlB+pzE9S6W3SM7Okpx8VSmcKZf4jSWf9waHx8erHPP9PKj0SP4Q/u4+Ga8bNlaIkEySetXFXYmGpIBGt25BDlkacodIhydBUqFtB3PkYiJ6jQDw1i5x5pNC4y9PZ3m/2OTt+vj8W5Q/H6tH8b3RXH+rx7yYtC6UPC0+/IZVZjMlFUukVQpmlUpklwtNzhNLjpDJPS2W6S6U7C6VzpTKno28jWU/RsYeefZom7Ec4MpROa5ldyhFfwtPT/EmtB/Esgg4J66zoVYz0hKb39APx8FAQDw/xH1lYykkeGQ7y0eEgUcGfGAdi+HSQz80Hgeb8jI+sAs/fAxEc8IlJO34VH53rk872kWKUv7Gv/EVm+QXOv/fgrOeX0kAPf9IyOR6xxdgx66UdF44hzRPtDu9n8uXaMGjKIJR+k5wL0bxDyF4Yczxz2iZqJpgQuvCl9qQP4MyJ70O9WVvoBmPvdBaWchVcd6jcKGjGo5KjwqOiY6IONeVAZd9cQOETuvvMLdjQI3nnP5Ly291/A9Tv/oxrvRULCMAz19pNNrH1VpOsKCU/4ThvP0335MCsx5/7Jr3I8Yd55pbhRF/hmQ/jyTptqXc5FRm8tLJg8oIrQnhpFdSftB5a+DcZQyUsLOUtVsF9JU9W9KRdvdjhHXNDyj9325GVv5DU3eaX3UBObqHsBGDhmb3Cs2d3GpSGNtAAACAASURBVNFNRUfWfKfiIzLlbSHS+XntSRdb6DKa2FssASizx/ZAw1h9G2hw3yCoNeUjO6igiJ7lGAfFZAi8WYXddBaW8pLiFLz4Dr6FK3+Rob4k5XcdeHCzPLf/OFsv4EchfKd6Xxebx6zEcsnDPxZIZb62MeB8zDiCBg8NozFF1GGkiMKFwgjgWOensbCUtxQkj60lV/7CQn/X3YEx/5Dzz/wglKmN+iUqQbOTYiGVn6wTzaMxxPUfHUkNBgILoBgCSL6ZLCyVXYqyHBoUluFXhPIHob+J6+GcITPsRN7E3f9lX7dORDPfee0rJaj7qZ+th5lL9Xo86xNA0X3N8EZhMUTyDWVhqYrKX6+Q3P4jN+ewBNDkxvsC558fx0cCSPd1q0AFYqWDVG5kUF4MhyLWe+w58moWSwBj3oHzmABYqrjyyzlbaR0fjfLHE3/W06DPUOLPQT+cPo/0ytMn0tm/Mu/+CGwYGOTrZ+VQNdKRCABvEtZCh29uRX/BLCxHo/zC9e5/uYTKnxT6wzB545sfiof+PEPef6l0tiMAfEyv7ARARRTOB1DCIwDeqLoT1pbKC8vCUh4SXpvO058xewvUHf9eyRx+he7+66DuiDmuGUdo99dLUKewJ4YdOFJJPf9hSKWP2gmINwvHHjEBsFRmKRDmm7ed5vUVGNk1pgStvBLO/u9Dk5seiJ/9PX3Y776rw4k/hTUlqXQQQRgwj8KA9R8afsQwoLt5yKThG83CUhlNfqf8TY+1dfeYxLP/OUNnJozbtmm/+o1g96duRVVA+RFS6b3hRKCG9z2RmAhUDAEgmybfcBaWSqX8foy/MY7pPlJ239gS7P4T1kHTG+4O4v7YNdjvO+Al7P6ebUZa6SE8/X5CKvBdfeI+gGJuEt5AnITikoEq+otnYSk2xl8K5a8dzvobOJEaeCTs/p55LV7AY8o2dz/VEJ55I14MlBVrfMvDZOa4poXF5QI0mrqBTCu2AFgqm7PvmMJ8Y5MlMQ0eiaDZFdipKcd27vEbm0hPtwh7/sts6k5ZQHh6MvUSj+YdRLOm6fV3UnljcNGFiCMATKBwN5qFpbIIefpf2UyRqkD5i1jLtUsgbvYe5sj4pj/t/v647QlB1h91La5Cyo+QygzBjiTYmgjbUDW/rLO/868plh3xxuBQhIpmfhaWsKBF2mzWpoRRXaWSMX69/wvLsDW3Hb8VdDbWPwml66IeYVty0qdj7cxTURCeHYVMDUFyVSyj/cVQ54VlUHvMu1AbEx6KEbw56bM20XgkMXszC0sFCpYDb6FjabA+j7B+a5dAsCy+1oT10PDuvn63Hxq8+as/hOOJsOOvSsT9kyGUvgSbENo2w9GY0O3hjF5j4bT+06BGvylFyFRfpsDpw+fCGc8sgDNGzmdhqRjx19/pT86E0/qG1+iUUshUejxtwHQ4s8eL2KPRJf04r/8nrkEnNvFonde2chf9FAXh6QwagOg6+CoDte8fAaf2nQo1ek+A0/pMLFp6T4Aag2ZAzadfg5pPvcrCUv6Ca2/4XKjRfwqtx2LX61FKjd4T4NR+U6HR5TdDxHf84fw93/NPU3exkw/pUVVUfoTwzB+EZ77D1srUgzzHi9W9ox+c2n8G1OgzAWo8PqlIoZs0YBqc/vRrLCzlJ0+9ah9HzoeaQ2dDjb6ToQauxWLW6lFLnwlwav/pcPZdAyGSFPYTSr+FumNHk2HBTzQtKysrrUpCRKlm2c8FyDvUIisrVq/z/XDqgBnEgMXdWCKAvpOg5oh59IU4Vq7wBcJSrcStqZpJz2sMmhnfrf31eFqplH6i/Xt87DsZTu85BtLbXeyP5QpGmh0WSjdH3XHDOI5qEEdlhPT0JOsIzDsYyc6FxpffSDeAlP8IzIo3veaQ2QlfFAtLKiS8oSQ8HzEPagyYCqf1jq9NRwKlUf4ageDuPw0aXHunNf3xzO87/oRnHX/Y6svqThVXfoTwzMPhSEB6+4uhZu/xARsWawXgl/DE9IQviYmAJdXKH/zcN/nDCl9q5X88vPtb0/+sbk+GTf9DZCErszXimX8NjzSvsOGbqYTAoYq+D8A5Ams9+Aw5QI5IAHQMmFwoU7OwpGzXJ5N/RgGTPyVn/z7Jpv/LkN4+ZPq7fH9P0+hr6Yf9qqzjLxnSM3+Snv67VEgCeTE0e865rVfcD3CEG1jgGMAEwJIq5R/pvPwpNvmLMf0bXtW1gOkvPT0KdQX7+LdUUTL9mzcnV0D1gFB6BdUEqLxD2Bik4dW3w6n9ppXYD1BjoI0G8DGAJVW7Pv178KwCCp8y5X88tPtjyK//DKh7R1+I5GCL77y46e+Z7SLX/DvpiWdN/5RO56lI4LwxfBTKDPL9AL9aP8AlULP3uJL5Afz/Q6YOvsRKsLBYqrijb+C0Qkz+FCl+8rm/31Q485HRIHT7mPSi8eOwPRpnhWP+1Ub5EcL3Zgql86gvAIY5sE+gF43VwYQg3wo4UngFzbOag2Zak80/BrAVwHJMu/6QV8rG0VfUuf9x/NlEaHrR1TG3+4e8/gPDGyWm+7bMsZN8qgWcN1Mqc4pQ5ivLeHmHseqpXpcHrB8AE4KK+AIS2JmdgSyl3vWnJ+z6ZaX8ief+6dDgum4QybaVfi7bT3hmldMTV+VX5WP+ybDti7QlAc9MC8KBOR40u/DKBKYsUU7Ak7PiVkA1yA0o7PNX9Ws6bnf90DoOzv0Dwud+m+hDm6Bn/iE841f6uYSfamT6hyGCs425we9tfoiaHXg6VvuBp4NwYJHHgCNYATWfqpqLFR/PHGnF/Ryfn8FEcIzKn0QEI8tx1/fN/MRz/zQKd9vGnsG5/zA5wz19BemEp08mHfF0WqdOndKqHTJUNJhfJpT5s/T034JwYFZ2rP4N95GJFBwDSnAUqPlkyBdQBRUFPy8qOcp/D50Lvx88B/48fB78aZh9/j/D5jIJpMTDX067fmHn/r5TKN7fvP2lfo1/+NxvnnJOv4xcnRbBRh/VJeafjIjKs7PIVdDQIH4MyFWx5h0uLWFWYJIVEKoPqEqK4pT/tBGvwv8Omwdm0jJ4/O2P4K8f7oQXNuyAXm9/BLkTlhIx1PB/t6pcW6VQfBfXx1Tectn1C1F++tlkaHLp9bFwvN9W+enlTjeEZ4/G1db0d/jPW58OZzdd3MKmPR6y1YG5MayIOloroCqmBzvlP3XEPKj77AIYtW4L7PnpR/j0p+9h84H9JDv/9g1s+vZbePKdTVBrpCUKJoFClL8oIhg0s4Cyl6niJyk/Cpr+Da5JyPN38f4vpKdPDZ/7q2STj6OF9OgYQM+FMr8TyuyyTULyDlNx0GVd4LRwWnAJvjA6CgydE3zx4cfKKO6z4a5ea+R8mLJpN+z/9Z8w4fUlcN29D0DupZdDh+u7wOsbP4bN330H+/7xf/CX97cRAVSF66t4J99s22Cjd+KuX6Ncld8m+5x30yOuvh/I6WeHeuLj+aQPLjTumbSmWRekVXsIPAbY2mbnDBzgjgG286mOhWsDissJSLAC+k0poByVWUnQwfeHIXPg4Tffh/0Hf4ahEyZB49aZ0LRtNtSLnA939OwDW//+d3j/yy/h/a8OwN7vv4PbFqylvwk7Co83KVbxydxPTOgpl13fKb97H+fxv/3xcJFPjJx+NNjDb/DhO/2wvfdxsfuHEYQDla4rPfPPYGx4dk6s4TV3lOgYkEACVCk4I2FhVObjAO7mdUfNh9X7v4E3PvoQ0BmakRMFbJqKRHBb98dg1z//Cbt++gk2fvstbP7ma5i/69Pj9ghQ7DkfvfuDZhRq7peqZv8olD85zRcr/DDBzW/tFcN4v7/R9cV1jxsgtvRu1rJj9T/3JwMvGI8BQW9zZSYHzkC8YdH8GKZKUs81YtaSmW9BoVBSVKCyKYzz+OuJS2Hvzz9D/7+8APVbtoaWdncgSc9R0GPEUzDlrbeg62O9YPqyZbDlH/+AyEtL4E/D5wWRgeNR8RP+jfn76N3vXQG7fqHKP53a3PnhPtr9A4+/0uPiVrA9BstoNfX4FwcX45R+NEAoLf2FH3NWQIPr7o5bAUc4vyUcBZLqBILHSkQCzvy/bOZK2PvPn+CBJ56EBi1bAzlEPU0EgI+N22RBs6xcOE+eD8+/Mgd2/PgjqAlvJYQGj0fFTzjnV4S5X5zyPzjS5vhTeW9CuG9RgYzY423nD4PGGpEvwIUE9SwaGhJYAXmxWg8/m+gLKCkJVHJ/gLMAzKSlsPcXtACeDywAVHxHAlgvgaSQkRuFGcvfJgugRTW3AI6o+EPnlH9Yr4TKX+uhZyDDdEhUflrTeq309O/8de+s3rTjGq67SSj1sYXrFuysgEZX3pJYJlySUuFCGohWRhJAH8B5zy6ANQe+hdc3bEDiI0VHhXfHANw5GrfOgo43dCEfwMLdn8GZfvTguFP8YXOKdvBVCuUfBRl5HROU38903SKU/mNCa6+qNtOvLEkgKTFojrMC6OyUq2J17hvuk8CEI1oBBUhgoJ8fUJHHAVetGHrujgF/HDIHei3bQFGAJ8eOh0atM0nh8fyfnu3RsQCdgjNWroIvf/kJbl/4XrWLAgTKXqTizy00fbdCdn1//eE6TFD+B0cW2Pn9jr57pNI1Eyv8TJrIPY5N/zAiruop7gtItAJycmNNL7k2hq2TAqYvYVQgeO4iA0kkUKbWQJhk3POn5sHpI3zx/w+tgLNHzYdXtu2FL375CcYuWgxX3XUPZF10KXidroDbHusFC97/AL46+E94acP2ArtkdVB8V8pdpOIH32k5xvOPoPz0/u7M/8BTIEzimd/P7/9MeKY2rWvP2HCf3ewqVukqG2jIofbi2YGefs4fhfQr3lA8Cpwbahl2NFZAnASsJXB6WZEA7WBO0UNCyj4Paj49H2o8uxhqPPs6Sc2RC4JMQMz7rz96ESn4Jz//BPt++Ads3P8FbPpqP3z+80+w64fvYcSazXDWqAVwajXIBHSFOglKn2zqY3OOx/0dvyLP+UdI8qlzzxCKWBVQfmU+E8qcTetZhZXfVLS6VT64jicuLwDPS0LpL1zDEJkbJfPqjO4vxMOCx0ICA0tJAlhdFv79ZGV3O7wzZ59ZCDWeWwI1Ry2CM4bNhrN7PAsNb3kYGtz6CJw5eHoCCWA6MBLBhdPeprTfiZv2wPiPd0P/FR9B3uRlVCdQpdOAj3C+Dzrwhs/4lUjxC6T3YpLPnf3tdKvcaKLZ75l9QumzEqv7cKAH7/xFIoiJxluGXecXSxxyDsHGl98YK5AiXBJxiwgThQZMhZojkn0Bhezchcq8kBk/19/Z8WgxH2o+swBqjFoMNZ57gxQff6d2//Fw7n1PQqMb7gZseSZzFY57hhatW0GTa7oSATjFcB79Pw6dQ2f800agws+DU4bMoWhBVa0GTE7IKpDAg//G2nxswllZzvjFKD8+otl/7i09AKv6/CSfsMNvu1D6DH8t+zs/RbrSGMWguefZ9GCbHOQahrzi+gbao0AudQ/+84CZgRMmOB8mdV0h6Z0k+LNe4+mLPX3o7LiJjsocPpuHz6W4iHEk1Mj5UGPUIqvkaMaPfhNqjlpMC/mM4XOg9sBJULf7M1Dvzj7Q+Lo7If2Cy8E/vpDSoxVDc95Ne1w4OPqZ3tc5BovrB+D+XZWUv7DdPuF8P2IelXEXFscnxa9IpS9U+fHoOZks0AbX30NrMZTe6+L8G4Rn/kRrV1nlj3jRtIxoXkWrV9WAOx+55CCpdA3p6W+DowA2UdDtqGkIfiFYNoyOIfvF+NJvKjE0mminDpgZl4Ez4c8ks4hATh04C04bMZ927Bqj37CPeDZ/ZpHd0Z+ebxfriLlwxtBZcOaQmXBWn7+SGX/u/YOh/u09oVGXe6HpFTfS7k5jnHGHz8wihY/gc2UAd4WIdQjhognI4Nx7n6D3SnAWVvGOQMUq/cjQ+f6J6cHuXul2/JDyByTkD+2s2WscTrGyJb1x5af0Xqn0UqH0fyQ38+Sd/5hJIIiXXo5OFXsUsM1D8TEj7wJo3vEyaHrJtdCkU2eqIGx82Y3Q6KqugBmE2FikfpcHoF6XB6HejQ/58nBIHrL/d1sPUuYGXXvQ+bzx9XdDkytvJiHlvvBy9D+AMB1sbD43Srt6i7ZtraKjUuPPMGlH50MLXAxRTNzR0Cwzh8J4jdpkgTTtocllXaDeXX2gdv9xdEwIPOCVQHlTbuKHujLRbj84ZOYnV+i53bailb4Qk985+8585DlodsHlQT2/3ZD0IT+9d7rwoi6XJWjmWe36+ZVbRCCq02RuXjw06Jnn/WEJv/rnLXK80I6b42F/tbigyZ2dbc/aWVmJkpn0SM8zIdI2EyL46HZvVOps//XwPXD3Vpqy8kjJTXuI+IqOnyc9NwpNM3OgUau2UL9FK2ia5VECT4fON8PdA5+EUbPmwMwPNkKjF16HP41CK2NhwdyAahC+K3y3nxF04Sl0d68sil+I8uPnpYm9dw+iMB9V9fn1/LgZ+HH+YW7thixXVv7SwN28+Dy0vN/i+cp3ClKCkD89NZbhacjwqIoQsLkiic4ns5sETXBU2ELF/b/9Xfw7atAYzaPXxF0clbt5jiIFx7z8hq3aQr1IK9rZMUcff79Nhwvhwhtvgdt69oF+z78ILy1YBEs2b4UPvjoA2374AXb89BN88uP3cM/r6+GUJ1+BWk8nRRKqiNIXpvAFlH44nu1nFb/bV0ZJ2vXxrI+CVqLM9cKe/oM0tstaAXe4NRsUtdmmt6Va/4xQVCA0R+Bcocz3pODKEANj74BW+R0govNs5lyOgmbZHjTNzIXGbbKppBZ35YbntyFp0BKldfBv/D8U/L0mbbOhaVYuNM+2r4PpuK3adYTW7S+AnIs7waW33AbX3nM/1ej3HDkKhowdB2MWLoK5762F1Xv3wYavvoItf/877P75Z9j54w+w5bvv4ONvvoEPDxyAD/Z/BVu+/Qbe3PsZnPPsAgrnVRmlL8LMT1B6Z+IPmEbKVNRuXymJoFCTfzqc0eNFaNLphuTzvt/Gy/xNeFo7xXc9LmnnZ4dfapCejUeAgARsLFWZi9EEx4YhMpp3uHlWLnS8vnPs5YUL4K/zX4NnZs6EEdOnw+BJk2Dgy2Og3wsvwOOjR0OvUaOg5zPPwGMjR0KPp56m571GPQt9nnsOHv/LX6D/Cy/CoHHjYeiUqTBy5kwYPXs2TF66FN7cvAXe3fcJrPvsc9hw4ADV5G/1lRxlx48/wLZ//AM2/e1vpOwfHThARIDy4YGv4aOvrWz85hvYcOBr2P33/4NuaAX4qbyVzblXnMIHfoqR8xOVfmCi0heu+JV71w97+a3J/wRk5F/gK39w3rfOPs+8L5Wp4zz98TWq05p36JCi1c9Ic+ZURpAfELRNotHiUhk0xWJomt/40MOx5bt3wOpP98GKPTth1Sd7YPUne+nfKO98hvJJkuyDd/z/X/3pXvqbVft2w8q9u2HF3l2Ar/f27p2w5rNP4cOvD8DH334LH3/zLSn0hv37rZCiHwgUPazw4cePvv4GPvz6a9j87bfw9qdfQIPRiypFRl+xCh/+XLjTY+be8Lm29j5pp6/0Z/sS7frTKKpEAzswvh/P7DvozvtSmbFC6d/QOvTDfP6arDglOX4qBnXcJ+CZF3wS+BVJAM35K26/M7Zw44ewdMc2WPzxR7Bk8yZ4ffPHRyVLtmwqIK9v+Rje2LoZVu7eBes+/5wU2pLBNyEFTyKAIsjAWQF93v6o3K2AIyl7osK7Xf5Vm52HjTX7Ty3BTl+Jlb4IxXe7fp37h2NUiVrTJ5j8tjITSaCrW5NBDz+/kI1RxnAM6yalIqSn57gkIfySGrXOjF1y862xV99fTzs3KvSb27aQ8qLg86OR8N/gcyQDfFy2Yxus3rcX1n/5hSWDb74lQthYDCEkWwdIBG3HvRk09UglCZRE0Qu8n1N4/L9hc6wTD3d5573H+ouqqvTF7vrTaSBt/RvuxfCu7ddvnXuHsHefv742CaWb+WvuxNBoO1b+8oTrnBI0D8lRJ2NPdX+gIpFA49aZsfyrr4vNWL0KVu7bTSTwxtaCCn0sJFAYGaC1sWrvHnjv88/oOGAJ4ZsEQkgmBVT+nd/9DSZ+vIty/wMlLDSWXnS4raRSgCTCyo7n+KGzbUZegsIXY9pXJaUvatfvO4VM/rPuGQLNO3YqsOu7JixCmdHCM/9q15852Tn4UPkzrA+QUV7IMCZkCQTx1n+TyqwOkwB683Mu6RQbu+R1WPXJXlhCJLC5VNZAcQThyAD/vXzndiKENZ9+ShaC8w8gCdCxwfcjfPj1N7Dr7/8HdyxcS5N/sN9/SpQ7rOS+omOdA/0+nt+H+Mo+cDql4DplDu/w1ULpi1J8zOMfMIM8/A2v7goRDO8l7vqU2COV+UIoc5Fbe64+JZKluItPRSISSq0Mmiso/R9S6XdDJBDD6ECLvPaxEdOmEwk4RU0FCRT1t+51ne8An7+1bSss27kdVu7ZBe/s20sOxXVffA7rv/wSNn59ANbt3w/nj3mDKv3OxHqDZAVOlmRzP2zq424+bK7d0Qe/YgdioKLj2b3v5KNS9iqp8MUoPlXvUW/JiVTEg117ksN7tOvbYp7JQun/cVl9wRg7dEhziK/i4RcLpYVzriPWEljqSAAdgxmYE5DlxbqPHAXLd+8icx2tgVRbAkcihDAphK2FJVu3wDu7d8CL735gS2AHToeamDWHgu2tB820Shx6pP9DQcVGk33AVLuT+woeKHkhin4kha6yCl+Y4vtDOd1AztP6TYGzug2CZhdcQYpPhVkq2PVjfpbpp1KZYBonKn88F0WntcxpX2FrnlEICbjogLMEMnKjJ0tl5vkkgCFCmsCCfoEbHu4em7/xI1ixZ5fvFyibI0FJfQ3ufRdv2QSrd22Dh+Ytg1O6j4OauHBRcY8kSYpdUiWvNspe7I7vFB+LwqZRt54ml3W2oT1/KKeL61NozyaWPSc8c0pyYg95+dnkr5yglMv4cYB8AvRc2RChnTBkDmGWYKNWmbG8a66PjXnjjZQfCUpMDNsKcyiiJbAZVu7aBldPXAy/7zEOTkdHXIqUo1opehGKn1wGbhXfNuhsdNVtVDeSXLqL5j72nZRKr5HKtAmtqZNcj36yNFn5q85xQPitlv3n3Slj0LL7QXQONsvMiUmdH+v9lxdg2a6dsHzX9jK3BkpiKVhfgf1Z9C/ziATO6FvNlTcVih8y8+0ATl/xH34WGl59Oyl7/Jyfh4+U0OPX7e8XXjyuT+a+H2L2800qZkEzjh621VLA2idEcp35Zi6SyvxoWzRZv4DIjWLH3dhV3e6LTX9nNWULhq2B8iaCuD9gMyzbvgUWbPoYWo+cDaf0GM8kUIjiJ5v5VK1HZ/yp1JUXPfuue5Tt1GMVX8TP+T9LZYYJlfffbv2gH6mln8KLcf1IHjv6qhxaYIgwTgLhtmL1pKc3+EcCLCA6jOYf+gXadLwo1v+ll2Hpzu3w9p6dZRouPJIvgEhgy2ZYvmMrzPloI8gRs+APjzEJFGXmu7ZcmMVX596h0PiKm31TP1HxycFHpj4WjplJ0tPnhRXfJfLgY8bxOJ6rusGRwB86dw63Yf6N9PQL1JnHxnt/jeh8ihI0bpMVu/yOu2LjfN8ARgrK+1gQfo/Xt2yGt5EEPtwILZ56BU4JjgPHExEU7tQLm/k1e42Furf3haYXX0NzI8jU99vIO8UPvm9Pz5FKR0Jr5CSXUSqi8dwSRjVBOEXTjR+3z/VlwtNfh6yBQ7hAmrTJwsrC2D0Dn4C569YSEby1fWu5EkFhJDBv40ZoO2qO7xi0ylGtSaBQpY/n6qOZf+bDz0K9zg9QCzZUemzYgmf9hDM+7fjo+9GvSaXbxtcFpvHGncV41m/VsWP5L1BG2SPckUV4+gQ3i00ofZpQZmaCNYC+AU9jX4BY9sWXxvo8NxqwqCiZCMqaDJJJAI8DGCZs/9fX4L8oRDiJpPqQQGE7fcjE7zctvtvf2Z/avQXn+1zlzPzDic49fVgqPUMo0yq+FsyJ0jMnhprM8Eiu4wER21IsLfDs+i2aEVKZK6TSn/lpny5SEMNRXBgyNFddExvw17/Cwo0fBUcD9BG4RJ6wlKVPYOn2LSRdpi6BPz42Hk7tM5GsgSpLAuE27QV2eqf0dvhLnfuGUW/H9HYXYWs2VPxgWpQ/Nu4QRnr8Gv1/CE8/LzzdxH3HaOZb5XehYmw1F62QtcioQNiwTryQKGjdpPTvsZ+b8MwhmkVIu4c5iP4BbPWFjkIkgj6jR8O899dRv4Dlu3faqEEZWgUJJOA/YrJQr4UryB/w3z3HV6EjQdG7vP05mvd2pyelv38E1O98PzV7tWf7bL8un8z8YLdHC87vx7dTKNNTKEN9+O13TLs9mvuheD4X7hzXEDo/qCGgLEI/SkD/9kxTLC2ORLHZJ4UM0TeAQkSAZcY5F3eK3ffEIJi8bCks37UDVu3bA2+hVRBK700lGSS/HhLB6t3bYcy76yHy1Cw6EtSolEeC4hTe7vJUiTdgBpzWbxqZ91iRV//6e6zSe1GqzLMmflzp0dTH78cvz8Xu0K8LZa4Qyo7b9r/Xk5DgIy4ahOHhKCs+IwQ6/8XrCE5wXYYQwjNRocwy2/WXur9gyJC6DqVnqxj6CNA6uKbbvTBs0iR49YP1VHKMgr4CIoOQZVBaQsAswfBroF9g5c5tsGjzJrh+8mL4314T4H96TahYa6BQZS9E4XFOg1+Mc+Yjo+Gcrn0oSy89/0K70ycqfWDiYyIXKj1+J8Kj3X6QUKZx+DslxVfmBJmr3PeYJtnUZxSFxtFogklozcV4FqFUpoP09NuuOsz5CCI6/zCGmrAzcJO22TEsOb6jdx94dtZMWPDhBmojhv4CrP4jR14hPoNjIYRk5+Bb/pHgqWVroNmwGRQlQOUvUyIoUtFDyu5MegzV4VAWX+HP6P48dzsaUAAACBpJREFUnH3nANrlm114JQ1QwdRcOtNTp92Enf4QevDxSOZbY99IpScIz3QUufHdHidHYYQnqTCs3NcSo7pECqi1kz4pEprZLj3jSaXnSWU7w1AraBs6pONBeg5ZBdgaPKY6XRG77bGeMHTCBJj17mp4c/tWyjJcuW9PQAjUXqwIR6JtWlI0MSQTCBLBql3bYP6mj+GW6W+Q8p/y2PggUnDURBAuJCpyxqIbr+YaafrK3h8nMM2gf+PknFoPPgPndO0NDa69K67wOZ7d5XO8kCMvD015nPNAyVl4j32l/5tUepbwzHXCs2W5Dr7SY7FOWobKT5NelKftMkoHrPEO1RNYkzJU9y2UbiSVfloqvd85n0KRA8wniDXP9ogMmrbNxjblsU63doUHBw+Bp6dPh1fWvEtKv2LvbmpEipYCkgIeG1wasu1J6EqGk8mhcCFrYDuWFFvfQP4Lr9KR4I8940RQcGZiMcodKHiikpMJ74fkcMSaG856es8xgCPa6t7+OE1hwulMaNJj7j3F6BMU3mDTjdAub6jjjiNW4ZnPpWcmSs9cIzz95/D3gyE8PKqRM9fP1sPvq0GnoHKXwSg9aIijyguFDU1QIIKQSv9Beqaz9MybbhgkjSwLkQH1IciNxpAIGp7fJtY8y6O5BR1vuBG69uoDvUePhmdnz4aZ774Diz7eSJbCin17qEsxOhapG/GuHdR3EAnCFQmR0qPlQATxsQ1J+o1MF23aCMu3bYZl2zbD0DdXQ6unZ8Ep3cfCH3uMiyuzk2Cg6uRE5fbDbzg7kZJusL9An4m0o+NI9jr3DiNFxyEZja68FZpddBWNS8NrxxBdi6wsSsqhvnpuh48GOzwpvHPi+X31fxGeWSeVGSqVNtLT/y/8XWAIj5pxUA5HKIzHZj6jrBGuAff7DtAOlPA7nq4nPfOo9PQa4RnqFx+qLUeT9ldnHSAhYCVio/Pb4lShGE4aOj+vPajLr4Yr7uoGXR/vB48+PRIGTZwEz82ZA+OXvw2vrF8PCz76EBZv2QxLtm2liMOy3Tth+d49sGLfXlj56T5YRfIJrP7sE/o3yvr9n9HPh678ALJeWAin9Z/mT7ixCk8mfu/x5H3HHRwdcqjcZ3V7khxz5934EE2+bXz5jTRzMSP/Ajv0FEej5eTiKDWbiEM7u1N2t7vn4e6OgmXY5LhrmdfBddk5KJTeJj09RnrmJumZc5qYdsn3HUO0gdJnqHZk4jvrjMEoV2AHmMSW5DZqkFwqKj3TQHr6QeHp16WnvwsWvm0nHSYEtBIOO1LAY0OTNtnQ6Pw2sQYt28SaZObSGDIcU3Z+u46QdcllkNf5Frjotjvhqru6wfWP9ICb+vSH2/oPgrsGDYFuTw6F+4YMgweGDqPHewcPhbsHDYG7nhgC9w8eQr8runSDhpfdRENJ0URHpW7eoRPt3hmY++ArN05d9hUcZyNS/TwpudvRPZOs6LSz05xGHIHum/OUlGNn5/0gPb1Wenq0UOZG4ZmGQpt/Sb7HVH+v0NKKt9dGDz7OhWQwKg2QCFr4Q0rwOe5S4TqD4Pc8/WfhmU5CmRFCmbXCMz9aB5fdCX1HIgrukgedpYDEEInaWYciN0oEkZ7txZpn5uBxApq0yY7h+LLGrdogYUBDHG/mC446o3FnST/D35Vu0Clm0qGJ7g+8sLt3knJjWi0qOJnugZJTDJ4+czAYtR2cn2+vh6rslP5eKLPBP8M/LD2TJz1TQ2ZHTyh4H+k8fzIercINN1D507nLLqMqINSFyBfySp+UfD5Nz2+PZ9ma0tMXSqX7CU/Pk57ZLTz9i/N6B8QQb17iyIGyEmU0D2sVUDAM6QQJ44iCvyuiqMiB/BpSaty9Dztz3Z7R4wqOnw2VPB79oOk430llNgpPvyI8PUQqfbPwTKZE0guFUQuJ0ZMvJbF5C5r27L1nVBsysAuaLANF59gC1gFCKPNbqXRdqXR7ocw9wtPPSU/Pl8psFsp8J5T5JTg/G6uEThFdbJxEo+QXIv7/+4J/40zzlqHXCkjH7uCo3D8JZb6SSm+UnlkilBkvPTNIeuZO4RkksCZSmVPcRJzCr02fKDyNuzvu8ieEW7aJXO6yw6jmEF67eM2BDSeGvdnBEMnCQEMmPfN7ocx5Qplsqczl0jO3C0/3EsoMk8q8KD0zVSgzVyqzWCq9XCq9Unj6HUGOSHp8Ryq9QirzllTmdemZV4UyM4Rnxgul/yI8PUx65nHp6fukp28Snr5UKpMtlGkqla4hlf53qaJBwVTRn5WKbNDiwc+Mjjt/dzdpEe3O8azsjOMcnTp1SssIstSs+esXppCVIJXBLsYnueGnR4s2F9dLa5blnSCy1QnNsnJPyMjKTcnnbhK1xxokJfyM6OuwtfSo+HYuQ1BXQe3YbAoug8EoAZp7Oi1Hu7x1349gsxJxJ0VBZcNzM44+Q6EiF6GiZFZn5BzZWYa/42c3otJSPbzbtf3XpWMKpkDb97OhNxI/3h73yus0kZVf5veFwWD4SFdW4ZqqdtS2ynU5cp5zp6xuN3Zif574+7hLU+QiV6e19MNrraI85ILBYDAYDAaDwWAwGAwGg8FgMBgMBoPBYDAYDAaDwWAwGAwGg8FgMBgMBoPBYDAYDAaDwWAwGAwGg8FgMBgMBoPBYDAYDAaDwWAwGAwGg8FgMBgMBoPBYDAYDAaDwWAwGAwGg8FgMBgMBoPBYDAYDAaDwWAwGAwGg8FgMBgMBoPBYDAYDAaDwWAwGAwGg8FgMBgMBiMt5fj/ji5Y1sGPFtwAAAAASUVORK5CYII=;" parent="u8F_S0l8aTNUOHP5Od4l-10" vertex="1">
          <mxGeometry x="80" y="-20" width="60" height="60" as="geometry" />
        </mxCell>
        <mxCell id="u8F_S0l8aTNUOHP5Od4l-11" value="" style="group" parent="1" vertex="1" connectable="0">
          <mxGeometry x="100" y="130" width="180" height="90" as="geometry" />
        </mxCell>
        <mxCell id="u8F_S0l8aTNUOHP5Od4l-1" value="db-primary" style="rounded=1;whiteSpace=wrap;html=1;fillColor=#dae8fc;strokeColor=#6c8ebf;strokeWidth=3;fontFamily=Courier New;fontStyle=1" parent="u8F_S0l8aTNUOHP5Od4l-11" vertex="1">
          <mxGeometry x="60" y="30" width="120" height="60" as="geometry" />
        </mxCell>
        <mxCell id="u8F_S0l8aTNUOHP5Od4l-3" value="img:pg-17" style="rounded=0;whiteSpace=wrap;html=1;strokeColor=#d79b00;strokeWidth=2;align=center;verticalAlign=middle;fontFamily=Courier New;fontSize=12;fontStyle=1;fillColor=#ffe6cc;" parent="u8F_S0l8aTNUOHP5Od4l-11" vertex="1">
          <mxGeometry width="80" height="40" as="geometry" />
        </mxCell>
        <mxCell id="u8F_S0l8aTNUOHP5Od4l-52" value="" style="shape=image;verticalLabelPosition=bottom;labelBackgroundColor=default;verticalAlign=top;aspect=fixed;imageAspect=0;image=data:image/png,iVBORw0KGgoAAAANSUhEUgAAAQAAAAEACAYAAABccqhmAAAACXBIWXMAAAsSAAALEgHS3X78AAAgAElEQVR4nO19B5hURbb/GN7u2xf+b9197+0qqICiksNMVYOESbe6aoZgxJzAiAlzAAmSRKIiyqqr5AwSlCQqIEERUBTJ2Yio+9w1rAr0+X/n1K3bt3sCA9MTOb/vO183w0x339t1fnXqxLQ0BoPBYDAYDAaDwWAwGAwGg8FgMBgMBoPBYDAYDAaDwWAwGAwGg8FgMBgMBoPBYDAYDAaDwWAwGAwGg8FgMBgMBoPBYDAYDAaDwWAwGAwGg8FgMBgMBoPBYDAYDAaDwWAwGAwGg8FgMBgMBoPBYDAYDAaDwWAwGAwGg8FgMBgMBoPBYDAYDAaDwWAwGAwGg8FgMBiMcoFQJnhEkZ62j+Ugwr0XPnqaPgc+ZzAYFUACFQ2ZWzk+B4Nx3ECovOBRKHOi9PSJ9FgOIjx81CdKz5wgs/PpczAJMBjlCKHMSf7jlUKZrdLT7wpl1sryEE+/J5X5QHp6sfCi/4qfg48ADEY5Qnr6ZP/xgVbtL4BINA8iOh9alIPg+7TMaw9C6e+Eiv47fg6hmAAYjHKDUIYIQChzdwvTDoQyv0hPHxLKHBI6v2wkmnfIf4+DUhmQnv5CeNF/w8/BFgCDUY6QPgFIZbrhbiw9fVAoE5O5UZCtW4NslUKh12sFMjMbiQbf6zBaHFLp/UJZAmALgMGoQAKgXTk3GhPtLgTRfQiIniNAPDY8NdJjGIg+z4C4+V6Q2R6+FxMAg1HpCCDbi4lLroL0pZ9C+soDkL5if2pk+ReQvu57yBgxGWSbTBDRPCYABqPSEUCOFxMXXwkZ8zdDxuu7IGPRDshYnAJZuA3Sl38OGU++DLItEwCDUbkJYMFWSH9jjyWBVMjiHWQJZAweywTAYFQpAliyu/TCBMBgVC4wATAYxzGYABiM4xhMAAzGcQwmAAbjOAYTAINxHIMJgME4jsEEwGAcx2ACYDCOYzABMBjHMZgAGIzjGEwADMZxDCYABuM4BhMAg3EcgwmAwSghpGfSRDs3wcafcOMeq6i4pqBSmXuYABiMYiCiOk2ebwdXSGVOoIEWqmqLUPo3dG2eLpwAlqSwIciiHZD+9peQMXgME0ARkP714yOOS0v37MAU4fHAlEoDmVX9FqlU5vYCBIAtvNgCKDcILxqf1OTpE/BReuZEfGydlVNpRrgdt0AWllG7QIVnHpLKzJKemSCVmVSFZbJU+mWpzDpURuzUm0wA6a/vgvQlu0stTABFww5JDQa1kvI7SE+f5JQf5yY0jkYr5kMe73CTbO1zvbx1+wsBh2ngzlnVBaf0SKVj/qAOEKY9iBtuB9H5DhA3pEpuB9HlLhCdrgGcO8BtwS3cRGZ67o9qk8qkC2U+EJ5pjf+2cxQtMeDRAP03jHKGdfgFTsBXUWmEMj/7wzQOimhe2Qia5fgeZfo++Yd95UcSiAkkgezc1EtWDogcBfheggeDpIWvWSjtz2nUfxZK72mZ3wGEZ34Vnulif5N8A3QksA7o4+9eVfwRIHDSmAW4+/sjrkDmKIhkZkEkM9t/TIXY15K5yk7SQclVZD6nXNq0BZlDwzpQMckKiGTnQCQr9eLehycDpQU7vzP7M6J5vxHKrLFj2vTP+J3Tc08Pj/+NJQqyHKJsCVQoAeAMPVT+9IuugCa33A9NbroHmtx0b4rkHmhy832Q0fFSazKjdLwUxJ2PgrgjlfIIiLsfA3HZdaSc7gjQpMvd9jPcmCrpRveo+eXXO1I7rglAKJMW8XAsu06TXp4175We5o9o+5WsJGUOC08fop8pPV8qY4eoeoG1wCPVK5QAonmHIm0zofHtj0Lt6eugzqSVUGfSKqgzuZSCrzFpFdSeuoYUB3djMp9v7GYn9rz1Serkjb2QvvobyOgxDGTrNkQA6RdeBmeNXw51Jr8TfJZSy8QVUHvm+1C/59Nk3RzvTkAR7P5Omc0DCfMZrSAJxJAQKErj6Q3S06fh70tlJztHojZkyKgwAsiCxl0fJmU5a9xSUpzUyDKoM3ElNO18F0Tc+bnLXTakRrH1nSmKz2+n+Lx4dEicAC64DM4a8ybUmfA2fY6UXM/YpURoDXqMOO4JIMM33YV/phdKNxLKBLs+WWGejokcjwa1CpWH//7Vtzr3CmXq2r9ziVx4HLAhREZFWABIAFOQAFKkLL6gRdG0S0ECwNBcSif2FEkAK1J3PeOWQu1p70H9x5gAIphVSkcAG+8Xyiz0lfugxHBsZmZMPP48iMGT0Gkakyh4r5AEMGLjmf1SmXphSyAcTWCU+xEACeDdOAHgzlkaCQhgFTTtcncSAWBs3rcCSpucU1ICKO31oIxbxgSQhtdos/ukZ0N+Qpl8CsOiQzmaF5OZWTFx470x+dpuiCz6BMTIOSDyOsRkdm5MRvOtJUARKP2lUOZs+1q+Y5D8CdX/HlZCAniECYAJoEQQaK4n7v5vBru/F0UHbEyOXQGR13aBnPWxJYEXl4Bof3EiCdi/2S2U/hO+joz7Eir6EqsnmACYAFIFET/7t6TwLjr6ovkx0bZtTDzwBMiFn0Bk9maQc7eBfGUzRBbuA/nyMhAdLimEBPQ6qaK/xdeTyk8hZhIobx+ATwDOYcYEwARQCM6PYr4/JfG43frZoAbDi8Zo9x+/yu7+c7ZAZM7WBBIQLy0F0e6iGKZrk6/ARQeUnk6vl6vDiUUVfLXVDGwBMAGkdA15+j+k0p9QDQZmYrbNjInbu4NcsBcis7eAROWfs7UgCTy/GIRuF5O5KiZUHoYID/ok0INe1yUKKZ0WyeXIQMrABMAEkApI3/knPWOCAixMv87OiYmnZkFkwT6QIQIoQALoExgxEyhEiOFCmycQo9fydI59bd/CYIdg6sAEwARQWkgbqnOpvINb5nVABf6VKjAvvBzkjA8hMm97oPSRudtIwiSAvgEigd7PgWibaY8CyhyytSl6t1T6/+HrC98fkFHN72m5gQmACaC0kCHnnFRmFYXzovmHZNu2IO7oAXL+HojMCZn/PgEEJBAmg/l7QHR9BGs5Aqegny34vP/6JzbP1GmRan5Pyw1MAEwApUG6Urjr+40+9P9Kz/ydknuieTHcyUX/lyCy6FOQvvc/rPwFSWALRObtADl9A4iLr6LIgO8PoHsqPJ3tvw8fBVIFJgAmgNIAC3+ksh1+pDLZoTz/GFVhvrgEIq/tDrz/kSORwGzfKYiJQhgatK93yK9SXRM+dkQ4LFh6MAEwAZQW0qXtKt21pXEt2FRMdLgk4fwvj0QA7nfQWkAS6PY4SMwhwFwCTx/0SeAG+15+xiGXDpcOTABMAKWBLfs1LkQ35Hxs+BHN+1VmZYO4tmviGb8I5S/0KPDqTpCT19pMQVtmbR2Cntkkc22xEGUeZlffe1suYAJgAigNbKdf42fq6SnksIvmH6T4PzoAMfffdwAeiQAcCVBosEBUID8mlLUChDLX0Pt5+qT0/Ly05p5X0beh+hJAbSYAJoBiEL42ofRbdv3kH5KtW8fEw0NALvrUmvRHQQDBUQCPDjM+AnHRlZgliOXD1heg9Nv0fjl27brGo4xjABMAE0AqQoBSmZOkMhuoAjCaf0i0bg3ysZEQWfyZjQCUkAAKOATRCug5yuUGoGPRNXltQe/r2fqDaocW7drRY+OOHdPOb9curXV+florfEyxuGk6CCaA1BKA9AkACTbV31uwHvLz09rm5tL310apcl+noRz93wqld0aiSAB5h0VmFtgQ4CdWkY+CAEicFYC+gInvgsi/AJuIIAFQirD09BC6t54+qVpaAK7+uUUOtUY6SXj65DKUf2maqfB9FhbrA+CGICVuCCI8vV940f/KyM0/Ae9vmX5/8Sac5b5OQ+/9O6HMZ5b88g7T9/rkBFvxd5QWQOALoIjAFpAL9gDVE2BiUTT/sG33bjaHm4bI6hgNiOSWr+kolZnjE8DBOAG4lmDLUiPjsCXYCmoJJsMEQEq7M3WCLcGWfwHi0cEhAugEZ738hm0JRqSWAhn7VlEtwb4oz++uourlXTKO8PS/CU9/kUAAgycFBHBUu39AAqG8gKFTca3EJCYGuVJjZdLj2YHxAqEMbT9Tk6vyaDIRzb+Mz40Mjr1ovUT833XDcSoNnFkTyaWz1T1SmSekMn2lMv3KSB6XyuywVVx5h5EAGt3ZHWrPWO83BF1tm2mWSvA1VtOOmdAU9KZukL78c0hf9hmkL/3MPpZWsDHou3+DjMeGJzQFReWvPfVd+1mmvFN6mbQKas3aAPV7jaR259T9hhao/l4qM8i/r2XxfeFa6C+V6SOV/m9aMxXga3CWqvT076SnPyUCwCMAhgEHjYfIwk+OyQJIOAZgduCUdSDaXYidl+PHAKW7+dd9MtUjUE2CPgHnDKBPAq0jesR/exotsRPwUaroCTSUxLO/gw1McVwZRjNsYxOf1HLyqDlphcDd2Eiu/q309Net2l8AWGSBcdayEsve5rCbCZB+8ZXUF7DJLQ9A41tTKLc9SLtx0Bb8wstA3NvHyj29489LI/g69/cDcUVnkNl+W/C8DvZabnsIGt/6YEqkCV7P7Y9Asyu7BLMOnKOqLL8rknYdbX99ZeoXNn6rfNapG+9lfis93EB8HwCOSev7QpAGHJl79ASQUDU4bweIzncD5RdE8/xSYTPOf2+cO5AyZyCSAY6Yx/uJ14e9DsPXWt4WwG8kJj9Yswcn9vyKlVZC5ZWBmGCSDpFALg4GyYZIVurFH6Nlp+mg4uCCSbW0ycTyUvse/niwsrgWvEehwSBB2+sy+o5+9fvr/yI9c0gq84NU+lxaM36lXHnCOZBbaFKa9XQ+134UoPtTIBd/dlRhwEIjAvj3GA14CI9zrTEzkJKCpGfWhj+LyDEnCqX/VyrdWnrmGqH0I8LTw6RnXhbKTJPKzBbKzBGemSmVHieUHimV7imUvlF6Jkd4pqZQUUpqcmh8TRvfB2fJgN4HSaGsj1xJBLDNb7Bod2ecpJOdWzZia7F9xYySApWJeNEExaRrKgsJXw8+L4tryfaIxNx70PUg8ZTF95NENEQEyvgEUBEWgE7LiLqGoHpxkAfQpk1iG7BjJYBwOPCJ8SAyszEc6PwsB4QyGVKZLtLTLwnPfOAfvQArElv6lhLNijTtyVqiuZfB7Ev7/za3gNbiT0LpjVLpsVKZ24Rn76sDHSWUOTESTDs2aZGyalteGAHQDp0bpak6za+4AZpfdl3KRdh8a6v8HS4Bcc3NIK66EcTVN6VW2l1I7+FMc5ys0/yyVMp1dI8yOlxsrQ18H93Ov5abU3st194C4uIr7PX4pNb80mtSf02X3wDpF1/hSK1yEIDNBDzRfz7GZgLmHZToD7nlQZCv7oyf5Y/RAsBGIpEFe0A+M9fd48ARiBaRG2brRwfcd4Dj7azVVPT8SN+apt+l18TXwNeyo8vIylopPXOf8MyZ7pqFp9FfEBw5ysT3UigBYAikbSY0fOgJ8jyjB5q82akQGnLxFi1cUhg0oe/rSxN70KOOYbXSe+d3QMaiHZDxBtZ8P4RsTjtas2tu8UNqy1InY9+COlPfhUZ39wK8Z0RoOB58/pYgTJiSaAOOG1/+BWQ8OQZk2yy7+HQ7qPvsXIp2UAQlJdezlByX5w0a445PlYIAIh71A3ThuL5UC6DyfpXYCeiKLlZ5Qym+x+YH2EL9BKl3IPoY4h2DEpU9mkctyO3/Ram9GFlNWdmxSGYWCkQyM92cypikmY659vfo2JuHx4vDQvnDa/0ZhjbvwHwvPbIM0kM6is7DsrnnxRFAg4cH0cguCqlNeDs1Qot1GTTvdK1dYHh+vr+fXdyv74J0jNOnSt76JIkAbqX3T9m1UNKRTdBp1K13IgGgwuLYsBRdC5JA+oqvIGPw2EQCGD2PIgSU95CS61lO0YvznhxbqQggaQLw1ba3vzlESTt5HUFOWQuRV3ccsRrwiH6AV3eCwIQg0wGv35Yak8JSvwBKFY5kZsZQ6P7odpDR4VJodnkXaHrdHdDkxvuh8S3o/H2EHpt0uReaXtsVml96LWS0uwitFjxixSJt28Zkdg5QM1Mik7xDjgxs5IHu+RTp2QEmVlft9ZejBYAEsDalI7tsbHwpNHdz7okA+lJIjXa6lCXp7IT0N/cVsADcIk9tgs4aaNQtyQJYsBXSl+xJ3fUssglHGYOTLIDnkABWpm4EGZL9lHfgvEGViwAoF18F/QCaBo5kNM8xZDdyDkQW7A0sgVIRwKQ1gKQSTJXGycx41MAj18VXk2LXf2QEnDtwIpw9ahHU+esKqDNmNdQetwZqj18HtSesh9oT19vH8Wuh9tg1UOflVXDWC8ug7oi5cF6fF6Hh3X2h2ZU3UYNSZyWQQ9daFjjSnohAePoXocxg4Znfl82NLSkBpCKdNYEArk0igM/jBJCKFF20JooggIAEUpFy7KfoFkoAb+xJzfWQBbAD0lfsL2gBPBe3AFKVclwZCSArKyu+Vj3zb64jsERTGh2BPZ4+6oKgAk5ARwDjV9NOHcGMQGWg2VU3Q4MHh0LdYa9AnZdWkWLXmvwh1J74vlVwVPyx70KdMe/4sjok9mf4/44gak36AGpN2kA/O/uZBVD/kaeIDPCIQGQQP3oEFoHwzKfCM7dVUwLoxwTABFDSngAn+M9nBI5AjNlffwfF8J0j8JhSgjEdeP4ekKMX0Cj5Rnf2gbrDZ5Pi1pq8AWpPWOcr+mra0eu8HFfwoxL8u5dXW1IYv9a+9tg1cM7gaXSEoKOGf/ywPgP9M/o8pNJLU35TmQCYAKoKAaR77fAcbJt0eKZbwlAQ7PU/bmXCUJCjMv3do58NeO6Ly2inxt0+UNrQjp4gSAolkZA1UIAQ8OcT10Otie/DOYOnQ0b+Bc4HgV2KXHVi82pIAG2ZAJgASgzhJyEJpc8TSuNnijcG7f0cxfHdMaCk3YHC0mLuNmgw7UOoRef2gmb8USl8CQkhkJdW0rHi3CcmB0ly8XRkM7VMbigTABNAVSEA4eXZ9ly5Ubt2lVlmU5TzDqFHXVx+Q2I48AgEEP4dUv5526HJ9I+gtjPtxybt1qlS/CQScO9BzsKXVqKjESMEtlOxJQFMzGtaJjeVCYAJoKoQAELoaHg60C1Bc1AM1WVlx8SwaQmVgUWRQAHln7sNms/aREpZ21d291hmErYsXl5FjsGG3fpR7gCFC+OzCv4ablCaUjABMAFUJQJoEekQng9wCpZDu8pSTMQRV98So0SgcIFPISSQ3ERUzN4CZ6OXvsKU/wM494mJrgrRZuPaqUX/Jzx9Ol4vVhmm/IYyATABVCUCEBQJiIZHhPX1nYG/ksLg7jlgTNAhyIX3wiRQoIPwnK1w7sR1UKtClH81ORoxnyADOxPjmDNFu78bWnqHf52p3/3tCzMBMAFUHQIoxBn4v8LTB4JBoTnKtvie9J6NCIR8AsmP7nm9ye9DLTz3V4Tyj19LCULNL70Ok4ESTH+p9AK6xlxsMKLTImUxoajSEMByJgAmgBKuWeXKZV1qsLnX7993EOf8SbQCutxjC4SKUX50+jWcugFqoae/LJU+yeHnzH7MK0Dlb3ZFl1gEjy+2/uCgX2z0hVTmz/71nlhmTV+ZAJgAqhoBILAFV9AnMIpdeMw6W1lnSYCKzB4YRJN/kv0Agcd/xsaEHb/Mdv/kMKJ/5j/72cXQvNN1sUhWllN+7LuABUHoB2htr9OU7XxCJgAmgKpEAJJCgSqtTdsHyCQWnv6N/bk+S3j67y5sJhX5A0A8NpKafVJiUCjW32zmxwlKXybKX0DxbfYfZv6dO2gyZLS/xDf748pvpxLpy/377JKeyq6XIBMAE0BlJ4BWHTsGO6C0RUFUGdgkpBRS6UulZ76kicGuoQ2u5Vbng+g+AuT83YE/IP2VzXBWWXr8C0v9HbOasvzwecN7B1KWHzn87OelnH+/+xDNJEQnZ4us3LTm7a4t2x6MlYIAHmACYAIoZG3G50i47ronunN//Hd0B5zgg+a/3yadwmdkAWAxz2XXg3x+cVAnQOG+8e+lXvkLS/MNpfjieR+rB5t3uj5U8GMdfn6PTFT+K/Ca8Bpdr84yH03OBMAEUFkIwPbAc1l+rvuuKUTpzX8KZa6TyryDfQH8sz/W0x8mJ2B2LiYFgbirN8iZG0Eu2BuY/+dMWJuacF9xef1o6mMBEdYSjF9ri3xuuBvXIDYOoV2fPiuG+iiRSX8llW5L94A6BwcdkNPKHEwATAAVQQAy2j5N5qpgDdLQDRKD7bZPDrfCchBKZ2BtvFRmH/Xd09RjDxX/EA71pG7JbdrGxCVXx8SIGXT2l/O209APNP0p1p8c7juWar5w2a9TeCSDce/ZUt+J75N3v16fF6HptbeTuU+OPr+5iN9s1W/8oZcIZWr49xXbiyfoZQG4gQOpEldeGcmldssVRAD9mQAqPQFQ4c15/ho88ajWmL+bB7u67Z1PjS9J2ZU+KaOQ7rdS6d8Iz0SkMr2kMu85pfFN5kNUA+AUv23bmGh3YUxgh+CZH/npwPGqwHqT1icqf0IOvh+aC9fyv5wkflGQ/d01pOzUF2DSBr+2fw2cNfoNOO/xl6DxbY9CesdO2EjEhvdCjT6wss9P7/0BewDGN+K4lVPszi9zstNSiYg/5y2Sq38jPe0TgB3Y0fBBvyfgmDf9nnOpkGX0ekFPQFcO/NYn1EaLevmlRLaT4oiuDyb2BKTed6m6lqV2BNiUd6DR3T0TCeC1zdSViD5HKq5n4VabLDXo5aSegHMsoY1N0fVgj8NJq+C8J15OIAChzC8iaAseLZMjQMQO/WgslL4Zu+9KpXc4pUdTX/rVcZT2iy26cOITKf5FMfHgkyAnraEBITTtN9QYpH4o0ccRQFj5A8XG5h6o1BPf95t2+IKNP6i7z3tB1R4q+zlDZ0C9nqOh4V2PQ7Orb7UlvNTuC9uFYUovtRJDh6Rt7GFsqy/h6UlC6Tp4zc1tgZPf6QifV9CAkEhO3r8kWABt2kKD7sPgzHmbiATQEkiJzFhHr4fddAML4JEnIX3tPyD97f2QvvKr1MiKryD9nW9B3NmdwkFIAE2v62rfP1XXgjJtDdSa+zE0vK9fnAAuucpODVr1tf95DpRe3v4S0tf/CBkjpoBsm2kXkmkPZ7/0OtSa9QFZIam5nveg1uyP4NzhUwqzAM7BtdIs59KjXl8ZNCkHZxea3wlP/4/wdGOpjMG22NIzw6SnF+LEHzzLB913feeYr/SHSOnRe473GXfWS64B8dgzICe/Z+P9mPgTKgWm0t4pHxRQ/uD8Pm4NnPXCUmh21S3UkadJ53tsP7/bukOjO3pBozt7Q6M7ekKjrj1sf7/O3ag7UPpFV1KHaYo04C7v+vu5+n1f6fFogtfgpyoflp55RXqGpg3HJx0HE7NLduYXyrQRnlklPLPUl2UpEHyd5dIzP9obbtkVFabBo0Og4QMDoOGDA1MiDR58gl6P2mhjt1Vk8WtvhYz+z0NGn1GQ8fizKZJRkNFvNJWI0tCO3CikX3R5yq4jkAcGQINHBkOzq26014Le3XYXQkbvp+OfIxXS5xnIGPA8iNsesH378XuK5lE3YuzenLLvCK/n4SdpGlFiW3CNPfjWCM+8dZTraplUeqXw9Bqp9Gbpmc+FMt/bhJ082hVdz/yQwqN5jwk9+J5W6TNpCAs1ABW3PkQz/OSsj+2OT4q/pUBdv83yKyTRx3fW4e5er9fzEGnThu6pHb6SRUSO7cCs4HPq8EvmPCk6OvPwMxXS4Rfvl1N69FEIT+P1jhRKN4krvj3+4PMWUWp3XnImlUrf1qpdR4oZ4hu4IQSlFutQse2I3JCL7By6OWgNpFrCE3toQbdqBbJV69RLeGIPTiAqg2txCyi4HuwpjxNrUn49rUDicSY0GIQWZxlcDw0gdcNU/OEgzuN+LGsL/xbXrD/Tz30n9lxMPfXzDyUoPLbSxl5/6DXH2Q433U9jwOWEdyimj2f8yNyQqR9W/nnboRE29ShK+Z0FMH6tddJhMo49+sb8lt+H8PMkit/jXxXS4z+aT0QWdPP1zKfS0+Ol0p2kZ/4rvnnbPv/BmDNl0DIqufL7BPCob1Lg+C7ygBb8sIWLPPLvxCiN0j0ig2GYoizEHjWs4PugSWVSLPia+No0R66sr6edfQ96n/z4+6dK3Ovhe7n3QSmr64m/Tyz0eOiYRfsKjud32/DSKnqOssqOZ3lUeJxIhNeJQ1XuHwhY348tuuRru2y3HxoAssX270uq6Q8rf1Epvq6nH8bl6w6fE/T9d8qcSFqJRFbYlB+pzE9S6W3SM7Okpx8VSmcKZf4jSWf9waHx8erHPP9PKj0SP4Q/u4+Ga8bNlaIkEySetXFXYmGpIBGt25BDlkacodIhydBUqFtB3PkYiJ6jQDw1i5x5pNC4y9PZ3m/2OTt+vj8W5Q/H6tH8b3RXH+rx7yYtC6UPC0+/IZVZjMlFUukVQpmlUpklwtNzhNLjpDJPS2W6S6U7C6VzpTKno28jWU/RsYeefZom7Ec4MpROa5ldyhFfwtPT/EmtB/Esgg4J66zoVYz0hKb39APx8FAQDw/xH1lYykkeGQ7y0eEgUcGfGAdi+HSQz80Hgeb8jI+sAs/fAxEc8IlJO34VH53rk872kWKUv7Gv/EVm+QXOv/fgrOeX0kAPf9IyOR6xxdgx66UdF44hzRPtDu9n8uXaMGjKIJR+k5wL0bxDyF4Yczxz2iZqJpgQuvCl9qQP4MyJ70O9WVvoBmPvdBaWchVcd6jcKGjGo5KjwqOiY6IONeVAZd9cQOETuvvMLdjQI3nnP5Ly291/A9Tv/oxrvRULCMAz19pNNrH1VpOsKCU/4ThvP0335MCsx5/7Jr3I8Yd55pbhRF/hmQ/jyTptqXc5FRm8tLJg8oIrQnhpFdSftB5a+DcZQyUsLOUtVsF9JU9W9KRdvdjhHXNDyj9325GVv5DU3eaX3UBObqHsBGDhmb3Cs2d3GpSGNtAAACAASURBVNFNRUfWfKfiIzLlbSHS+XntSRdb6DKa2FssASizx/ZAw1h9G2hw3yCoNeUjO6igiJ7lGAfFZAi8WYXddBaW8pLiFLz4Dr6FK3+Rob4k5XcdeHCzPLf/OFsv4EchfKd6Xxebx6zEcsnDPxZIZb62MeB8zDiCBg8NozFF1GGkiMKFwgjgWOensbCUtxQkj60lV/7CQn/X3YEx/5Dzz/wglKmN+iUqQbOTYiGVn6wTzaMxxPUfHUkNBgILoBgCSL6ZLCyVXYqyHBoUluFXhPIHob+J6+GcITPsRN7E3f9lX7dORDPfee0rJaj7qZ+th5lL9Xo86xNA0X3N8EZhMUTyDWVhqYrKX6+Q3P4jN+ewBNDkxvsC558fx0cCSPd1q0AFYqWDVG5kUF4MhyLWe+w58moWSwBj3oHzmABYqrjyyzlbaR0fjfLHE3/W06DPUOLPQT+cPo/0ytMn0tm/Mu/+CGwYGOTrZ+VQNdKRCABvEtZCh29uRX/BLCxHo/zC9e5/uYTKnxT6wzB545sfiof+PEPef6l0tiMAfEyv7ARARRTOB1DCIwDeqLoT1pbKC8vCUh4SXpvO058xewvUHf9eyRx+he7+66DuiDmuGUdo99dLUKewJ4YdOFJJPf9hSKWP2gmINwvHHjEBsFRmKRDmm7ed5vUVGNk1pgStvBLO/u9Dk5seiJ/9PX3Y776rw4k/hTUlqXQQQRgwj8KA9R8afsQwoLt5yKThG83CUhlNfqf8TY+1dfeYxLP/OUNnJozbtmm/+o1g96duRVVA+RFS6b3hRKCG9z2RmAhUDAEgmybfcBaWSqX8foy/MY7pPlJ239gS7P4T1kHTG+4O4v7YNdjvO+Al7P6ebUZa6SE8/X5CKvBdfeI+gGJuEt5AnITikoEq+otnYSk2xl8K5a8dzvobOJEaeCTs/p55LV7AY8o2dz/VEJ55I14MlBVrfMvDZOa4poXF5QI0mrqBTCu2AFgqm7PvmMJ8Y5MlMQ0eiaDZFdipKcd27vEbm0hPtwh7/sts6k5ZQHh6MvUSj+YdRLOm6fV3UnljcNGFiCMATKBwN5qFpbIIefpf2UyRqkD5i1jLtUsgbvYe5sj4pj/t/v647QlB1h91La5Cyo+QygzBjiTYmgjbUDW/rLO/868plh3xxuBQhIpmfhaWsKBF2mzWpoRRXaWSMX69/wvLsDW3Hb8VdDbWPwml66IeYVty0qdj7cxTURCeHYVMDUFyVSyj/cVQ54VlUHvMu1AbEx6KEbw56bM20XgkMXszC0sFCpYDb6FjabA+j7B+a5dAsCy+1oT10PDuvn63Hxq8+as/hOOJsOOvSsT9kyGUvgSbENo2w9GY0O3hjF5j4bT+06BGvylFyFRfpsDpw+fCGc8sgDNGzmdhqRjx19/pT86E0/qG1+iUUshUejxtwHQ4s8eL2KPRJf04r/8nrkEnNvFonde2chf9FAXh6QwagOg6+CoDte8fAaf2nQo1ek+A0/pMLFp6T4Aag2ZAzadfg5pPvcrCUv6Ca2/4XKjRfwqtx2LX61FKjd4T4NR+U6HR5TdDxHf84fw93/NPU3exkw/pUVVUfoTwzB+EZ77D1srUgzzHi9W9ox+c2n8G1OgzAWo8PqlIoZs0YBqc/vRrLCzlJ0+9ah9HzoeaQ2dDjb6ToQauxWLW6lFLnwlwav/pcPZdAyGSFPYTSr+FumNHk2HBTzQtKysrrUpCRKlm2c8FyDvUIisrVq/z/XDqgBnEgMXdWCKAvpOg5oh59IU4Vq7wBcJSrcStqZpJz2sMmhnfrf31eFqplH6i/Xt87DsZTu85BtLbXeyP5QpGmh0WSjdH3XHDOI5qEEdlhPT0JOsIzDsYyc6FxpffSDeAlP8IzIo3veaQ2QlfFAtLKiS8oSQ8HzEPagyYCqf1jq9NRwKlUf4ageDuPw0aXHunNf3xzO87/oRnHX/Y6svqThVXfoTwzMPhSEB6+4uhZu/xARsWawXgl/DE9IQviYmAJdXKH/zcN/nDCl9q5X88vPtb0/+sbk+GTf9DZCErszXimX8NjzSvsOGbqYTAoYq+D8A5Ams9+Aw5QI5IAHQMmFwoU7OwpGzXJ5N/RgGTPyVn/z7Jpv/LkN4+ZPq7fH9P0+hr6Yf9qqzjLxnSM3+Snv67VEgCeTE0e865rVfcD3CEG1jgGMAEwJIq5R/pvPwpNvmLMf0bXtW1gOkvPT0KdQX7+LdUUTL9mzcnV0D1gFB6BdUEqLxD2Bik4dW3w6n9ppXYD1BjoI0G8DGAJVW7Pv178KwCCp8y5X88tPtjyK//DKh7R1+I5GCL77y46e+Z7SLX/DvpiWdN/5RO56lI4LwxfBTKDPL9AL9aP8AlULP3uJL5Afz/Q6YOvsRKsLBYqrijb+C0Qkz+FCl+8rm/31Q485HRIHT7mPSi8eOwPRpnhWP+1Ub5EcL3Zgql86gvAIY5sE+gF43VwYQg3wo4UngFzbOag2Zak80/BrAVwHJMu/6QV8rG0VfUuf9x/NlEaHrR1TG3+4e8/gPDGyWm+7bMsZN8qgWcN1Mqc4pQ5ivLeHmHseqpXpcHrB8AE4KK+AIS2JmdgSyl3vWnJ+z6ZaX8ief+6dDgum4QybaVfi7bT3hmldMTV+VX5WP+ybDti7QlAc9MC8KBOR40u/DKBKYsUU7Ak7PiVkA1yA0o7PNX9Ws6bnf90DoOzv0Dwud+m+hDm6Bn/iE841f6uYSfamT6hyGCs425we9tfoiaHXg6VvuBp4NwYJHHgCNYATWfqpqLFR/PHGnF/Ryfn8FEcIzKn0QEI8tx1/fN/MRz/zQKd9vGnsG5/zA5wz19BemEp08mHfF0WqdOndKqHTJUNJhfJpT5s/T034JwYFZ2rP4N95GJFBwDSnAUqPlkyBdQBRUFPy8qOcp/D50Lvx88B/48fB78aZh9/j/D5jIJpMTDX067fmHn/r5TKN7fvP2lfo1/+NxvnnJOv4xcnRbBRh/VJeafjIjKs7PIVdDQIH4MyFWx5h0uLWFWYJIVEKoPqEqK4pT/tBGvwv8Omwdm0jJ4/O2P4K8f7oQXNuyAXm9/BLkTlhIx1PB/t6pcW6VQfBfXx1Tectn1C1F++tlkaHLp9bFwvN9W+enlTjeEZ4/G1db0d/jPW58OZzdd3MKmPR6y1YG5MayIOloroCqmBzvlP3XEPKj77AIYtW4L7PnpR/j0p+9h84H9JDv/9g1s+vZbePKdTVBrpCUKJoFClL8oIhg0s4Cyl6niJyk/Cpr+Da5JyPN38f4vpKdPDZ/7q2STj6OF9OgYQM+FMr8TyuyyTULyDlNx0GVd4LRwWnAJvjA6CgydE3zx4cfKKO6z4a5ea+R8mLJpN+z/9Z8w4fUlcN29D0DupZdDh+u7wOsbP4bN330H+/7xf/CX97cRAVSF66t4J99s22Cjd+KuX6Ncld8m+5x30yOuvh/I6WeHeuLj+aQPLjTumbSmWRekVXsIPAbY2mbnDBzgjgG286mOhWsDissJSLAC+k0poByVWUnQwfeHIXPg4Tffh/0Hf4ahEyZB49aZ0LRtNtSLnA939OwDW//+d3j/yy/h/a8OwN7vv4PbFqylvwk7Co83KVbxydxPTOgpl13fKb97H+fxv/3xcJFPjJx+NNjDb/DhO/2wvfdxsfuHEYQDla4rPfPPYGx4dk6s4TV3lOgYkEACVCk4I2FhVObjAO7mdUfNh9X7v4E3PvoQ0BmakRMFbJqKRHBb98dg1z//Cbt++gk2fvstbP7ma5i/69Pj9ghQ7DkfvfuDZhRq7peqZv8olD85zRcr/DDBzW/tFcN4v7/R9cV1jxsgtvRu1rJj9T/3JwMvGI8BQW9zZSYHzkC8YdH8GKZKUs81YtaSmW9BoVBSVKCyKYzz+OuJS2Hvzz9D/7+8APVbtoaWdncgSc9R0GPEUzDlrbeg62O9YPqyZbDlH/+AyEtL4E/D5wWRgeNR8RP+jfn76N3vXQG7fqHKP53a3PnhPtr9A4+/0uPiVrA9BstoNfX4FwcX45R+NEAoLf2FH3NWQIPr7o5bAUc4vyUcBZLqBILHSkQCzvy/bOZK2PvPn+CBJ56EBi1bAzlEPU0EgI+N22RBs6xcOE+eD8+/Mgd2/PgjqAlvJYQGj0fFTzjnV4S5X5zyPzjS5vhTeW9CuG9RgYzY423nD4PGGpEvwIUE9SwaGhJYAXmxWg8/m+gLKCkJVHJ/gLMAzKSlsPcXtACeDywAVHxHAlgvgaSQkRuFGcvfJgugRTW3AI6o+EPnlH9Yr4TKX+uhZyDDdEhUflrTeq309O/8de+s3rTjGq67SSj1sYXrFuysgEZX3pJYJlySUuFCGohWRhJAH8B5zy6ANQe+hdc3bEDiI0VHhXfHANw5GrfOgo43dCEfwMLdn8GZfvTguFP8YXOKdvBVCuUfBRl5HROU38903SKU/mNCa6+qNtOvLEkgKTFojrMC6OyUq2J17hvuk8CEI1oBBUhgoJ8fUJHHAVetGHrujgF/HDIHei3bQFGAJ8eOh0atM0nh8fyfnu3RsQCdgjNWroIvf/kJbl/4XrWLAgTKXqTizy00fbdCdn1//eE6TFD+B0cW2Pn9jr57pNI1Eyv8TJrIPY5N/zAiruop7gtItAJycmNNL7k2hq2TAqYvYVQgeO4iA0kkUKbWQJhk3POn5sHpI3zx/w+tgLNHzYdXtu2FL375CcYuWgxX3XUPZF10KXidroDbHusFC97/AL46+E94acP2ArtkdVB8V8pdpOIH32k5xvOPoPz0/u7M/8BTIEzimd/P7/9MeKY2rWvP2HCf3ewqVukqG2jIofbi2YGefs4fhfQr3lA8Cpwbahl2NFZAnASsJXB6WZEA7WBO0UNCyj4Paj49H2o8uxhqPPs6Sc2RC4JMQMz7rz96ESn4Jz//BPt++Ads3P8FbPpqP3z+80+w64fvYcSazXDWqAVwajXIBHSFOglKn2zqY3OOx/0dvyLP+UdI8qlzzxCKWBVQfmU+E8qcTetZhZXfVLS6VT64jicuLwDPS0LpL1zDEJkbJfPqjO4vxMOCx0ICA0tJAlhdFv79ZGV3O7wzZ59ZCDWeWwI1Ry2CM4bNhrN7PAsNb3kYGtz6CJw5eHoCCWA6MBLBhdPeprTfiZv2wPiPd0P/FR9B3uRlVCdQpdOAj3C+Dzrwhs/4lUjxC6T3YpLPnf3tdKvcaKLZ75l9QumzEqv7cKAH7/xFIoiJxluGXecXSxxyDsHGl98YK5AiXBJxiwgThQZMhZojkn0Bhezchcq8kBk/19/Z8WgxH2o+swBqjFoMNZ57gxQff6d2//Fw7n1PQqMb7gZseSZzFY57hhatW0GTa7oSATjFcB79Pw6dQ2f800agws+DU4bMoWhBVa0GTE7IKpDAg//G2nxswllZzvjFKD8+otl/7i09AKv6/CSfsMNvu1D6DH8t+zs/RbrSGMWguefZ9GCbHOQahrzi+gbao0AudQ/+84CZgRMmOB8mdV0h6Z0k+LNe4+mLPX3o7LiJjsocPpuHz6W4iHEk1Mj5UGPUIqvkaMaPfhNqjlpMC/mM4XOg9sBJULf7M1Dvzj7Q+Lo7If2Cy8E/vpDSoxVDc95Ne1w4OPqZ3tc5BovrB+D+XZWUv7DdPuF8P2IelXEXFscnxa9IpS9U+fHoOZks0AbX30NrMZTe6+L8G4Rn/kRrV1nlj3jRtIxoXkWrV9WAOx+55CCpdA3p6W+DowA2UdDtqGkIfiFYNoyOIfvF+NJvKjE0mminDpgZl4Ez4c8ks4hATh04C04bMZ927Bqj37CPeDZ/ZpHd0Z+ebxfriLlwxtBZcOaQmXBWn7+SGX/u/YOh/u09oVGXe6HpFTfS7k5jnHGHz8wihY/gc2UAd4WIdQjhognI4Nx7n6D3SnAWVvGOQMUq/cjQ+f6J6cHuXul2/JDyByTkD+2s2WscTrGyJb1x5af0Xqn0UqH0fyQ38+Sd/5hJIIiXXo5OFXsUsM1D8TEj7wJo3vEyaHrJtdCkU2eqIGx82Y3Q6KqugBmE2FikfpcHoF6XB6HejQ/58nBIHrL/d1sPUuYGXXvQ+bzx9XdDkytvJiHlvvBy9D+AMB1sbD43Srt6i7ZtraKjUuPPMGlH50MLXAxRTNzR0Cwzh8J4jdpkgTTtocllXaDeXX2gdv9xdEwIPOCVQHlTbuKHujLRbj84ZOYnV+i53bailb4Qk985+8585DlodsHlQT2/3ZD0IT+9d7rwoi6XJWjmWe36+ZVbRCCq02RuXjw06Jnn/WEJv/rnLXK80I6b42F/tbigyZ2dbc/aWVmJkpn0SM8zIdI2EyL46HZvVOps//XwPXD3Vpqy8kjJTXuI+IqOnyc9NwpNM3OgUau2UL9FK2ia5VECT4fON8PdA5+EUbPmwMwPNkKjF16HP41CK2NhwdyAahC+K3y3nxF04Sl0d68sil+I8uPnpYm9dw+iMB9V9fn1/LgZ+HH+YW7thixXVv7SwN28+Dy0vN/i+cp3ClKCkD89NZbhacjwqIoQsLkiic4ns5sETXBU2ELF/b/9Xfw7atAYzaPXxF0clbt5jiIFx7z8hq3aQr1IK9rZMUcff79Nhwvhwhtvgdt69oF+z78ILy1YBEs2b4UPvjoA2374AXb89BN88uP3cM/r6+GUJ1+BWk8nRRKqiNIXpvAFlH44nu1nFb/bV0ZJ2vXxrI+CVqLM9cKe/oM0tstaAXe4NRsUtdmmt6Va/4xQVCA0R+Bcocz3pODKEANj74BW+R0govNs5lyOgmbZHjTNzIXGbbKppBZ35YbntyFp0BKldfBv/D8U/L0mbbOhaVYuNM+2r4PpuK3adYTW7S+AnIs7waW33AbX3nM/1ej3HDkKhowdB2MWLoK5762F1Xv3wYavvoItf/877P75Z9j54w+w5bvv4ONvvoEPDxyAD/Z/BVu+/Qbe3PsZnPPsAgrnVRmlL8LMT1B6Z+IPmEbKVNRuXymJoFCTfzqc0eNFaNLphuTzvt/Gy/xNeFo7xXc9LmnnZ4dfapCejUeAgARsLFWZi9EEx4YhMpp3uHlWLnS8vnPs5YUL4K/zX4NnZs6EEdOnw+BJk2Dgy2Og3wsvwOOjR0OvUaOg5zPPwGMjR0KPp56m571GPQt9nnsOHv/LX6D/Cy/CoHHjYeiUqTBy5kwYPXs2TF66FN7cvAXe3fcJrPvsc9hw4ADV5G/1lRxlx48/wLZ//AM2/e1vpOwfHThARIDy4YGv4aOvrWz85hvYcOBr2P33/4NuaAX4qbyVzblXnMIHfoqR8xOVfmCi0heu+JV71w97+a3J/wRk5F/gK39w3rfOPs+8L5Wp4zz98TWq05p36JCi1c9Ic+ZURpAfELRNotHiUhk0xWJomt/40MOx5bt3wOpP98GKPTth1Sd7YPUne+nfKO98hvJJkuyDd/z/X/3pXvqbVft2w8q9u2HF3l2Ar/f27p2w5rNP4cOvD8DH334LH3/zLSn0hv37rZCiHwgUPazw4cePvv4GPvz6a9j87bfw9qdfQIPRiypFRl+xCh/+XLjTY+be8Lm29j5pp6/0Z/sS7frTKKpEAzswvh/P7DvozvtSmbFC6d/QOvTDfP6arDglOX4qBnXcJ+CZF3wS+BVJAM35K26/M7Zw44ewdMc2WPzxR7Bk8yZ4ffPHRyVLtmwqIK9v+Rje2LoZVu7eBes+/5wU2pLBNyEFTyKAIsjAWQF93v6o3K2AIyl7osK7Xf5Vm52HjTX7Ty3BTl+Jlb4IxXe7fp37h2NUiVrTJ5j8tjITSaCrW5NBDz+/kI1RxnAM6yalIqSn57gkIfySGrXOjF1y862xV99fTzs3KvSb27aQ8qLg86OR8N/gcyQDfFy2Yxus3rcX1n/5hSWDb74lQthYDCEkWwdIBG3HvRk09UglCZRE0Qu8n1N4/L9hc6wTD3d5573H+ouqqvTF7vrTaSBt/RvuxfCu7ddvnXuHsHefv742CaWb+WvuxNBoO1b+8oTrnBI0D8lRJ2NPdX+gIpFA49aZsfyrr4vNWL0KVu7bTSTwxtaCCn0sJFAYGaC1sWrvHnjv88/oOGAJ4ZsEQkgmBVT+nd/9DSZ+vIty/wMlLDSWXnS4raRSgCTCyo7n+KGzbUZegsIXY9pXJaUvatfvO4VM/rPuGQLNO3YqsOu7JixCmdHCM/9q15852Tn4UPkzrA+QUV7IMCZkCQTx1n+TyqwOkwB683Mu6RQbu+R1WPXJXlhCJLC5VNZAcQThyAD/vXzndiKENZ9+ShaC8w8gCdCxwfcjfPj1N7Dr7/8HdyxcS5N/sN9/SpQ7rOS+omOdA/0+nt+H+Mo+cDql4DplDu/w1ULpi1J8zOMfMIM8/A2v7goRDO8l7vqU2COV+UIoc5Fbe64+JZKluItPRSISSq0Mmiso/R9S6XdDJBDD6ECLvPaxEdOmEwk4RU0FCRT1t+51ne8An7+1bSss27kdVu7ZBe/s20sOxXVffA7rv/wSNn59ANbt3w/nj3mDKv3OxHqDZAVOlmRzP2zq424+bK7d0Qe/YgdioKLj2b3v5KNS9iqp8MUoPlXvUW/JiVTEg117ksN7tOvbYp7JQun/cVl9wRg7dEhziK/i4RcLpYVzriPWEljqSAAdgxmYE5DlxbqPHAXLd+8icx2tgVRbAkcihDAphK2FJVu3wDu7d8CL735gS2AHToeamDWHgu2tB820Shx6pP9DQcVGk33AVLuT+woeKHkhin4kha6yCl+Y4vtDOd1AztP6TYGzug2CZhdcQYpPhVkq2PVjfpbpp1KZYBonKn88F0WntcxpX2FrnlEICbjogLMEMnKjJ0tl5vkkgCFCmsCCfoEbHu4em7/xI1ixZ5fvFyibI0FJfQ3ufRdv2QSrd22Dh+Ytg1O6j4OauHBRcY8kSYpdUiWvNspe7I7vFB+LwqZRt54ml3W2oT1/KKeL61NozyaWPSc8c0pyYg95+dnkr5yglMv4cYB8AvRc2RChnTBkDmGWYKNWmbG8a66PjXnjjZQfCUpMDNsKcyiiJbAZVu7aBldPXAy/7zEOTkdHXIqUo1opehGKn1wGbhXfNuhsdNVtVDeSXLqL5j72nZRKr5HKtAmtqZNcj36yNFn5q85xQPitlv3n3Slj0LL7QXQONsvMiUmdH+v9lxdg2a6dsHzX9jK3BkpiKVhfgf1Z9C/ziATO6FvNlTcVih8y8+0ATl/xH34WGl59Oyl7/Jyfh4+U0OPX7e8XXjyuT+a+H2L2800qZkEzjh621VLA2idEcp35Zi6SyvxoWzRZv4DIjWLH3dhV3e6LTX9nNWULhq2B8iaCuD9gMyzbvgUWbPoYWo+cDaf0GM8kUIjiJ5v5VK1HZ/yp1JUXPfuue5Tt1GMVX8TP+T9LZYYJlfffbv2gH6mln8KLcf1IHjv6qhxaYIgwTgLhtmL1pKc3+EcCLCA6jOYf+gXadLwo1v+ll2Hpzu3w9p6dZRouPJIvgEhgy2ZYvmMrzPloI8gRs+APjzEJFGXmu7ZcmMVX596h0PiKm31TP1HxycFHpj4WjplJ0tPnhRXfJfLgY8bxOJ6rusGRwB86dw63Yf6N9PQL1JnHxnt/jeh8ihI0bpMVu/yOu2LjfN8ARgrK+1gQfo/Xt2yGt5EEPtwILZ56BU4JjgPHExEU7tQLm/k1e42Furf3haYXX0NzI8jU99vIO8UPvm9Pz5FKR0Jr5CSXUSqi8dwSRjVBOEXTjR+3z/VlwtNfh6yBQ7hAmrTJwsrC2D0Dn4C569YSEby1fWu5EkFhJDBv40ZoO2qO7xi0ylGtSaBQpY/n6qOZf+bDz0K9zg9QCzZUemzYgmf9hDM+7fjo+9GvSaXbxtcFpvHGncV41m/VsWP5L1BG2SPckUV4+gQ3i00ofZpQZmaCNYC+AU9jX4BY9sWXxvo8NxqwqCiZCMqaDJJJAI8DGCZs/9fX4L8oRDiJpPqQQGE7fcjE7zctvtvf2Z/avQXn+1zlzPzDic49fVgqPUMo0yq+FsyJ0jMnhprM8Eiu4wER21IsLfDs+i2aEVKZK6TSn/lpny5SEMNRXBgyNFddExvw17/Cwo0fBUcD9BG4RJ6wlKVPYOn2LSRdpi6BPz42Hk7tM5GsgSpLAuE27QV2eqf0dvhLnfuGUW/H9HYXYWs2VPxgWpQ/Nu4QRnr8Gv1/CE8/LzzdxH3HaOZb5XehYmw1F62QtcioQNiwTryQKGjdpPTvsZ+b8MwhmkVIu4c5iP4BbPWFjkIkgj6jR8O899dRv4Dlu3faqEEZWgUJJOA/YrJQr4UryB/w3z3HV6EjQdG7vP05mvd2pyelv38E1O98PzV7tWf7bL8un8z8YLdHC87vx7dTKNNTKEN9+O13TLs9mvuheD4X7hzXEDo/qCGgLEI/SkD/9kxTLC2ORLHZJ4UM0TeAQkSAZcY5F3eK3ffEIJi8bCks37UDVu3bA2+hVRBK700lGSS/HhLB6t3bYcy76yHy1Cw6EtSolEeC4hTe7vJUiTdgBpzWbxqZ91iRV//6e6zSe1GqzLMmflzp0dTH78cvz8Xu0K8LZa4Qyo7b9r/Xk5DgIy4ahOHhKCs+IwQ6/8XrCE5wXYYQwjNRocwy2/WXur9gyJC6DqVnqxj6CNA6uKbbvTBs0iR49YP1VHKMgr4CIoOQZVBaQsAswfBroF9g5c5tsGjzJrh+8mL4314T4H96TahYa6BQZS9E4XFOg1+Mc+Yjo+Gcrn0oSy89/0K70ycqfWDiYyIXKj1+J8Kj3X6QUKZx+DslxVfmBJmr3PeYJtnUZxSFxtFogklozcV4FqFUpoP09NuuOsz5CCI6/zCGmrAzcJO22TEsOb6jdx94dtZMWPDhBmojhv4CrP4jR14hPoNjIYRk5+Bb/pHgqWVroNmwGRQlQOUvUyIoUtFDyu5MegzV4VAWX+HP6P48dzsaUAAACBpJREFUnH3nANrlm114JQ1QwdRcOtNTp92Enf4QevDxSOZbY99IpScIz3QUufHdHidHYYQnqTCs3NcSo7pECqi1kz4pEprZLj3jSaXnSWU7w1AraBs6pONBeg5ZBdgaPKY6XRG77bGeMHTCBJj17mp4c/tWyjJcuW9PQAjUXqwIR6JtWlI0MSQTCBLBql3bYP6mj+GW6W+Q8p/y2PggUnDURBAuJCpyxqIbr+YaafrK3h8nMM2gf+PknFoPPgPndO0NDa69K67wOZ7d5XO8kCMvD015nPNAyVl4j32l/5tUepbwzHXCs2W5Dr7SY7FOWobKT5NelKftMkoHrPEO1RNYkzJU9y2UbiSVfloqvd85n0KRA8wniDXP9ogMmrbNxjblsU63doUHBw+Bp6dPh1fWvEtKv2LvbmpEipYCkgIeG1wasu1J6EqGk8mhcCFrYDuWFFvfQP4Lr9KR4I8940RQcGZiMcodKHiikpMJ74fkcMSaG856es8xgCPa6t7+OE1hwulMaNJj7j3F6BMU3mDTjdAub6jjjiNW4ZnPpWcmSs9cIzz95/D3gyE8PKqRM9fP1sPvq0GnoHKXwSg9aIijyguFDU1QIIKQSv9Beqaz9MybbhgkjSwLkQH1IciNxpAIGp7fJtY8y6O5BR1vuBG69uoDvUePhmdnz4aZ774Diz7eSJbCin17qEsxOhapG/GuHdR3EAnCFQmR0qPlQATxsQ1J+o1MF23aCMu3bYZl2zbD0DdXQ6unZ8Ep3cfCH3uMiyuzk2Cg6uRE5fbDbzg7kZJusL9An4m0o+NI9jr3DiNFxyEZja68FZpddBWNS8NrxxBdi6wsSsqhvnpuh48GOzwpvHPi+X31fxGeWSeVGSqVNtLT/y/8XWAIj5pxUA5HKIzHZj6jrBGuAff7DtAOlPA7nq4nPfOo9PQa4RnqFx+qLUeT9ldnHSAhYCVio/Pb4lShGE4aOj+vPajLr4Yr7uoGXR/vB48+PRIGTZwEz82ZA+OXvw2vrF8PCz76EBZv2QxLtm2liMOy3Tth+d49sGLfXlj56T5YRfIJrP7sE/o3yvr9n9HPh678ALJeWAin9Z/mT7ixCk8mfu/x5H3HHRwdcqjcZ3V7khxz5934EE2+bXz5jTRzMSP/Ajv0FEej5eTiKDWbiEM7u1N2t7vn4e6OgmXY5LhrmdfBddk5KJTeJj09RnrmJumZc5qYdsn3HUO0gdJnqHZk4jvrjMEoV2AHmMSW5DZqkFwqKj3TQHr6QeHp16WnvwsWvm0nHSYEtBIOO1LAY0OTNtnQ6Pw2sQYt28SaZObSGDIcU3Z+u46QdcllkNf5Frjotjvhqru6wfWP9ICb+vSH2/oPgrsGDYFuTw6F+4YMgweGDqPHewcPhbsHDYG7nhgC9w8eQr8runSDhpfdRENJ0URHpW7eoRPt3hmY++ArN05d9hUcZyNS/TwpudvRPZOs6LSz05xGHIHum/OUlGNn5/0gPb1Wenq0UOZG4ZmGQpt/Sb7HVH+v0NKKt9dGDz7OhWQwKg2QCFr4Q0rwOe5S4TqD4Pc8/WfhmU5CmRFCmbXCMz9aB5fdCX1HIgrukgedpYDEEInaWYciN0oEkZ7txZpn5uBxApq0yY7h+LLGrdogYUBDHG/mC446o3FnST/D35Vu0Clm0qGJ7g+8sLt3knJjWi0qOJnugZJTDJ4+czAYtR2cn2+vh6rslP5eKLPBP8M/LD2TJz1TQ2ZHTyh4H+k8fzIercINN1D507nLLqMqINSFyBfySp+UfD5Nz2+PZ9ma0tMXSqX7CU/Pk57ZLTz9i/N6B8QQb17iyIGyEmU0D2sVUDAM6QQJ44iCvyuiqMiB/BpSaty9Dztz3Z7R4wqOnw2VPB79oOk430llNgpPvyI8PUQqfbPwTKZE0guFUQuJ0ZMvJbF5C5r27L1nVBsysAuaLANF59gC1gFCKPNbqXRdqXR7ocw9wtPPSU/Pl8psFsp8J5T5JTg/G6uEThFdbJxEo+QXIv7/+4J/40zzlqHXCkjH7uCo3D8JZb6SSm+UnlkilBkvPTNIeuZO4RkksCZSmVPcRJzCr02fKDyNuzvu8ieEW7aJXO6yw6jmEF67eM2BDSeGvdnBEMnCQEMmPfN7ocx5Qplsqczl0jO3C0/3EsoMk8q8KD0zVSgzVyqzWCq9XCq9Unj6HUGOSHp8Ryq9QirzllTmdemZV4UyM4Rnxgul/yI8PUx65nHp6fukp28Snr5UKpMtlGkqla4hlf53qaJBwVTRn5WKbNDiwc+Mjjt/dzdpEe3O8azsjOMcnTp1SssIstSs+esXppCVIJXBLsYnueGnR4s2F9dLa5blnSCy1QnNsnJPyMjKTcnnbhK1xxokJfyM6OuwtfSo+HYuQ1BXQe3YbAoug8EoAZp7Oi1Hu7x1349gsxJxJ0VBZcNzM44+Q6EiF6GiZFZn5BzZWYa/42c3otJSPbzbtf3XpWMKpkDb97OhNxI/3h73yus0kZVf5veFwWD4SFdW4ZqqdtS2ynU5cp5zp6xuN3Zif574+7hLU+QiV6e19MNrraI85ILBYDAYDAaDwWAwGAwGg8FgMBgMBoPBYDAYDAaDwWAwGAwGg8FgMBgMBoPBYDAYDAaDwWAwGAwGg8FgMBgMBoPBYDAYDAaDwWAwGAwGg8FgMBgMBoPBYDAYDAaDwWAwGAwGg8FgMBgMBoPBYDAYDAaDwWAwGAwGg8FgMBgMBoPBYDAYDAaDwWAwGAwGg8FgMBgMBiMt5fj/ji5Y1sGPFtwAAAAASUVORK5CYII=;" parent="u8F_S0l8aTNUOHP5Od4l-11" vertex="1">
          <mxGeometry x="80" y="-20" width="60" height="60" as="geometry" />
        </mxCell>
        <mxCell id="u8F_S0l8aTNUOHP5Od4l-12" value="" style="group" parent="1" vertex="1" connectable="0">
          <mxGeometry x="260" y="410" width="180" height="96" as="geometry" />
        </mxCell>
        <mxCell id="u8F_S0l8aTNUOHP5Od4l-5" value="/mnt/archive/" style="rounded=1;whiteSpace=wrap;html=1;fillColor=#f8cecc;strokeColor=#b85450;strokeWidth=3;fontFamily=Courier New;fontStyle=1" parent="u8F_S0l8aTNUOHP5Od4l-12" vertex="1">
          <mxGeometry x="60" y="30" width="120" height="60" as="geometry" />
        </mxCell>
        <mxCell id="u8F_S0l8aTNUOHP5Od4l-6" value="volume" style="rounded=0;whiteSpace=wrap;html=1;strokeColor=#d79b00;strokeWidth=2;align=center;verticalAlign=middle;fontFamily=Courier New;fontSize=12;fontStyle=1;fillColor=#ffe6cc;" parent="u8F_S0l8aTNUOHP5Od4l-12" vertex="1">
          <mxGeometry width="80" height="40" as="geometry" />
        </mxCell>
        <mxCell id="u8F_S0l8aTNUOHP5Od4l-35" value="" style="html=1;shadow=0;dashed=0;align=center;verticalAlign=middle;shape=mxgraph.arrows2.bendArrow;dy=5;dx=24.5;notch=0;arrowHead=30;rounded=1;flipH=1;direction=west;fillColor=#f8cecc;strokeColor=#b85450;strokeWidth=2;" parent="u8F_S0l8aTNUOHP5Od4l-12" vertex="1">
          <mxGeometry x="-90" y="-186" width="140" height="286" as="geometry" />
        </mxCell>
        <mxCell id="u8F_S0l8aTNUOHP5Od4l-53" value="" style="shape=image;verticalLabelPosition=bottom;labelBackgroundColor=default;verticalAlign=top;aspect=fixed;imageAspect=0;image=data:image/png,iVBORw0KGgoAAAANSUhEUgAAAQAAAAEACAYAAABccqhmAAAACXBIWXMAAAsSAAALEgHS3X78AAAgAElEQVR4nO19B5hURbb/GN7u2xf+b9197+0qqICiksNMVYOESbe6aoZgxJzAiAlzAAmSRKIiyqqr5AwSlCQqIEERUBTJ2Yio+9w1rAr0+X/n1K3bt3sCA9MTOb/vO183w0x339t1fnXqxLQ0BoPBYDAYDAaDwWAwGAwGg8FgMBgMBoPBYDAYDAaDwWAwGAwGg8FgMBgMBoPBYDAYDAaDwWAwGAwGg8FgMBgMBoPBYDAYDAaDwWAwGAwGg8FgMBgMBoPBYDAYDAaDwWAwGAwGg8FgMBgMBoPBYDAYDAaDwWAwGAwGg8FgMBgMBoPBYDAYDAaDwWAwGAwGg8FgMBiMcoFQJnhEkZ62j+Ugwr0XPnqaPgc+ZzAYFUACFQ2ZWzk+B4Nx3ECovOBRKHOi9PSJ9FgOIjx81CdKz5wgs/PpczAJMBjlCKHMSf7jlUKZrdLT7wpl1sryEE+/J5X5QHp6sfCi/4qfg48ADEY5Qnr6ZP/xgVbtL4BINA8iOh9alIPg+7TMaw9C6e+Eiv47fg6hmAAYjHKDUIYIQChzdwvTDoQyv0hPHxLKHBI6v2wkmnfIf4+DUhmQnv5CeNF/w8/BFgCDUY6QPgFIZbrhbiw9fVAoE5O5UZCtW4NslUKh12sFMjMbiQbf6zBaHFLp/UJZAmALgMGoQAKgXTk3GhPtLgTRfQiIniNAPDY8NdJjGIg+z4C4+V6Q2R6+FxMAg1HpCCDbi4lLroL0pZ9C+soDkL5if2pk+ReQvu57yBgxGWSbTBDRPCYABqPSEUCOFxMXXwkZ8zdDxuu7IGPRDshYnAJZuA3Sl38OGU++DLItEwCDUbkJYMFWSH9jjyWBVMjiHWQJZAweywTAYFQpAliyu/TCBMBgVC4wATAYxzGYABiM4xhMAAzGcQwmAAbjOAYTAINxHIMJgME4jsEEwGAcx2ACYDCOYzABMBjHMZgAGIzjGEwADMZxDCYABuM4BhMAg3EcgwmAwSghpGfSRDs3wcafcOMeq6i4pqBSmXuYABiMYiCiOk2ebwdXSGVOoIEWqmqLUPo3dG2eLpwAlqSwIciiHZD+9peQMXgME0ARkP714yOOS0v37MAU4fHAlEoDmVX9FqlU5vYCBIAtvNgCKDcILxqf1OTpE/BReuZEfGydlVNpRrgdt0AWllG7QIVnHpLKzJKemSCVmVSFZbJU+mWpzDpURuzUm0wA6a/vgvQlu0stTABFww5JDQa1kvI7SE+f5JQf5yY0jkYr5kMe73CTbO1zvbx1+wsBh2ngzlnVBaf0SKVj/qAOEKY9iBtuB9H5DhA3pEpuB9HlLhCdrgGcO8BtwS3cRGZ67o9qk8qkC2U+EJ5pjf+2cxQtMeDRAP03jHKGdfgFTsBXUWmEMj/7wzQOimhe2Qia5fgeZfo++Yd95UcSiAkkgezc1EtWDogcBfheggeDpIWvWSjtz2nUfxZK72mZ3wGEZ34Vnulif5N8A3QksA7o4+9eVfwRIHDSmAW4+/sjrkDmKIhkZkEkM9t/TIXY15K5yk7SQclVZD6nXNq0BZlDwzpQMckKiGTnQCQr9eLehycDpQU7vzP7M6J5vxHKrLFj2vTP+J3Tc08Pj/+NJQqyHKJsCVQoAeAMPVT+9IuugCa33A9NbroHmtx0b4rkHmhy832Q0fFSazKjdLwUxJ2PgrgjlfIIiLsfA3HZdaSc7gjQpMvd9jPcmCrpRveo+eXXO1I7rglAKJMW8XAsu06TXp4175We5o9o+5WsJGUOC08fop8pPV8qY4eoeoG1wCPVK5QAonmHIm0zofHtj0Lt6eugzqSVUGfSKqgzuZSCrzFpFdSeuoYUB3djMp9v7GYn9rz1Serkjb2QvvobyOgxDGTrNkQA6RdeBmeNXw51Jr8TfJZSy8QVUHvm+1C/59Nk3RzvTkAR7P5Omc0DCfMZrSAJxJAQKErj6Q3S06fh70tlJztHojZkyKgwAsiCxl0fJmU5a9xSUpzUyDKoM3ElNO18F0Tc+bnLXTakRrH1nSmKz2+n+Lx4dEicAC64DM4a8ybUmfA2fY6UXM/YpURoDXqMOO4JIMM33YV/phdKNxLKBLs+WWGejokcjwa1CpWH//7Vtzr3CmXq2r9ziVx4HLAhREZFWABIAFOQAFKkLL6gRdG0S0ECwNBcSif2FEkAK1J3PeOWQu1p70H9x5gAIphVSkcAG+8Xyiz0lfugxHBsZmZMPP48iMGT0Gkakyh4r5AEMGLjmf1SmXphSyAcTWCU+xEACeDdOAHgzlkaCQhgFTTtcncSAWBs3rcCSpucU1ICKO31oIxbxgSQhtdos/ukZ0N+Qpl8CsOiQzmaF5OZWTFx470x+dpuiCz6BMTIOSDyOsRkdm5MRvOtJUARKP2lUOZs+1q+Y5D8CdX/HlZCAniECYAJoEQQaK4n7v5vBru/F0UHbEyOXQGR13aBnPWxJYEXl4Bof3EiCdi/2S2U/hO+joz7Eir6EqsnmACYAFIFET/7t6TwLjr6ovkx0bZtTDzwBMiFn0Bk9maQc7eBfGUzRBbuA/nyMhAdLimEBPQ6qaK/xdeTyk8hZhIobx+ATwDOYcYEwARQCM6PYr4/JfG43frZoAbDi8Zo9x+/yu7+c7ZAZM7WBBIQLy0F0e6iGKZrk6/ARQeUnk6vl6vDiUUVfLXVDGwBMAGkdA15+j+k0p9QDQZmYrbNjInbu4NcsBcis7eAROWfs7UgCTy/GIRuF5O5KiZUHoYID/ok0INe1yUKKZ0WyeXIQMrABMAEkApI3/knPWOCAixMv87OiYmnZkFkwT6QIQIoQALoExgxEyhEiOFCmycQo9fydI59bd/CYIdg6sAEwARQWkgbqnOpvINb5nVABf6VKjAvvBzkjA8hMm97oPSRudtIwiSAvgEigd7PgWibaY8CyhyytSl6t1T6/+HrC98fkFHN72m5gQmACaC0kCHnnFRmFYXzovmHZNu2IO7oAXL+HojMCZn/PgEEJBAmg/l7QHR9BGs5Aqegny34vP/6JzbP1GmRan5Pyw1MAEwApUG6Urjr+40+9P9Kz/ydknuieTHcyUX/lyCy6FOQvvc/rPwFSWALRObtADl9A4iLr6LIgO8PoHsqPJ3tvw8fBVIFJgAmgNIAC3+ksh1+pDLZoTz/GFVhvrgEIq/tDrz/kSORwGzfKYiJQhgatK93yK9SXRM+dkQ4LFh6MAEwAZQW0qXtKt21pXEt2FRMdLgk4fwvj0QA7nfQWkAS6PY4SMwhwFwCTx/0SeAG+15+xiGXDpcOTABMAKWBLfs1LkQ35Hxs+BHN+1VmZYO4tmviGb8I5S/0KPDqTpCT19pMQVtmbR2Cntkkc22xEGUeZlffe1suYAJgAigNbKdf42fq6SnksIvmH6T4PzoAMfffdwAeiQAcCVBosEBUID8mlLUChDLX0Pt5+qT0/Ly05p5X0beh+hJAbSYAJoBiEL42ofRbdv3kH5KtW8fEw0NALvrUmvRHQQDBUQCPDjM+AnHRlZgliOXD1heg9Nv0fjl27brGo4xjABMAE0AqQoBSmZOkMhuoAjCaf0i0bg3ysZEQWfyZjQCUkAAKOATRCug5yuUGoGPRNXltQe/r2fqDaocW7drRY+OOHdPOb9curXV+florfEyxuGk6CCaA1BKA9AkACTbV31uwHvLz09rm5tL310apcl+noRz93wqld0aiSAB5h0VmFtgQ4CdWkY+CAEicFYC+gInvgsi/AJuIIAFQirD09BC6t54+qVpaAK7+uUUOtUY6SXj65DKUf2maqfB9FhbrA+CGICVuCCI8vV940f/KyM0/Ae9vmX5/8Sac5b5OQ+/9O6HMZ5b88g7T9/rkBFvxd5QWQOALoIjAFpAL9gDVE2BiUTT/sG33bjaHm4bI6hgNiOSWr+kolZnjE8DBOAG4lmDLUiPjsCXYCmoJJsMEQEq7M3WCLcGWfwHi0cEhAugEZ738hm0JRqSWAhn7VlEtwb4oz++uourlXTKO8PS/CU9/kUAAgycFBHBUu39AAqG8gKFTca3EJCYGuVJjZdLj2YHxAqEMbT9Tk6vyaDIRzb+Mz40Mjr1ovUT833XDcSoNnFkTyaWz1T1SmSekMn2lMv3KSB6XyuywVVx5h5EAGt3ZHWrPWO83BF1tm2mWSvA1VtOOmdAU9KZukL78c0hf9hmkL/3MPpZWsDHou3+DjMeGJzQFReWvPfVd+1mmvFN6mbQKas3aAPV7jaR259T9hhao/l4qM8i/r2XxfeFa6C+V6SOV/m9aMxXga3CWqvT076SnPyUCwCMAhgEHjYfIwk+OyQJIOAZgduCUdSDaXYidl+PHAKW7+dd9MtUjUE2CPgHnDKBPAq0jesR/exotsRPwUaroCTSUxLO/gw1McVwZRjNsYxOf1HLyqDlphcDd2Eiu/q309Net2l8AWGSBcdayEsve5rCbCZB+8ZXUF7DJLQ9A41tTKLc9SLtx0Bb8wstA3NvHyj29489LI/g69/cDcUVnkNl+W/C8DvZabnsIGt/6YEqkCV7P7Y9Asyu7BLMOnKOqLL8rknYdbX99ZeoXNn6rfNapG+9lfis93EB8HwCOSev7QpAGHJl79ASQUDU4bweIzncD5RdE8/xSYTPOf2+cO5AyZyCSAY6Yx/uJ14e9DsPXWt4WwG8kJj9Yswcn9vyKlVZC5ZWBmGCSDpFALg4GyYZIVurFH6Nlp+mg4uCCSbW0ycTyUvse/niwsrgWvEehwSBB2+sy+o5+9fvr/yI9c0gq84NU+lxaM36lXHnCOZBbaFKa9XQ+134UoPtTIBd/dlRhwEIjAvj3GA14CI9zrTEzkJKCpGfWhj+LyDEnCqX/VyrdWnrmGqH0I8LTw6RnXhbKTJPKzBbKzBGemSmVHieUHimV7imUvlF6Jkd4pqZQUUpqcmh8TRvfB2fJgN4HSaGsj1xJBLDNb7Bod2ecpJOdWzZia7F9xYySApWJeNEExaRrKgsJXw8+L4tryfaIxNx70PUg8ZTF95NENEQEyvgEUBEWgE7LiLqGoHpxkAfQpk1iG7BjJYBwOPCJ8SAyszEc6PwsB4QyGVKZLtLTLwnPfOAfvQArElv6lhLNijTtyVqiuZfB7Ev7/za3gNbiT0LpjVLpsVKZ24Rn76sDHSWUOTESTDs2aZGyalteGAHQDp0bpak6za+4AZpfdl3KRdh8a6v8HS4Bcc3NIK66EcTVN6VW2l1I7+FMc5ys0/yyVMp1dI8yOlxsrQ18H93Ov5abU3st194C4uIr7PX4pNb80mtSf02X3wDpF1/hSK1yEIDNBDzRfz7GZgLmHZToD7nlQZCv7oyf5Y/RAsBGIpEFe0A+M9fd48ARiBaRG2brRwfcd4Dj7azVVPT8SN+apt+l18TXwNeyo8vIylopPXOf8MyZ7pqFp9FfEBw5ysT3UigBYAikbSY0fOgJ8jyjB5q82akQGnLxFi1cUhg0oe/rSxN70KOOYbXSe+d3QMaiHZDxBtZ8P4RsTjtas2tu8UNqy1InY9+COlPfhUZ39wK8Z0RoOB58/pYgTJiSaAOOG1/+BWQ8OQZk2yy7+HQ7qPvsXIp2UAQlJdezlByX5w0a445PlYIAIh71A3ThuL5UC6DyfpXYCeiKLlZ5Qym+x+YH2EL9BKl3IPoY4h2DEpU9mkctyO3/Ram9GFlNWdmxSGYWCkQyM92cypikmY659vfo2JuHx4vDQvnDa/0ZhjbvwHwvPbIM0kM6is7DsrnnxRFAg4cH0cguCqlNeDs1Qot1GTTvdK1dYHh+vr+fXdyv74J0jNOnSt76JIkAbqX3T9m1UNKRTdBp1K13IgGgwuLYsBRdC5JA+oqvIGPw2EQCGD2PIgSU95CS61lO0YvznhxbqQggaQLw1ba3vzlESTt5HUFOWQuRV3ccsRrwiH6AV3eCwIQg0wGv35Yak8JSvwBKFY5kZsZQ6P7odpDR4VJodnkXaHrdHdDkxvuh8S3o/H2EHpt0uReaXtsVml96LWS0uwitFjxixSJt28Zkdg5QM1Mik7xDjgxs5IHu+RTp2QEmVlft9ZejBYAEsDalI7tsbHwpNHdz7okA+lJIjXa6lCXp7IT0N/cVsADcIk9tgs4aaNQtyQJYsBXSl+xJ3fUssglHGYOTLIDnkABWpm4EGZL9lHfgvEGViwAoF18F/QCaBo5kNM8xZDdyDkQW7A0sgVIRwKQ1gKQSTJXGycx41MAj18VXk2LXf2QEnDtwIpw9ahHU+esKqDNmNdQetwZqj18HtSesh9oT19vH8Wuh9tg1UOflVXDWC8ug7oi5cF6fF6Hh3X2h2ZU3UYNSZyWQQ9daFjjSnohAePoXocxg4Znfl82NLSkBpCKdNYEArk0igM/jBJCKFF20JooggIAEUpFy7KfoFkoAb+xJzfWQBbAD0lfsL2gBPBe3AFKVclwZCSArKyu+Vj3zb64jsERTGh2BPZ4+6oKgAk5ARwDjV9NOHcGMQGWg2VU3Q4MHh0LdYa9AnZdWkWLXmvwh1J74vlVwVPyx70KdMe/4sjok9mf4/44gak36AGpN2kA/O/uZBVD/kaeIDPCIQGQQP3oEFoHwzKfCM7dVUwLoxwTABFDSngAn+M9nBI5AjNlffwfF8J0j8JhSgjEdeP4ekKMX0Cj5Rnf2gbrDZ5Pi1pq8AWpPWOcr+mra0eu8HFfwoxL8u5dXW1IYv9a+9tg1cM7gaXSEoKOGf/ywPgP9M/o8pNJLU35TmQCYAKoKAaR77fAcbJt0eKZbwlAQ7PU/bmXCUJCjMv3do58NeO6Ly2inxt0+UNrQjp4gSAolkZA1UIAQ8OcT10Otie/DOYOnQ0b+Bc4HgV2KXHVi82pIAG2ZAJgASgzhJyEJpc8TSuNnijcG7f0cxfHdMaCk3YHC0mLuNmgw7UOoRef2gmb8USl8CQkhkJdW0rHi3CcmB0ly8XRkM7VMbigTABNAVSEA4eXZ9ly5Ubt2lVlmU5TzDqFHXVx+Q2I48AgEEP4dUv5526HJ9I+gtjPtxybt1qlS/CQScO9BzsKXVqKjESMEtlOxJQFMzGtaJjeVCYAJoKoQAELoaHg60C1Bc1AM1WVlx8SwaQmVgUWRQAHln7sNms/aREpZ21d291hmErYsXl5FjsGG3fpR7gCFC+OzCv4ablCaUjABMAFUJQJoEekQng9wCpZDu8pSTMQRV98So0SgcIFPISSQ3ERUzN4CZ6OXvsKU/wM494mJrgrRZuPaqUX/Jzx9Ol4vVhmm/IYyATABVCUCEBQJiIZHhPX1nYG/ksLg7jlgTNAhyIX3wiRQoIPwnK1w7sR1UKtClH81ORoxnyADOxPjmDNFu78bWnqHf52p3/3tCzMBMAFUHQIoxBn4v8LTB4JBoTnKtvie9J6NCIR8AsmP7nm9ye9DLTz3V4Tyj19LCULNL70Ok4ESTH+p9AK6xlxsMKLTImUxoajSEMByJgAmgBKuWeXKZV1qsLnX7993EOf8SbQCutxjC4SKUX50+jWcugFqoae/LJU+yeHnzH7MK0Dlb3ZFl1gEjy+2/uCgX2z0hVTmz/71nlhmTV+ZAJgAqhoBILAFV9AnMIpdeMw6W1lnSYCKzB4YRJN/kv0Agcd/xsaEHb/Mdv/kMKJ/5j/72cXQvNN1sUhWllN+7LuABUHoB2htr9OU7XxCJgAmgKpEAJJCgSqtTdsHyCQWnv6N/bk+S3j67y5sJhX5A0A8NpKafVJiUCjW32zmxwlKXybKX0DxbfYfZv6dO2gyZLS/xDf748pvpxLpy/377JKeyq6XIBMAE0BlJ4BWHTsGO6C0RUFUGdgkpBRS6UulZ76kicGuoQ2u5Vbng+g+AuT83YE/IP2VzXBWWXr8C0v9HbOasvzwecN7B1KWHzn87OelnH+/+xDNJEQnZ4us3LTm7a4t2x6MlYIAHmACYAIoZG3G50i47ronunN//Hd0B5zgg+a/3yadwmdkAWAxz2XXg3x+cVAnQOG+8e+lXvkLS/MNpfjieR+rB5t3uj5U8GMdfn6PTFT+K/Ca8Bpdr84yH03OBMAEUFkIwPbAc1l+rvuuKUTpzX8KZa6TyryDfQH8sz/W0x8mJ2B2LiYFgbirN8iZG0Eu2BuY/+dMWJuacF9xef1o6mMBEdYSjF9ri3xuuBvXIDYOoV2fPiuG+iiRSX8llW5L94A6BwcdkNPKHEwATAAVQQAy2j5N5qpgDdLQDRKD7bZPDrfCchBKZ2BtvFRmH/Xd09RjDxX/EA71pG7JbdrGxCVXx8SIGXT2l/O209APNP0p1p8c7juWar5w2a9TeCSDce/ZUt+J75N3v16fF6HptbeTuU+OPr+5iN9s1W/8oZcIZWr49xXbiyfoZQG4gQOpEldeGcmldssVRAD9mQAqPQFQ4c15/ho88ajWmL+bB7u67Z1PjS9J2ZU+KaOQ7rdS6d8Iz0SkMr2kMu85pfFN5kNUA+AUv23bmGh3YUxgh+CZH/npwPGqwHqT1icqf0IOvh+aC9fyv5wkflGQ/d01pOzUF2DSBr+2fw2cNfoNOO/xl6DxbY9CesdO2EjEhvdCjT6wss9P7/0BewDGN+K4lVPszi9zstNSiYg/5y2Sq38jPe0TgB3Y0fBBvyfgmDf9nnOpkGX0ekFPQFcO/NYn1EaLevmlRLaT4oiuDyb2BKTed6m6lqV2BNiUd6DR3T0TCeC1zdSViD5HKq5n4VabLDXo5aSegHMsoY1N0fVgj8NJq+C8J15OIAChzC8iaAseLZMjQMQO/WgslL4Zu+9KpXc4pUdTX/rVcZT2iy26cOITKf5FMfHgkyAnraEBITTtN9QYpH4o0ccRQFj5A8XG5h6o1BPf95t2+IKNP6i7z3tB1R4q+zlDZ0C9nqOh4V2PQ7Orb7UlvNTuC9uFYUovtRJDh6Rt7GFsqy/h6UlC6Tp4zc1tgZPf6QifV9CAkEhO3r8kWABt2kKD7sPgzHmbiATQEkiJzFhHr4fddAML4JEnIX3tPyD97f2QvvKr1MiKryD9nW9B3NmdwkFIAE2v62rfP1XXgjJtDdSa+zE0vK9fnAAuucpODVr1tf95DpRe3v4S0tf/CBkjpoBsm2kXkmkPZ7/0OtSa9QFZIam5nveg1uyP4NzhUwqzAM7BtdIs59KjXl8ZNCkHZxea3wlP/4/wdGOpjMG22NIzw6SnF+LEHzzLB913feeYr/SHSOnRe473GXfWS64B8dgzICe/Z+P9mPgTKgWm0t4pHxRQ/uD8Pm4NnPXCUmh21S3UkadJ53tsP7/bukOjO3pBozt7Q6M7ekKjrj1sf7/O3ag7UPpFV1KHaYo04C7v+vu5+n1f6fFogtfgpyoflp55RXqGpg3HJx0HE7NLduYXyrQRnlklPLPUl2UpEHyd5dIzP9obbtkVFabBo0Og4QMDoOGDA1MiDR58gl6P2mhjt1Vk8WtvhYz+z0NGn1GQ8fizKZJRkNFvNJWI0tCO3CikX3R5yq4jkAcGQINHBkOzq26014Le3XYXQkbvp+OfIxXS5xnIGPA8iNsesH378XuK5lE3YuzenLLvCK/n4SdpGlFiW3CNPfjWCM+8dZTraplUeqXw9Bqp9Gbpmc+FMt/bhJ082hVdz/yQwqN5jwk9+J5W6TNpCAs1ABW3PkQz/OSsj+2OT4q/pUBdv83yKyTRx3fW4e5er9fzEGnThu6pHb6SRUSO7cCs4HPq8EvmPCk6OvPwMxXS4Rfvl1N69FEIT+P1jhRKN4krvj3+4PMWUWp3XnImlUrf1qpdR4oZ4hu4IQSlFutQse2I3JCL7By6OWgNpFrCE3toQbdqBbJV69RLeGIPTiAqg2txCyi4HuwpjxNrUn49rUDicSY0GIQWZxlcDw0gdcNU/OEgzuN+LGsL/xbXrD/Tz30n9lxMPfXzDyUoPLbSxl5/6DXH2Q433U9jwOWEdyimj2f8yNyQqR9W/nnboRE29ShK+Z0FMH6tddJhMo49+sb8lt+H8PMkit/jXxXS4z+aT0QWdPP1zKfS0+Ol0p2kZ/4rvnnbPv/BmDNl0DIqufL7BPCob1Lg+C7ygBb8sIWLPPLvxCiN0j0ig2GYoizEHjWs4PugSWVSLPia+No0R66sr6edfQ96n/z4+6dK3Ovhe7n3QSmr64m/Tyz0eOiYRfsKjud32/DSKnqOssqOZ3lUeJxIhNeJQ1XuHwhY348tuuRru2y3HxoAssX270uq6Q8rf1Epvq6nH8bl6w6fE/T9d8qcSFqJRFbYlB+pzE9S6W3SM7Okpx8VSmcKZf4jSWf9waHx8erHPP9PKj0SP4Q/u4+Ga8bNlaIkEySetXFXYmGpIBGt25BDlkacodIhydBUqFtB3PkYiJ6jQDw1i5x5pNC4y9PZ3m/2OTt+vj8W5Q/H6tH8b3RXH+rx7yYtC6UPC0+/IZVZjMlFUukVQpmlUpklwtNzhNLjpDJPS2W6S6U7C6VzpTKno28jWU/RsYeefZom7Ec4MpROa5ldyhFfwtPT/EmtB/Esgg4J66zoVYz0hKb39APx8FAQDw/xH1lYykkeGQ7y0eEgUcGfGAdi+HSQz80Hgeb8jI+sAs/fAxEc8IlJO34VH53rk872kWKUv7Gv/EVm+QXOv/fgrOeX0kAPf9IyOR6xxdgx66UdF44hzRPtDu9n8uXaMGjKIJR+k5wL0bxDyF4Yczxz2iZqJpgQuvCl9qQP4MyJ70O9WVvoBmPvdBaWchVcd6jcKGjGo5KjwqOiY6IONeVAZd9cQOETuvvMLdjQI3nnP5Ly291/A9Tv/oxrvRULCMAz19pNNrH1VpOsKCU/4ThvP0335MCsx5/7Jr3I8Yd55pbhRF/hmQ/jyTptqXc5FRm8tLJg8oIrQnhpFdSftB5a+DcZQyUsLOUtVsF9JU9W9KRdvdjhHXNDyj9325GVv5DU3eaX3UBObqHsBGDhmb3Cs2d3GpSGNtAAACAASURBVNFNRUfWfKfiIzLlbSHS+XntSRdb6DKa2FssASizx/ZAw1h9G2hw3yCoNeUjO6igiJ7lGAfFZAi8WYXddBaW8pLiFLz4Dr6FK3+Rob4k5XcdeHCzPLf/OFsv4EchfKd6Xxebx6zEcsnDPxZIZb62MeB8zDiCBg8NozFF1GGkiMKFwgjgWOensbCUtxQkj60lV/7CQn/X3YEx/5Dzz/wglKmN+iUqQbOTYiGVn6wTzaMxxPUfHUkNBgILoBgCSL6ZLCyVXYqyHBoUluFXhPIHob+J6+GcITPsRN7E3f9lX7dORDPfee0rJaj7qZ+th5lL9Xo86xNA0X3N8EZhMUTyDWVhqYrKX6+Q3P4jN+ewBNDkxvsC558fx0cCSPd1q0AFYqWDVG5kUF4MhyLWe+w58moWSwBj3oHzmABYqrjyyzlbaR0fjfLHE3/W06DPUOLPQT+cPo/0ytMn0tm/Mu/+CGwYGOTrZ+VQNdKRCABvEtZCh29uRX/BLCxHo/zC9e5/uYTKnxT6wzB545sfiof+PEPef6l0tiMAfEyv7ARARRTOB1DCIwDeqLoT1pbKC8vCUh4SXpvO058xewvUHf9eyRx+he7+66DuiDmuGUdo99dLUKewJ4YdOFJJPf9hSKWP2gmINwvHHjEBsFRmKRDmm7ed5vUVGNk1pgStvBLO/u9Dk5seiJ/9PX3Y776rw4k/hTUlqXQQQRgwj8KA9R8afsQwoLt5yKThG83CUhlNfqf8TY+1dfeYxLP/OUNnJozbtmm/+o1g96duRVVA+RFS6b3hRKCG9z2RmAhUDAEgmybfcBaWSqX8foy/MY7pPlJ239gS7P4T1kHTG+4O4v7YNdjvO+Al7P6ebUZa6SE8/X5CKvBdfeI+gGJuEt5AnITikoEq+otnYSk2xl8K5a8dzvobOJEaeCTs/p55LV7AY8o2dz/VEJ55I14MlBVrfMvDZOa4poXF5QI0mrqBTCu2AFgqm7PvmMJ8Y5MlMQ0eiaDZFdipKcd27vEbm0hPtwh7/sts6k5ZQHh6MvUSj+YdRLOm6fV3UnljcNGFiCMATKBwN5qFpbIIefpf2UyRqkD5i1jLtUsgbvYe5sj4pj/t/v647QlB1h91La5Cyo+QygzBjiTYmgjbUDW/rLO/868plh3xxuBQhIpmfhaWsKBF2mzWpoRRXaWSMX69/wvLsDW3Hb8VdDbWPwml66IeYVty0qdj7cxTURCeHYVMDUFyVSyj/cVQ54VlUHvMu1AbEx6KEbw56bM20XgkMXszC0sFCpYDb6FjabA+j7B+a5dAsCy+1oT10PDuvn63Hxq8+as/hOOJsOOvSsT9kyGUvgSbENo2w9GY0O3hjF5j4bT+06BGvylFyFRfpsDpw+fCGc8sgDNGzmdhqRjx19/pT86E0/qG1+iUUshUejxtwHQ4s8eL2KPRJf04r/8nrkEnNvFonde2chf9FAXh6QwagOg6+CoDte8fAaf2nQo1ek+A0/pMLFp6T4Aag2ZAzadfg5pPvcrCUv6Ca2/4XKjRfwqtx2LX61FKjd4T4NR+U6HR5TdDxHf84fw93/NPU3exkw/pUVVUfoTwzB+EZ77D1srUgzzHi9W9ox+c2n8G1OgzAWo8PqlIoZs0YBqc/vRrLCzlJ0+9ah9HzoeaQ2dDjb6ToQauxWLW6lFLnwlwav/pcPZdAyGSFPYTSr+FumNHk2HBTzQtKysrrUpCRKlm2c8FyDvUIisrVq/z/XDqgBnEgMXdWCKAvpOg5oh59IU4Vq7wBcJSrcStqZpJz2sMmhnfrf31eFqplH6i/Xt87DsZTu85BtLbXeyP5QpGmh0WSjdH3XHDOI5qEEdlhPT0JOsIzDsYyc6FxpffSDeAlP8IzIo3veaQ2QlfFAtLKiS8oSQ8HzEPagyYCqf1jq9NRwKlUf4ageDuPw0aXHunNf3xzO87/oRnHX/Y6svqThVXfoTwzMPhSEB6+4uhZu/xARsWawXgl/DE9IQviYmAJdXKH/zcN/nDCl9q5X88vPtb0/+sbk+GTf9DZCErszXimX8NjzSvsOGbqYTAoYq+D8A5Ams9+Aw5QI5IAHQMmFwoU7OwpGzXJ5N/RgGTPyVn/z7Jpv/LkN4+ZPq7fH9P0+hr6Yf9qqzjLxnSM3+Snv67VEgCeTE0e865rVfcD3CEG1jgGMAEwJIq5R/pvPwpNvmLMf0bXtW1gOkvPT0KdQX7+LdUUTL9mzcnV0D1gFB6BdUEqLxD2Bik4dW3w6n9ppXYD1BjoI0G8DGAJVW7Pv178KwCCp8y5X88tPtjyK//DKh7R1+I5GCL77y46e+Z7SLX/DvpiWdN/5RO56lI4LwxfBTKDPL9AL9aP8AlULP3uJL5Afz/Q6YOvsRKsLBYqrijb+C0Qkz+FCl+8rm/31Q485HRIHT7mPSi8eOwPRpnhWP+1Ub5EcL3Zgql86gvAIY5sE+gF43VwYQg3wo4UngFzbOag2Zak80/BrAVwHJMu/6QV8rG0VfUuf9x/NlEaHrR1TG3+4e8/gPDGyWm+7bMsZN8qgWcN1Mqc4pQ5ivLeHmHseqpXpcHrB8AE4KK+AIS2JmdgSyl3vWnJ+z6ZaX8ief+6dDgum4QybaVfi7bT3hmldMTV+VX5WP+ybDti7QlAc9MC8KBOR40u/DKBKYsUU7Ak7PiVkA1yA0o7PNX9Ws6bnf90DoOzv0Dwud+m+hDm6Bn/iE841f6uYSfamT6hyGCs425we9tfoiaHXg6VvuBp4NwYJHHgCNYATWfqpqLFR/PHGnF/Ryfn8FEcIzKn0QEI8tx1/fN/MRz/zQKd9vGnsG5/zA5wz19BemEp08mHfF0WqdOndKqHTJUNJhfJpT5s/T034JwYFZ2rP4N95GJFBwDSnAUqPlkyBdQBRUFPy8qOcp/D50Lvx88B/48fB78aZh9/j/D5jIJpMTDX067fmHn/r5TKN7fvP2lfo1/+NxvnnJOv4xcnRbBRh/VJeafjIjKs7PIVdDQIH4MyFWx5h0uLWFWYJIVEKoPqEqK4pT/tBGvwv8Omwdm0jJ4/O2P4K8f7oQXNuyAXm9/BLkTlhIx1PB/t6pcW6VQfBfXx1Tectn1C1F++tlkaHLp9bFwvN9W+enlTjeEZ4/G1db0d/jPW58OZzdd3MKmPR6y1YG5MayIOloroCqmBzvlP3XEPKj77AIYtW4L7PnpR/j0p+9h84H9JDv/9g1s+vZbePKdTVBrpCUKJoFClL8oIhg0s4Cyl6niJyk/Cpr+Da5JyPN38f4vpKdPDZ/7q2STj6OF9OgYQM+FMr8TyuyyTULyDlNx0GVd4LRwWnAJvjA6CgydE3zx4cfKKO6z4a5ea+R8mLJpN+z/9Z8w4fUlcN29D0DupZdDh+u7wOsbP4bN330H+/7xf/CX97cRAVSF66t4J99s22Cjd+KuX6Ncld8m+5x30yOuvh/I6WeHeuLj+aQPLjTumbSmWRekVXsIPAbY2mbnDBzgjgG286mOhWsDissJSLAC+k0poByVWUnQwfeHIXPg4Tffh/0Hf4ahEyZB49aZ0LRtNtSLnA939OwDW//+d3j/yy/h/a8OwN7vv4PbFqylvwk7Co83KVbxydxPTOgpl13fKb97H+fxv/3xcJFPjJx+NNjDb/DhO/2wvfdxsfuHEYQDla4rPfPPYGx4dk6s4TV3lOgYkEACVCk4I2FhVObjAO7mdUfNh9X7v4E3PvoQ0BmakRMFbJqKRHBb98dg1z//Cbt++gk2fvstbP7ma5i/69Pj9ghQ7DkfvfuDZhRq7peqZv8olD85zRcr/DDBzW/tFcN4v7/R9cV1jxsgtvRu1rJj9T/3JwMvGI8BQW9zZSYHzkC8YdH8GKZKUs81YtaSmW9BoVBSVKCyKYzz+OuJS2Hvzz9D/7+8APVbtoaWdncgSc9R0GPEUzDlrbeg62O9YPqyZbDlH/+AyEtL4E/D5wWRgeNR8RP+jfn76N3vXQG7fqHKP53a3PnhPtr9A4+/0uPiVrA9BstoNfX4FwcX45R+NEAoLf2FH3NWQIPr7o5bAUc4vyUcBZLqBILHSkQCzvy/bOZK2PvPn+CBJ56EBi1bAzlEPU0EgI+N22RBs6xcOE+eD8+/Mgd2/PgjqAlvJYQGj0fFTzjnV4S5X5zyPzjS5vhTeW9CuG9RgYzY423nD4PGGpEvwIUE9SwaGhJYAXmxWg8/m+gLKCkJVHJ/gLMAzKSlsPcXtACeDywAVHxHAlgvgaSQkRuFGcvfJgugRTW3AI6o+EPnlH9Yr4TKX+uhZyDDdEhUflrTeq309O/8de+s3rTjGq67SSj1sYXrFuysgEZX3pJYJlySUuFCGohWRhJAH8B5zy6ANQe+hdc3bEDiI0VHhXfHANw5GrfOgo43dCEfwMLdn8GZfvTguFP8YXOKdvBVCuUfBRl5HROU38903SKU/mNCa6+qNtOvLEkgKTFojrMC6OyUq2J17hvuk8CEI1oBBUhgoJ8fUJHHAVetGHrujgF/HDIHei3bQFGAJ8eOh0atM0nh8fyfnu3RsQCdgjNWroIvf/kJbl/4XrWLAgTKXqTizy00fbdCdn1//eE6TFD+B0cW2Pn9jr57pNI1Eyv8TJrIPY5N/zAiruop7gtItAJycmNNL7k2hq2TAqYvYVQgeO4iA0kkUKbWQJhk3POn5sHpI3zx/w+tgLNHzYdXtu2FL375CcYuWgxX3XUPZF10KXidroDbHusFC97/AL46+E94acP2ArtkdVB8V8pdpOIH32k5xvOPoPz0/u7M/8BTIEzimd/P7/9MeKY2rWvP2HCf3ewqVukqG2jIofbi2YGefs4fhfQr3lA8Cpwbahl2NFZAnASsJXB6WZEA7WBO0UNCyj4Paj49H2o8uxhqPPs6Sc2RC4JMQMz7rz96ESn4Jz//BPt++Ads3P8FbPpqP3z+80+w64fvYcSazXDWqAVwajXIBHSFOglKn2zqY3OOx/0dvyLP+UdI8qlzzxCKWBVQfmU+E8qcTetZhZXfVLS6VT64jicuLwDPS0LpL1zDEJkbJfPqjO4vxMOCx0ICA0tJAlhdFv79ZGV3O7wzZ59ZCDWeWwI1Ry2CM4bNhrN7PAsNb3kYGtz6CJw5eHoCCWA6MBLBhdPeprTfiZv2wPiPd0P/FR9B3uRlVCdQpdOAj3C+Dzrwhs/4lUjxC6T3YpLPnf3tdKvcaKLZ75l9QumzEqv7cKAH7/xFIoiJxluGXecXSxxyDsHGl98YK5AiXBJxiwgThQZMhZojkn0Bhezchcq8kBk/19/Z8WgxH2o+swBqjFoMNZ57gxQff6d2//Fw7n1PQqMb7gZseSZzFY57hhatW0GTa7oSATjFcB79Pw6dQ2f800agws+DU4bMoWhBVa0GTE7IKpDAg//G2nxswllZzvjFKD8+otl/7i09AKv6/CSfsMNvu1D6DH8t+zs/RbrSGMWguefZ9GCbHOQahrzi+gbao0AudQ/+84CZgRMmOB8mdV0h6Z0k+LNe4+mLPX3o7LiJjsocPpuHz6W4iHEk1Mj5UGPUIqvkaMaPfhNqjlpMC/mM4XOg9sBJULf7M1Dvzj7Q+Lo7If2Cy8E/vpDSoxVDc95Ne1w4OPqZ3tc5BovrB+D+XZWUv7DdPuF8P2IelXEXFscnxa9IpS9U+fHoOZks0AbX30NrMZTe6+L8G4Rn/kRrV1nlj3jRtIxoXkWrV9WAOx+55CCpdA3p6W+DowA2UdDtqGkIfiFYNoyOIfvF+NJvKjE0mminDpgZl4Ez4c8ks4hATh04C04bMZ927Bqj37CPeDZ/ZpHd0Z+ebxfriLlwxtBZcOaQmXBWn7+SGX/u/YOh/u09oVGXe6HpFTfS7k5jnHGHz8wihY/gc2UAd4WIdQjhognI4Nx7n6D3SnAWVvGOQMUq/cjQ+f6J6cHuXul2/JDyByTkD+2s2WscTrGyJb1x5af0Xqn0UqH0fyQ38+Sd/5hJIIiXXo5OFXsUsM1D8TEj7wJo3vEyaHrJtdCkU2eqIGx82Y3Q6KqugBmE2FikfpcHoF6XB6HejQ/58nBIHrL/d1sPUuYGXXvQ+bzx9XdDkytvJiHlvvBy9D+AMB1sbD43Srt6i7ZtraKjUuPPMGlH50MLXAxRTNzR0Cwzh8J4jdpkgTTtocllXaDeXX2gdv9xdEwIPOCVQHlTbuKHujLRbj84ZOYnV+i53bailb4Qk985+8585DlodsHlQT2/3ZD0IT+9d7rwoi6XJWjmWe36+ZVbRCCq02RuXjw06Jnn/WEJv/rnLXK80I6b42F/tbigyZ2dbc/aWVmJkpn0SM8zIdI2EyL46HZvVOps//XwPXD3Vpqy8kjJTXuI+IqOnyc9NwpNM3OgUau2UL9FK2ia5VECT4fON8PdA5+EUbPmwMwPNkKjF16HP41CK2NhwdyAahC+K3y3nxF04Sl0d68sil+I8uPnpYm9dw+iMB9V9fn1/LgZ+HH+YW7thixXVv7SwN28+Dy0vN/i+cp3ClKCkD89NZbhacjwqIoQsLkiic4ns5sETXBU2ELF/b/9Xfw7atAYzaPXxF0clbt5jiIFx7z8hq3aQr1IK9rZMUcff79Nhwvhwhtvgdt69oF+z78ILy1YBEs2b4UPvjoA2374AXb89BN88uP3cM/r6+GUJ1+BWk8nRRKqiNIXpvAFlH44nu1nFb/bV0ZJ2vXxrI+CVqLM9cKe/oM0tstaAXe4NRsUtdmmt6Va/4xQVCA0R+Bcocz3pODKEANj74BW+R0govNs5lyOgmbZHjTNzIXGbbKppBZ35YbntyFp0BKldfBv/D8U/L0mbbOhaVYuNM+2r4PpuK3adYTW7S+AnIs7waW33AbX3nM/1ej3HDkKhowdB2MWLoK5762F1Xv3wYavvoItf/877P75Z9j54w+w5bvv4ONvvoEPDxyAD/Z/BVu+/Qbe3PsZnPPsAgrnVRmlL8LMT1B6Z+IPmEbKVNRuXymJoFCTfzqc0eNFaNLphuTzvt/Gy/xNeFo7xXc9LmnnZ4dfapCejUeAgARsLFWZi9EEx4YhMpp3uHlWLnS8vnPs5YUL4K/zX4NnZs6EEdOnw+BJk2Dgy2Og3wsvwOOjR0OvUaOg5zPPwGMjR0KPp56m571GPQt9nnsOHv/LX6D/Cy/CoHHjYeiUqTBy5kwYPXs2TF66FN7cvAXe3fcJrPvsc9hw4ADV5G/1lRxlx48/wLZ//AM2/e1vpOwfHThARIDy4YGv4aOvrWz85hvYcOBr2P33/4NuaAX4qbyVzblXnMIHfoqR8xOVfmCi0heu+JV71w97+a3J/wRk5F/gK39w3rfOPs+8L5Wp4zz98TWq05p36JCi1c9Ic+ZURpAfELRNotHiUhk0xWJomt/40MOx5bt3wOpP98GKPTth1Sd7YPUne+nfKO98hvJJkuyDd/z/X/3pXvqbVft2w8q9u2HF3l2Ar/f27p2w5rNP4cOvD8DH334LH3/zLSn0hv37rZCiHwgUPazw4cePvv4GPvz6a9j87bfw9qdfQIPRiypFRl+xCh/+XLjTY+be8Lm29j5pp6/0Z/sS7frTKKpEAzswvh/P7DvozvtSmbFC6d/QOvTDfP6arDglOX4qBnXcJ+CZF3wS+BVJAM35K26/M7Zw44ewdMc2WPzxR7Bk8yZ4ffPHRyVLtmwqIK9v+Rje2LoZVu7eBes+/5wU2pLBNyEFTyKAIsjAWQF93v6o3K2AIyl7osK7Xf5Vm52HjTX7Ty3BTl+Jlb4IxXe7fp37h2NUiVrTJ5j8tjITSaCrW5NBDz+/kI1RxnAM6yalIqSn57gkIfySGrXOjF1y862xV99fTzs3KvSb27aQ8qLg86OR8N/gcyQDfFy2Yxus3rcX1n/5hSWDb74lQthYDCEkWwdIBG3HvRk09UglCZRE0Qu8n1N4/L9hc6wTD3d5573H+ouqqvTF7vrTaSBt/RvuxfCu7ddvnXuHsHefv742CaWb+WvuxNBoO1b+8oTrnBI0D8lRJ2NPdX+gIpFA49aZsfyrr4vNWL0KVu7bTSTwxtaCCn0sJFAYGaC1sWrvHnjv88/oOGAJ4ZsEQkgmBVT+nd/9DSZ+vIty/wMlLDSWXnS4raRSgCTCyo7n+KGzbUZegsIXY9pXJaUvatfvO4VM/rPuGQLNO3YqsOu7JixCmdHCM/9q15852Tn4UPkzrA+QUV7IMCZkCQTx1n+TyqwOkwB683Mu6RQbu+R1WPXJXlhCJLC5VNZAcQThyAD/vXzndiKENZ9+ShaC8w8gCdCxwfcjfPj1N7Dr7/8HdyxcS5N/sN9/SpQ7rOS+omOdA/0+nt+H+Mo+cDql4DplDu/w1ULpi1J8zOMfMIM8/A2v7goRDO8l7vqU2COV+UIoc5Fbe64+JZKluItPRSISSq0Mmiso/R9S6XdDJBDD6ECLvPaxEdOmEwk4RU0FCRT1t+51ne8An7+1bSss27kdVu7ZBe/s20sOxXVffA7rv/wSNn59ANbt3w/nj3mDKv3OxHqDZAVOlmRzP2zq424+bK7d0Qe/YgdioKLj2b3v5KNS9iqp8MUoPlXvUW/JiVTEg117ksN7tOvbYp7JQun/cVl9wRg7dEhziK/i4RcLpYVzriPWEljqSAAdgxmYE5DlxbqPHAXLd+8icx2tgVRbAkcihDAphK2FJVu3wDu7d8CL735gS2AHToeamDWHgu2tB820Shx6pP9DQcVGk33AVLuT+woeKHkhin4kha6yCl+Y4vtDOd1AztP6TYGzug2CZhdcQYpPhVkq2PVjfpbpp1KZYBonKn88F0WntcxpX2FrnlEICbjogLMEMnKjJ0tl5vkkgCFCmsCCfoEbHu4em7/xI1ixZ5fvFyibI0FJfQ3ufRdv2QSrd22Dh+Ytg1O6j4OauHBRcY8kSYpdUiWvNspe7I7vFB+LwqZRt54ml3W2oT1/KKeL61NozyaWPSc8c0pyYg95+dnkr5yglMv4cYB8AvRc2RChnTBkDmGWYKNWmbG8a66PjXnjjZQfCUpMDNsKcyiiJbAZVu7aBldPXAy/7zEOTkdHXIqUo1opehGKn1wGbhXfNuhsdNVtVDeSXLqL5j72nZRKr5HKtAmtqZNcj36yNFn5q85xQPitlv3n3Slj0LL7QXQONsvMiUmdH+v9lxdg2a6dsHzX9jK3BkpiKVhfgf1Z9C/ziATO6FvNlTcVih8y8+0ATl/xH34WGl59Oyl7/Jyfh4+U0OPX7e8XXjyuT+a+H2L2800qZkEzjh621VLA2idEcp35Zi6SyvxoWzRZv4DIjWLH3dhV3e6LTX9nNWULhq2B8iaCuD9gMyzbvgUWbPoYWo+cDaf0GM8kUIjiJ5v5VK1HZ/yp1JUXPfuue5Tt1GMVX8TP+T9LZYYJlfffbv2gH6mln8KLcf1IHjv6qhxaYIgwTgLhtmL1pKc3+EcCLCA6jOYf+gXadLwo1v+ll2Hpzu3w9p6dZRouPJIvgEhgy2ZYvmMrzPloI8gRs+APjzEJFGXmu7ZcmMVX596h0PiKm31TP1HxycFHpj4WjplJ0tPnhRXfJfLgY8bxOJ6rusGRwB86dw63Yf6N9PQL1JnHxnt/jeh8ihI0bpMVu/yOu2LjfN8ARgrK+1gQfo/Xt2yGt5EEPtwILZ56BU4JjgPHExEU7tQLm/k1e42Furf3haYXX0NzI8jU99vIO8UPvm9Pz5FKR0Jr5CSXUSqi8dwSRjVBOEXTjR+3z/VlwtNfh6yBQ7hAmrTJwsrC2D0Dn4C569YSEby1fWu5EkFhJDBv40ZoO2qO7xi0ylGtSaBQpY/n6qOZf+bDz0K9zg9QCzZUemzYgmf9hDM+7fjo+9GvSaXbxtcFpvHGncV41m/VsWP5L1BG2SPckUV4+gQ3i00ofZpQZmaCNYC+AU9jX4BY9sWXxvo8NxqwqCiZCMqaDJJJAI8DGCZs/9fX4L8oRDiJpPqQQGE7fcjE7zctvtvf2Z/avQXn+1zlzPzDic49fVgqPUMo0yq+FsyJ0jMnhprM8Eiu4wER21IsLfDs+i2aEVKZK6TSn/lpny5SEMNRXBgyNFddExvw17/Cwo0fBUcD9BG4RJ6wlKVPYOn2LSRdpi6BPz42Hk7tM5GsgSpLAuE27QV2eqf0dvhLnfuGUW/H9HYXYWs2VPxgWpQ/Nu4QRnr8Gv1/CE8/LzzdxH3HaOZb5XehYmw1F62QtcioQNiwTryQKGjdpPTvsZ+b8MwhmkVIu4c5iP4BbPWFjkIkgj6jR8O899dRv4Dlu3faqEEZWgUJJOA/YrJQr4UryB/w3z3HV6EjQdG7vP05mvd2pyelv38E1O98PzV7tWf7bL8un8z8YLdHC87vx7dTKNNTKEN9+O13TLs9mvuheD4X7hzXEDo/qCGgLEI/SkD/9kxTLC2ORLHZJ4UM0TeAQkSAZcY5F3eK3ffEIJi8bCks37UDVu3bA2+hVRBK700lGSS/HhLB6t3bYcy76yHy1Cw6EtSolEeC4hTe7vJUiTdgBpzWbxqZ91iRV//6e6zSe1GqzLMmflzp0dTH78cvz8Xu0K8LZa4Qyo7b9r/Xk5DgIy4ahOHhKCs+IwQ6/8XrCE5wXYYQwjNRocwy2/WXur9gyJC6DqVnqxj6CNA6uKbbvTBs0iR49YP1VHKMgr4CIoOQZVBaQsAswfBroF9g5c5tsGjzJrh+8mL4314T4H96TahYa6BQZS9E4XFOg1+Mc+Yjo+Gcrn0oSy89/0K70ycqfWDiYyIXKj1+J8Kj3X6QUKZx+DslxVfmBJmr3PeYJtnUZxSFxtFogklozcV4FqFUpoP09NuuOsz5CCI6/zCGmrAzcJO22TEsOb6jdx94dtZMWPDhBmojhv4CrP4jR14hPoNjIYRk5+Bb/pHgqWVroNmwGRQlQOUvUyIoUtFDyu5MegzV4VAWX+HP6P48dzsaUAAACBpJREFUnH3nANrlm114JQ1QwdRcOtNTp92Enf4QevDxSOZbY99IpScIz3QUufHdHidHYYQnqTCs3NcSo7pECqi1kz4pEprZLj3jSaXnSWU7w1AraBs6pONBeg5ZBdgaPKY6XRG77bGeMHTCBJj17mp4c/tWyjJcuW9PQAjUXqwIR6JtWlI0MSQTCBLBql3bYP6mj+GW6W+Q8p/y2PggUnDURBAuJCpyxqIbr+YaafrK3h8nMM2gf+PknFoPPgPndO0NDa69K67wOZ7d5XO8kCMvD015nPNAyVl4j32l/5tUepbwzHXCs2W5Dr7SY7FOWobKT5NelKftMkoHrPEO1RNYkzJU9y2UbiSVfloqvd85n0KRA8wniDXP9ogMmrbNxjblsU63doUHBw+Bp6dPh1fWvEtKv2LvbmpEipYCkgIeG1wasu1J6EqGk8mhcCFrYDuWFFvfQP4Lr9KR4I8940RQcGZiMcodKHiikpMJ74fkcMSaG856es8xgCPa6t7+OE1hwulMaNJj7j3F6BMU3mDTjdAub6jjjiNW4ZnPpWcmSs9cIzz95/D3gyE8PKqRM9fP1sPvq0GnoHKXwSg9aIijyguFDU1QIIKQSv9Beqaz9MybbhgkjSwLkQH1IciNxpAIGp7fJtY8y6O5BR1vuBG69uoDvUePhmdnz4aZ774Diz7eSJbCin17qEsxOhapG/GuHdR3EAnCFQmR0qPlQATxsQ1J+o1MF23aCMu3bYZl2zbD0DdXQ6unZ8Ep3cfCH3uMiyuzk2Cg6uRE5fbDbzg7kZJusL9An4m0o+NI9jr3DiNFxyEZja68FZpddBWNS8NrxxBdi6wsSsqhvnpuh48GOzwpvHPi+X31fxGeWSeVGSqVNtLT/y/8XWAIj5pxUA5HKIzHZj6jrBGuAff7DtAOlPA7nq4nPfOo9PQa4RnqFx+qLUeT9ldnHSAhYCVio/Pb4lShGE4aOj+vPajLr4Yr7uoGXR/vB48+PRIGTZwEz82ZA+OXvw2vrF8PCz76EBZv2QxLtm2liMOy3Tth+d49sGLfXlj56T5YRfIJrP7sE/o3yvr9n9HPh678ALJeWAin9Z/mT7ixCk8mfu/x5H3HHRwdcqjcZ3V7khxz5934EE2+bXz5jTRzMSP/Ajv0FEej5eTiKDWbiEM7u1N2t7vn4e6OgmXY5LhrmdfBddk5KJTeJj09RnrmJumZc5qYdsn3HUO0gdJnqHZk4jvrjMEoV2AHmMSW5DZqkFwqKj3TQHr6QeHp16WnvwsWvm0nHSYEtBIOO1LAY0OTNtnQ6Pw2sQYt28SaZObSGDIcU3Z+u46QdcllkNf5Frjotjvhqru6wfWP9ICb+vSH2/oPgrsGDYFuTw6F+4YMgweGDqPHewcPhbsHDYG7nhgC9w8eQr8runSDhpfdRENJ0URHpW7eoRPt3hmY++ArN05d9hUcZyNS/TwpudvRPZOs6LSz05xGHIHum/OUlGNn5/0gPb1Wenq0UOZG4ZmGQpt/Sb7HVH+v0NKKt9dGDz7OhWQwKg2QCFr4Q0rwOe5S4TqD4Pc8/WfhmU5CmRFCmbXCMz9aB5fdCX1HIgrukgedpYDEEInaWYciN0oEkZ7txZpn5uBxApq0yY7h+LLGrdogYUBDHG/mC446o3FnST/D35Vu0Clm0qGJ7g+8sLt3knJjWi0qOJnugZJTDJ4+czAYtR2cn2+vh6rslP5eKLPBP8M/LD2TJz1TQ2ZHTyh4H+k8fzIercINN1D507nLLqMqINSFyBfySp+UfD5Nz2+PZ9ma0tMXSqX7CU/Pk57ZLTz9i/N6B8QQb17iyIGyEmU0D2sVUDAM6QQJ44iCvyuiqMiB/BpSaty9Dztz3Z7R4wqOnw2VPB79oOk430llNgpPvyI8PUQqfbPwTKZE0guFUQuJ0ZMvJbF5C5r27L1nVBsysAuaLANF59gC1gFCKPNbqXRdqXR7ocw9wtPPSU/Pl8psFsp8J5T5JTg/G6uEThFdbJxEo+QXIv7/+4J/40zzlqHXCkjH7uCo3D8JZb6SSm+UnlkilBkvPTNIeuZO4RkksCZSmVPcRJzCr02fKDyNuzvu8ieEW7aJXO6yw6jmEF67eM2BDSeGvdnBEMnCQEMmPfN7ocx5Qplsqczl0jO3C0/3EsoMk8q8KD0zVSgzVyqzWCq9XCq9Unj6HUGOSHp8Ryq9QirzllTmdemZV4UyM4Rnxgul/yI8PUx65nHp6fukp28Snr5UKpMtlGkqla4hlf53qaJBwVTRn5WKbNDiwc+Mjjt/dzdpEe3O8azsjOMcnTp1SssIstSs+esXppCVIJXBLsYnueGnR4s2F9dLa5blnSCy1QnNsnJPyMjKTcnnbhK1xxokJfyM6OuwtfSo+HYuQ1BXQe3YbAoug8EoAZp7Oi1Hu7x1349gsxJxJ0VBZcNzM44+Q6EiF6GiZFZn5BzZWYa/42c3otJSPbzbtf3XpWMKpkDb97OhNxI/3h73yus0kZVf5veFwWD4SFdW4ZqqdtS2ynU5cp5zp6xuN3Zif574+7hLU+QiV6e19MNrraI85ILBYDAYDAaDwWAwGAwGg8FgMBgMBoPBYDAYDAaDwWAwGAwGg8FgMBgMBoPBYDAYDAaDwWAwGAwGg8FgMBgMBoPBYDAYDAaDwWAwGAwGg8FgMBgMBoPBYDAYDAaDwWAwGAwGg8FgMBgMBoPBYDAYDAaDwWAwGAwGg8FgMBgMBoPBYDAYDAaDwWAwGAwGg8FgMBgMBiMt5fj/ji5Y1sGPFtwAAAAASUVORK5CYII=;" parent="u8F_S0l8aTNUOHP5Od4l-12" vertex="1">
          <mxGeometry x="80" y="-20" width="60" height="60" as="geometry" />
        </mxCell>
        <mxCell id="u8F_S0l8aTNUOHP5Od4l-18" value="" style="verticalLabelPosition=bottom;sketch=0;html=1;fillColor=#A153A0;strokeColor=#ffffff;verticalAlign=top;align=center;points=[[0,0.5,0],[0.125,0.25,0],[0.25,0,0],[0.5,0,0],[0.75,0,0],[0.875,0.25,0],[1,0.5,0],[0.875,0.75,0],[0.75,1,0],[0.5,1,0],[0.125,0.75,0]];pointerEvents=1;shape=mxgraph.cisco_safe.compositeIcon;bgIcon=mxgraph.cisco_safe.design.blank_device;resIcon=mxgraph.cisco_safe.design.storage_1;" parent="1" vertex="1">
          <mxGeometry x="230" y="250" width="60" height="50" as="geometry" />
        </mxCell>
        <mxCell id="u8F_S0l8aTNUOHP5Od4l-19" value="" style="shape=flexArrow;endArrow=classic;html=1;rounded=0;fillColor=#e1d5e7;strokeColor=#9673a6;strokeWidth=2;" parent="1" edge="1">
          <mxGeometry width="50" height="50" relative="1" as="geometry">
            <mxPoint x="600" y="100" as="sourcePoint" />
            <mxPoint x="550" y="150" as="targetPoint" />
          </mxGeometry>
        </mxCell>
        <mxCell id="u8F_S0l8aTNUOHP5Od4l-20" value="" style="shape=flexArrow;endArrow=classic;html=1;rounded=0;fillColor=#e1d5e7;strokeColor=#9673a6;strokeWidth=2;" parent="1" edge="1">
          <mxGeometry width="50" height="50" relative="1" as="geometry">
            <mxPoint x="310" y="100" as="sourcePoint" />
            <mxPoint x="260" y="150" as="targetPoint" />
          </mxGeometry>
        </mxCell>
        <mxCell id="u8F_S0l8aTNUOHP5Od4l-21" value="tst.orders" style="rounded=0;whiteSpace=wrap;html=1;strokeColor=#9673a6;strokeWidth=2;align=center;verticalAlign=middle;fontFamily=Courier New;fontSize=12;fontStyle=1;fillColor=#e1d5e7;" parent="1" vertex="1">
          <mxGeometry x="280" y="230" width="80" height="40" as="geometry" />
        </mxCell>
        <mxCell id="u8F_S0l8aTNUOHP5Od4l-23" value="" style="shape=flexArrow;endArrow=classic;html=1;rounded=0;fillColor=#f5f5f5;strokeColor=#666666;strokeWidth=1;dashed=1;" parent="1" edge="1">
          <mxGeometry width="50" height="50" relative="1" as="geometry">
            <mxPoint x="120" y="274.5" as="sourcePoint" />
            <mxPoint x="220" y="274.5" as="targetPoint" />
          </mxGeometry>
        </mxCell>
        <mxCell id="u8F_S0l8aTNUOHP5Od4l-24" value="&lt;pre&gt;terminal:&lt;br&gt;  &amp;gt; bin/insert-orders-random.sh&lt;/pre&gt;" style="rounded=0;whiteSpace=wrap;fillColor=#f5f5f5;strokeColor=#666666;html=1;align=left;strokeWidth=1;fontColor=#333333;dashed=1;verticalAlign=middle;fontFamily=Helvetica;fontSize=12;" parent="1" vertex="1">
          <mxGeometry x="-130" y="260" width="240" height="50" as="geometry" />
        </mxCell>
        <mxCell id="u8F_S0l8aTNUOHP5Od4l-26" value="" style="verticalLabelPosition=bottom;sketch=0;html=1;fillColor=#A153A0;strokeColor=#ffffff;verticalAlign=top;align=center;points=[[0,0.5,0],[0.125,0.25,0],[0.25,0,0],[0.5,0,0],[0.75,0,0],[0.875,0.25,0],[1,0.5,0],[0.875,0.75,0],[0.75,1,0],[0.5,1,0],[0.125,0.75,0]];pointerEvents=1;shape=mxgraph.cisco_safe.compositeIcon;bgIcon=mxgraph.cisco_safe.design.blank_device;resIcon=mxgraph.cisco_safe.design.storage_1;" parent="1" vertex="1">
          <mxGeometry x="530" y="250" width="60" height="50" as="geometry" />
        </mxCell>
        <mxCell id="u8F_S0l8aTNUOHP5Od4l-27" value="tst.orders" style="rounded=0;whiteSpace=wrap;html=1;strokeColor=#9673a6;strokeWidth=2;align=center;verticalAlign=middle;fontFamily=Courier New;fontSize=12;fontStyle=1;fillColor=#e1d5e7;" parent="1" vertex="1">
          <mxGeometry x="580" y="230" width="80" height="40" as="geometry" />
        </mxCell>
        <mxCell id="u8F_S0l8aTNUOHP5Od4l-28" value="&lt;pre&gt;replication&lt;/pre&gt;" style="shape=flexArrow;endArrow=classic;html=1;rounded=0;fillColor=#e1d5e7;strokeColor=#9673a6;strokeWidth=2;labelBackgroundColor=none;labelPosition=center;verticalLabelPosition=bottom;align=center;verticalAlign=top;" parent="1" edge="1">
          <mxGeometry width="50" height="50" relative="1" as="geometry">
            <mxPoint x="390" y="274.5" as="sourcePoint" />
            <mxPoint x="490" y="274.5" as="targetPoint" />
          </mxGeometry>
        </mxCell>
        <mxCell id="u8F_S0l8aTNUOHP5Od4l-30" value="&lt;pre&gt;terminal:&lt;br&gt;  &amp;gt; bin/monitor-orders.sh 5432&lt;/pre&gt;" style="rounded=0;whiteSpace=wrap;fillColor=#f5f5f5;strokeColor=#666666;html=1;align=left;strokeWidth=1;fontColor=#333333;dashed=1;verticalAlign=middle;fontFamily=Helvetica;fontSize=12;" parent="1" vertex="1">
          <mxGeometry x="-130" y="340" width="240" height="50" as="geometry" />
        </mxCell>
        <mxCell id="u8F_S0l8aTNUOHP5Od4l-31" value="" style="shape=flexArrow;endArrow=classic;html=1;rounded=0;fillColor=#f5f5f5;strokeColor=#666666;strokeWidth=1;dashed=1;align=center;verticalAlign=middle;fontFamily=Helvetica;fontSize=11;fontColor=default;labelBackgroundColor=default;exitX=1;exitY=0.25;exitDx=0;exitDy=0;" parent="1" source="u8F_S0l8aTNUOHP5Od4l-40" edge="1">
          <mxGeometry width="50" height="50" relative="1" as="geometry">
            <mxPoint x="120" y="360" as="sourcePoint" />
            <mxPoint x="530" y="310" as="targetPoint" />
          </mxGeometry>
        </mxCell>
        <mxCell id="u8F_S0l8aTNUOHP5Od4l-32" value="" style="shape=flexArrow;endArrow=classic;html=1;rounded=0;fillColor=#f5f5f5;strokeColor=#666666;strokeWidth=1;dashed=1;align=center;verticalAlign=middle;fontFamily=Helvetica;fontSize=11;fontColor=default;labelBackgroundColor=default;entryX=-0.045;entryY=1.078;entryDx=0;entryDy=0;entryPerimeter=0;exitX=1;exitY=0.25;exitDx=0;exitDy=0;" parent="1" source="u8F_S0l8aTNUOHP5Od4l-30" target="u8F_S0l8aTNUOHP5Od4l-18" edge="1">
          <mxGeometry width="50" height="50" relative="1" as="geometry">
            <mxPoint x="120" y="360" as="sourcePoint" />
            <mxPoint x="290" y="310" as="targetPoint" />
          </mxGeometry>
        </mxCell>
        <mxCell id="u8F_S0l8aTNUOHP5Od4l-39" value="&lt;pre&gt;db-primary:&lt;br&gt;  - archive_command:/mnt/archive/&lt;br&gt;&lt;br&gt;db-replica:&lt;br&gt;  - restore_command:/mnt/archive/&lt;br&gt;&lt;/pre&gt;" style="rounded=0;whiteSpace=wrap;fillColor=#f5f5f5;strokeColor=#666666;html=1;align=left;strokeWidth=1;fontColor=#333333;dashed=1;verticalAlign=top;fontFamily=Helvetica;fontSize=12;" parent="1" vertex="1">
          <mxGeometry x="260" y="540" width="260" height="100" as="geometry" />
        </mxCell>
        <mxCell id="u8F_S0l8aTNUOHP5Od4l-40" value="&lt;pre&gt;terminal:&lt;br&gt;  &amp;gt; bin/monitor-orders.sh 5433&lt;/pre&gt;" style="rounded=0;whiteSpace=wrap;fillColor=#f5f5f5;strokeColor=#666666;html=1;align=left;strokeWidth=1;fontColor=#333333;dashed=1;verticalAlign=middle;fontFamily=Helvetica;fontSize=12;" parent="1" vertex="1">
          <mxGeometry x="-130" y="420" width="240" height="50" as="geometry" />
        </mxCell>
        <mxCell id="u8F_S0l8aTNUOHP5Od4l-47" value="" style="shape=image;verticalLabelPosition=bottom;labelBackgroundColor=default;verticalAlign=top;aspect=fixed;imageAspect=0;image=data:image/png,iVBORw0KGgoAAAANSUhEUgAAAgAAAAIACAYAAAD0eNT6AAAAGXRFWHRTb2Z0d2FyZQBBZG9iZSBJbWFnZVJlYWR5ccllPAAAA2hpVFh0WE1MOmNvbS5hZG9iZS54bXAAAAAAADw/eHBhY2tldCBiZWdpbj0i77u/IiBpZD0iVzVNME1wQ2VoaUh6cmVTek5UY3prYzlkIj8+IDx4OnhtcG1ldGEgeG1sbnM6eD0iYWRvYmU6bnM6bWV0YS8iIHg6eG1wdGs9IkFkb2JlIFhNUCBDb3JlIDUuMy1jMDExIDY2LjE0NTY2MSwgMjAxMi8wMi8wNi0xNDo1NjoyNyAgICAgICAgIj4gPHJkZjpSREYgeG1sbnM6cmRmPSJodHRwOi8vd3d3LnczLm9yZy8xOTk5LzAyLzIyLXJkZi1zeW50YXgtbnMjIj4gPHJkZjpEZXNjcmlwdGlvbiByZGY6YWJvdXQ9IiIgeG1sbnM6eG1wTU09Imh0dHA6Ly9ucy5hZG9iZS5jb20veGFwLzEuMC9tbS8iIHhtbG5zOnN0UmVmPSJodHRwOi8vbnMuYWRvYmUuY29tL3hhcC8xLjAvc1R5cGUvUmVzb3VyY2VSZWYjIiB4bWxuczp4bXA9Imh0dHA6Ly9ucy5hZG9iZS5jb20veGFwLzEuMC8iIHhtcE1NOk9yaWdpbmFsRG9jdW1lbnRJRD0ieG1wLmRpZDowNTgwMTE3NDA3MjA2ODExODIyQURGNjBFNjIyQUY5OSIgeG1wTU06RG9jdW1lbnRJRD0ieG1wLmRpZDoyRUVCRjJFQzBGOTMxMUU0OEQ3N0I2MTEwMjI1QUFDQiIgeG1wTU06SW5zdGFuY2VJRD0ieG1wLmlpZDo5NDM3QTE3MDBGOTExMUU0OEQ3N0I2MTEwMjI1QUFDQiIgeG1wOkNyZWF0b3JUb29sPSJBZG9iZSBQaG90b3Nob3AgQ1M2IChNYWNpbnRvc2gpIj4gPHhtcE1NOkRlcml2ZWRGcm9tIHN0UmVmOmluc3RhbmNlSUQ9InhtcC5paWQ6MEE4MDExNzQwNzIwNjgxMTgyMkFERjYwRTYyMkFGOTkiIHN0UmVmOmRvY3VtZW50SUQ9InhtcC5kaWQ6MDU4MDExNzQwNzIwNjgxMTgyMkFERjYwRTYyMkFGOTkiLz4gPC9yZGY6RGVzY3JpcHRpb24+IDwvcmRmOlJERj4gPC94OnhtcG1ldGE+IDw/eHBhY2tldCBlbmQ9InIiPz4GBJbzAAAoP0lEQVR42uzdCZhlZ1kn8PcuVfdWdVX13p1OJ9CBoAQIyjJBgXFXQNRxwdFxG3VcwEFnxuV5cMFRVMAZd1RAURkc1+CGojgoEmdQYdCwaBAJQ5JOpzvV6XRX1151lznfudVJ06nldrqq+py6v598T2NXdafuuZe8//N+y6l0u90AAAZL1SUAAAEAABAAAAABAAAQAAAAAQAAEAAAAAEAABAAAAABAAAQAAAAAQAAEAAAAAEAABAAAAABAAAQAAAAAQAABAAAQAAAAAQAAEAAAAAEAABAAAAABAAAQAAAAAQAAEAAAAAEAABAAAAABAAAQAAAAAQAAEAAAAAEAAAQAAAAAQAAEAAAAAEAABAAAAABAAAQAAAAAQAAEAAAAAEAABAAAAABAAAQAAAAAQAAEAAAAAEAABAAAEAAAAAEAABAAAAABAAAQAAAAAQAAEAAAAAEAACgAOpF/wEXFxej3W5HpVLxbgFQCt1uN5rNZlSrxb3PLnwAmJycjJmZmX4v4oFs3JSNp6z8em02dpfhdQJQOK1sTGXjvmx8KBv/uPLrAxv9wU6nE8eOHYuRkREB4NFKd/6p+K8TAHZl43Oz8RXZ+JRsHPOZBWCL3JWNv8vG72Tj7dmYLesLKfOdcSr835CNl2TjST6TAGyDYyvjK7NxRzZem403ZmNGANgCaS4ljYu8IBs/lo2n+SwCcJWkm8/XZOM/ZOP7svFnF9etoivbLoBmNn4iG3+s+ANQEJ+cjT9ZqU/NsvzQZQoAaYHf72fju7JR83kDoGD19LtW6tSBMvzAZVkDcE02/jAbz9rwBdXr+QCAzdRqtfKxgResdAO+uFKpnBIArkB2AcezX27dqPgPDw9HrVaL+++/P/7hH/4h7rzzzjh79mzMzc3lb5hzBADoV5rDTzeTo6OjsXfv3rjxxhvj6U9/ehw+fDg/m2ZpaWm9P57q1a3Ly8uf32w2pwWARyFd4KyA/2JWvJ+73huUiv9HPvKReOtb3xrvec974r777lPwAdjUQHDttdfGLbfcEi984QvjCU94Ql6j1rrBTHXr5MmTr280Gl+d1ahCrgisFHWlYjpEISvkL56enn7tWmcApMKffT3e8pa3xJvf/OY4f/58/numAADYbKnYp6I/MTERL3rRi+KLvuiLYnx8fM1uQKpj2ddfmgWHXyjiiYCFDQBTU1M33nvvve/Jivne1b6ejlhMd/qvfvWr4wMf+ED+/6cpAADYSmkKYGFhIZ761KfGy172srwzkP7/NULD2euuu+6W3bt331m011HIXQDp/P9Tp07917WKf6PRiOPHj8cP/dAPxQc/+MHYtWuX4g/Atkj1JtWdVH9SHUr1KN2EribVsVTPUl0TAPpw9uzZp2UJ6ytW+9rQ0FA88MAD8cpXvjJf6JcWaADAdkv1J9WhH/uxH8sXoKf6tEbH4CtSXRMANpDmTObn57+1Wq0+4kqmhRYpeb3xjW+MO+64o9APWQBg50t16EMf+lC87nWvy2vUagsCUz3L6tqLU30TANaxsLCwP7tQX5j++4UjgC+M1Pp/xzveEW9/+9vz9gsAXG2pHr3rXe+Kd77znXmdurR2JVld+zdZfTskAKzj/Pnznx69x/hemqDyFf+33npr3iWwzQ+AIkj1KNWlVJ9SnVpjxf/hrL79awFgDekCzs3NPX+14p62973//e/P9/unhAUARZHqUqpP73vf+/J6tVpIyOrb84o0DVCoALCwsFCdn59/2moBIF202267rRRPWAJg8KT6lKYBVivyqa6l+pbqnACwugPZRbrm0t9MB/uklf8f/vCHHfIDQCGl+pTq1OTk5Kq1KqtvR6P3bBsBYBWHs/GIRRJpPiWd6z81NRVFPE0JAC6sVVunVu2PAj0psGi30+Pdbnd4tTb//Px8ftJS2gZoGgCAoklt/lSnUr1KLq1Vqb5lv4zpAKxuaK2Lmo5eXF5e9gkDoLBSnUr1ap2dakMCwBoBaq0vuOsHoAw2qFeF2cNuQh0ABlDhltRffHLSer8HAEXtAKxVy4pEBwAABpAAAAACAAAgAAAAO1KhFgGWZeEEAPRTzzb6PR0AAEAAAAAEAABgkzkICAC2oI45CAgAKBwBAAAEAABAAAAAdiSLAAFgC+qYRYAAQOEIAAAgAAAAg8AaAADYgjpmDQAAUDgCAAAIAADAICjUGoCyzJsAQD/1bKPf0wEAAAQAAEAAAAA2mXMAAGAL6ljR17PVy3hRB/uTFVFdrEZ0VvlaJfvtZif/tcyvr7Jc2Zlv3VC33O8N0Fed0gFgS4pjesfmnjoXnZHOx4eASq9wNj/UjMpCpZyFJnt93ZFuLD1uafWAU2ZZZhs6ORSV+YoQAAgA/d7lu/NfkRXF7mg3TvzkiVi6bukRX67N1OJxX/a4GProUHSHy3e9UoBZumEpTr/4dFSWdlaVTO/HwdcejMa/NEr53gCXX8dMAbDpd8nVhZW1m0sf/05W56u9LkHJX18q/jstAFx4bQBFYRcAAAgAAMAgsAYAALagjnkcMABQOAJAmbRX9sivFyI7LhMAG7MLoMDFvrp00ar+Wlbb93SidW2rd6DMaiEgbTGvV6I6V41uq/cN3Vq3t+3M3nMAihoA1ps3GYg1ABeKfvZr+1A75o7NxeJTFmPhSQuxeHQx2ofb0Z5oR2uiFdF65J9tjbXinp+9J4buGYrm8WY0b29G46ONGP7YcFRmK9GtCwMAapkOQGGktn5lsRKd/Z2Yee5MzHzuTMw+czYWji088h3q9Ir9IzoAqSlQ7cbCJy7kYzr7v7xxMF2LxocbMfHXE7Hrtl3R/KdmHh7ykwQFAQAdAK7SHf98NVpHWzH1pVNx7gvPxcITFx7++nJ8/GE//bjk+9uj7Zh75lw+qi+pxti7xmLvrXtj11/tyoNHHgQAEACutjJsndgMaZ4+zemf+aYz8eBXPRhLR5ceLvqb+XLbKyM1D4Y6cf5zzudj/LbxOPgLB2PkPSPRGe6IggADVsv8a/9q3PUvVmPmc2Zi8rsmY/6m+VXv3LdEZ+WfU4mY/vTpmH3WbOx/0/448JoDUZmrRLfhrAWAQWEb4DbKz7ivVuL095yOe157T6/4L21T8f+4GNr7Z6aOwOlvyX6WX7snWo9vRXXWxwFAAGBzi39a5LenEyd+5kRM/sfJfMHethf+S7V7QSAtOLzr1+6K+X81H9UZHwkAAeAquHj7xKWj1MX/UCeOv+54TD1vqlf42wX6AbOfJ61BOP6Lx2P+lnmdAIABqGP+Tb/VxX8pK/57s+L/muP5nfYV3/Vv1da97OdaPrQc9/7cvbH45MXeo4UB0AHgUUh3+fWI+370vkdf/FPBH75o1GLtXQIXf++jeWdTJ+Dapbjvx++L9r5279hhAASA7bBe66RSKVdBSqv9z3z7mTj//PO97X2Xo7ZSyLOX3LyjGft+d18c/f6jcewbjkXjVCNi6JHvZG2uFrvftjtG/nEkKu3Kw2HgMkPA3M1zcf/33h+VTmVztyQC7HCpTpVlCqCQ5wDsiGQ1V42558zF5DdPrn5y33p3/Flxr52vxZ4/3RMTfzSRB4DquWq+ja+7t5tPKzxiKqDaCxzX/Og1UTtTy48Qnv6s6XzNweLjFnv//H5DSPZ9Z190Nnb97a7Yfevu6Iw5LAhgp9U35wBshazgdyY6ceplp3pn7/fb+k9361mt3fd7+2L/r+yP4TuG80KfDurp7Orkf2+3uc5Z/ul7RztRO1GLxt83ovnuZux7w76Y+uKpeOBbHojlw8v9/Swrn9HJ75iMXX+zK2oP1HoPIAJgx7AGYCsu6nw1zr3oXMzfPH9ZxX/o1FA85tsfE0e++0gM/fNQXszzo3prl/kD1HpBId25V6erse/1++KGr7ohJt4x0f/6gLQe4LFL8eA3PJjvYgBAANgya82ZdDqd0kwNVFqVaB9px5l/f6b/tn9WlJt3NvP5/dTy7zQ7vTv9zbim9W7ejajfVY/rXnJdHPzVg72+Tz/vfLs3FbB001Jv2gGAvmrZhbpV5HUApZgCuLD4rwznAVQWKnH+88/nd8993f1nxb9xVyOuf8n1MfThod6jftNLXO1ldleuwRrJIv/KWo+hbHTzcHLohw/l3/fANz6w8XMH0iOG97Xi7FedjcMvP5yfHLi1/6tZmSPrxs5bfNiNHXGmBbBx8b+4bukADIq0SG+8G2e/+GzfVz+114/8wJEY+tBQb55/q2pDKkC1brSH23Hw1Qdj/B3jj9xJsMZrOvf552LpmC4AwE5Sim2AZZkCqC5VY/6T5mPhyQv9rbivR+z9/b2x6693RWd8m1bap55PK+KaV1wTQyeHNu4BZd/bOtiKmefPCAAAfdaxtaYABICdqh0x+2mz+bz7hnfytew/U7XY+z/3Rqe2vdvs0nTA0EeG4sAbDvT9CZh64VR0d3d7TxQEQAeAC1U18q1ys58829/3ZwFg9O9Ho/FPjU1b8Hc50nTDxB9MROOjjY2nApYj5p80HwtPWsi7HAAIAJtfR0v6IKC0wG75huVYevxS33fJ47eNX7076iyA1E/XY+/v7N34+QIr4WbmM2byKQEAyl/L3M5tZgDYt5yvmt/wSX/V3kOCGh9o5AvzrpZ0wNDYX45F7Wytr7MGZp47YxoAQAeAS++S249tr/+wnouuev1cPern61f1HUinFA5/bDhGbx/dOABkuWbxxsXebgAPCQIQADa9KJXkIQqr1sjrWn1f9er5aj6uZgfgQmEfe/dY77/X1xnV3jHD80+f7z1oCIBS1zHPAthE7fF2+X7o7M6/+d5mDD04FN3OBrsXGhFLn7C08ZoBAApPANjU2Fe+H7nT6ETjXxpx7N8ei25lgxdQ6T3lMB1VDIAAsHn1c61jbHfi8alFOe423c0vZx+Ej/X5Uaj2ni8AQLlrmQ7AVbntjvzkvzTSYsCrvg6g0lsQCMDgsAtgs++m+5EesnOgFcsHly2oA0AASMq8C6B2rtbni+y10RduWXCwDsAOU5Y6pgOwieonL2NGJfscTH3eVHQnHKwDgABQXpWI2t213imA/XT1szv/+ZvnY/oF01Gd9TYAIACUUmrpp7309QfrfR2re2EHwOR3TEbrca2oLngrABjgAFDW+f88ABwfykffV3U5YukxS3HiVSfyHQGVBQsCAXbETaE1AAMkq92V+crDx+r2ayli9jmzcfyXjkfrWCuq09VSHigEgA7A4KpFjL1jLH/S32Vd2RQCPmU27vrNu+L8V57PH7aTTtwTBAAYmABQ5m2A6Vjd5gebMfr3o5d/xFIWApaPLMe9P3Fv3Psr98bcp81FpVPJFwh6+h5AeXgY0CBK0wBzldj36/ti9lNne7sBLuf9Xur9HdOfMR3Tz52OsfeOxZ7f2xOj7xqN+ol6dNvZB2hUWwCAAQsAZegEtJvt2PXnu/KpgJnPmukV9ct6kQ8HgZlPmcnH8H3DMfru0Rh721g0726uHSoqUaqOyWqvvbuD5z3Sa9uRz7UAPq5OCQBXUOBL/TCgdNffiTj8qsOx8JSFaB1qXX4IuDgIpF+OLMXSlyzFuS85F0OnhqK9q53vIFjzzwGglm3AIsCtePMb3Rj+0HAcedmR3ta+oSv8C5dXwkBaJ3Boufc43u7q4SNfNzBXjeq8tQMAlCgAlHkR4MU6Y50Y+19jce3Lr+0d8jO8SX9xa427/Hb2n7F2nPipE3H6R07H7GfORutoK6qL1XwhYQoEnjsAoI5dYBHgFoeAid+aiNrpWpx89clYvma5dze/FZ+BNH9e6cb80+bzEd8cMXT/UAzfMRxjt49F8z3NaPy/RtRO9Y4p7A518wHAYBIAtiEE7PqLXfGYr31MTP7AZEx/+nTvC0tb9A+88PdWetMFy4eX825Auvtv3NuI5j82Y+yvxmL0b1Z2FlS7+ZRFmC0AEACuptIvAlwjBAx9ZCiOfvPRmPqqqXjgxQ/0ugHpKYBb1ZZPl+vihYJZgV88tpiPqS+YyncWjP/leEz83kQ0P9DMpxDytQWCAMCm1LHValmRWAS4XR+IZr4JLPa8YU889kWPjQO/dKD34KC0NmB4O36AeGghYRppZ8GZrz0Td/3OXXHvL98bc8+dy9cLVBYlAIBBIABs89VO3YD6yXoc/JGDcezLj8Whnz0UjTsbDweB7erJrOws6Na6Mf3Z03HPm+6Jkz990vMIAASAq3SnvAN2AGz4Goe60dmVBYG767H/v+/Pg8D133Z97P7T3VE/e1FXYGgbfpjOShDIrnE6Z+Cu370rpr5uKqpLthEC7ORaZhHg1fyADHfzETMRY38yFmNvHYvlY8t5Oz4dB7xw80JvrcAFrZWCvYVBoHWwFfe96r6Y/6T5OPSqQ1E5X+ktEgRgRxEAiqCW1d/RXmWvH6/H7jftjt2/sTta17di/ub5PBDMffJcLN2wFJ2RztZtJYx46Bjis195NpaOLcXR/3I0qier+RoGAASArbkj3glHAW9WVyDlgvtqMX73eIz/8Xh09nVi6bqlWHzmYkx+x2S09rTylftb80PEQ48oPv6rx+O6b70u6vfUe7sEANgRtcwiwCJ/iNJagdFOvl4g5iIa72/ExJsnovZgLe8aPEKasr+wfqC2Od2A+Zvm48RPn4j2vnZUlqwJANgpBICyqPW2EuZTAJXVv16frsfBXzoYY+8ci9p87eEwcCXvchYC5p4xF6deceqhBx0BUH4OAtopUnFuR+x54544cPxALD55MeaeM5dv8Zt/+vzDDxBafhR/d/Znzn/B+Rj5p5HY93P7ojMuBQBsVMeKfhCQRYA7LASkKYNuvRvDHx6Oxj818kCw+NTFmH7+dEy9cCqWr1u+/CDQ7YWL0y85HaPvGs2nIrojAhlAmZkC2KFBIG3dS2sHUhho3N6Ig684GMe+7Fgc+slDUX9g5ayBy5nST0cFT3Ti9Hee7sVG9R9AANhMO+VxwIUKA2ntwHgnag/UYv9P9g4eSocO5QcNXc5iweWImc+YidnPm+09XhiA0tYx/xYfpA9l2lWwuxP1u+px7UuvjUM/dSgqnUr/IWDls/vg1z3YmwKQyQBKq1RrAAa+E5DX3O76X98oaXZ7HYHU0k/dgNrZWpx8xcleMe9nbV+rtytg/inzMfLekc09G+DCz78Dk0X+qnSzYCDu/svCFMCABon0zrdH27H7jbtj/xv29x8FO73DiuY+c27rDiICKHkIMAVA4eNfZ7gT+39qf4y8b+SyHks886wZ0wAA5S4BDLTszj89/nf/L+yPSqvS386A9DiCY8uxfP2yJwYCCABXrpTt//SjtfocBT0/J50uuOudu6L5/mZ/jyBuZy9nbysflbYAAFDGeuYgoCst/umI3vHuxnfO6eY6naU/H5e3/36bYmBlphLjt43H/DPm+3vdWVDo7O+YAgAoKUcBX4FU0NORu6d+5lR0a9317/CHI8bePhYHf/hg7zz/osmCTOPvG5dV0NuPsQoQYL27/0t/XwDYSR2A7O558dhivsd+I0NHhwo7DdCtdqN+ph616Vq0d7X7W+HvkQAApWUR4BVevVQwU+HMw8DSOiPVy7FO8dr/F6xMUVQWKsX9GQHYuQGgTAsB0zn7tdO1/Ijdfopm+3A72gfbxd0/XwnFH2BA6pgOwBVevepUNYZO9LF0Pq2cP9KK1uFWb7ud+AiAf4WXWFbLG/c0+goA7bF2LH3iUnG3zl1mB6B6yscHQADYJGU8C6D5D82+v3f202aL+SI6kS/+a4+3+1vcl70dtcmaKQOAktYxt3BX+kbXujF853DUztU2fqpeVlhnP3U2WkdbhTtBLz0VsH1tO7qN7sYBIL3UmVrUZmv57gEAdAAGLwAMd2Po7qE8BGwYAFoRy0eWY+YFM1FdKNilz4r+wjMW+vveWu/uv36q3jv/AAAB4IqKaRmPAk675uYqMfZ3Y32+yIizX3M2WgdTGihO8e/u6sbsM/qfnmjc2ehNAThJAqCU9UwHYDNkdXD0r0Z7R/1udEWzor/4+MU49w3norZYK8aHYKEaC09biIUnL/QdSkb/76hjgAF0AAa7C5Aeqdv8YDNGPjDS3x1xO+LMt5yJuefORXXmKr8F3V4X49xXn8unMzYs6llmqc5WY/Rdo9r/ACWuY4UMAGWMUWkaYPdbdvf3/Wmh/WgnTv34qVi+aTmqc9Wrtpo+/bNTEDn/vPO9Jxb20e0YuX0kGh9u9BYMAlDK+mYKYLO6AI1OjL11LIbuGervkbpLvWcInHjdiVj6hKWoTm//W1FZrET7QDsmXz7Z3+r/lZCy+/d39443tgUQoLRK9TTAQk8FpNb4yWrs/Y29Mfm9k/39mayILty4EPe+4d645juviZG/G4nOrs7asay7cYLs9zqlM//TP+vkfzsZCzctPPS8gnVlwWb4I8Mx+hej0R5ub/4agO4lY0dF/4ffv1J2uYDLqmFleBqgDsBmdgGanZj47YlofKSRP/633xCwdMNS3Pume2Pqm6aiulyNyvwW3lpnn7+07qBzJCv+P38yZj5vpr/iv/Ij7fvlfb1nH1j9D1BqAsBmyopiKo4HfuJAr53e79XNCnC6Gz/1I6fixK+ciMWnLeYL7fIgsFmBsdOb768uVWP2hbNx/LeOx8xn91n8V+7+R98zGhN/MJGvXwCg9CWrWNabAihFFyArjmN/OhZ7bt0T577iXP8FttW7y575nJmY+9S5fEHh+K3j0by9mW8vTCvuu5XLuAbpycOtSu+5A2mf/1g35j5jLs593bmY/pzpXjjp92er9cLDgR/Pgk06K2jE/3AANqpjRZ8C0MjdbJXeY4IPvOpAvq9+4SkL/Rfa7ko3oNmJs//ubJz70nMx8t6RGH/HeIz87UgMfWwo7wys2RVI7f35av49nX2daF3XiuXrlmP+OfMx85yZ3j7/dPTAcvS34n/l9aQ/c+A1Bx5eowCADsB2paYyLZzqDnWjdqYWR777SBx/4/FoXdPqPwQk7d5Id/1zz5nLRyrswx8bzkNAa0+r9z2X3PGnnQinv/d0dOqd/HkD+eOHD11U6ZfjkX9uI0MRu9+8O/a+dm90RhR/gJ1Sy3QAtkgqlsMfHI6jLzkaJ15/oleIly73L4mH/kxnqBMLT1rIx6qFvNObfjj/Rec//s8vx6NfRzAcMfbnY3Ho5Yd60w9WjADsGP6VvpUhYFcnmn/XjKPfejTqk/X+dwasFwaWYt0pgIe+J43Woyz+lYeL/5H/fCRfjJi6GgAIAFtmtaMTO51e67lSKd/JM53xLAS8uxnXff110byj2QsBRX4ZqSe00vZ/qPgPK/4Afd0/rdSpVLccBUx0xjrR+EAjDwETfzLROylwuIA/6HBvEeGhVx2Ka77nmvywIMUfYGeyBmC7QsBoJ6qT1Tjy0iP5g3TO/KczsXzN8kML/q524U9G3z2ab/VLOw7WPZEQAAFgs+2EXQBrvrbh3uvY/T92x+hto3Huxedi6ounoj2xcqzu8jb+MKlLtfLMguE7h2Pvm/bmpximln+atgDgyuqYcwB4ROFNUwL1++px8PsOxsRvTMT5rz4f08+bjuXDKwlgq7oCFxX9FDjSI4x337o7xv9oPGqna3mXojui5Q+gA6ADsLXdgGwM//NwHPzeg7HndXvyk/pSEFj4pIVo77koAXRWAsHlXoLayrjo72l8tJG3+sfeNhbN9zajeq4a3WY3DyUA6ACwXR+URjcf9ZP1fGpg4jcnYvnxy7H41MWYe9ZcLD5hMZYfsxytva2H797X2tt/8R1+Jj1ieGhyKOofq8foB0aj+Z5mNP6lEbVTtTwYpIODFH4AHQCuZhAY6vb22mf/GbpzKIY/PBzjvzuet+Rb17fy0//S0b6tJ7TizFef6XUILp4mqGb/WajGnt/YE81/zO7sj1ejPl2P+ql61CZrDwWEdKCQog+Ao4CLprLSFbhwi5/9ku7g6+16VP62Et193Zh6wVS0968SAOaqsff1e2Poo0O9KYZab3h6H4BapgNQxkCwshc/7xKkRXqVtb83HUGcL+azfx+AMgWAMiycAICy17J62S7mQIeBbn8foNJep5XX143uDnzruj7DMKCFv6ic9QYAA8gUAAAMYC3TAQCAASQAAMAAchRw2aRtgRfO67/kkcLrbhEEYFvrmF0AbGrxj1ZE893NqB2t5f/9Iel03/O1qCxUyt3XqcaOPMMgf036bYAAcPmpSQegV+Qrs5U4/B2Ho9KtrBoQOs1OdOvlvFbpoKP0lMR9v7gvKp2d1croVnuvLT/uGRjYDoCTALmiLkBq9e/EvfLptVXmK9H458bO/JfCkCkaQAcA1g44jjEGGLwAYAoAgDIryyJAy5IAQAeguB0AAChbF0AHAAAQAACAq8siQADYgjpmCgAAKBwBAAAGUKmOAjYVAECRrVevilbDdAAAQAegOOmpyKkJAPrpAlz6+0WiAwAAA0gAAIABZAoAALagjpkCAAB0AB5tBwAAytYF0AEAAAQAAODqKtVJgABQdE4CBAB0AC43OekAALDTOgBFogMAAANIAACAAVS4KYBOp2MKAIDSWmsKINU3HQAAQAdgo7t9d/8AlLELUORapgMAADoAxU9TugEAlOnOXwC4giKv6ANQ9iDgJEAAQAAAALafo4ABYAvqmF0AAIAOgA4AADoAOgAAgAAAAGwHUwAAsAV1zBQAAKADsBNSEwD0U882+j0dAABAAAAAtlYpFgF2Op389yqVincMgMJKdSrVqwt169L6pgMAAOgAbNQBsA0QgLKwDRAA0AHYqu4AABSpTgkAm1jkFX4AynazagoAANABeLSpSQcAgLJ3AJwECAAIAADA9irNIkAAKAuLAAGAQhIAAGAAOQcAALagjpkCAAB0AHQAANAB0AEAAAQAAGA7OAoYAAawlukAAIAOQHGS06W/BwBl6wIUuZbpAADAABIAAGAAleocAIsBASiy9eqVKQAAQAAAALafo4ABYAvqmCkAAEAH4NGmJh0AAMreAXASIAAgAAAA28siQADYgjpmESAAUDgCAAAMIE8DBIABrGU6AACgA1Dc1KQLAECZ7v51AB7FhQOAnRgMBAAA4KpyFDAADGAt0wEAAB2AcqQqAChqnRIANrHIK/wAlO1m1S4AAEAHQAcAAB0AHQAAQAAAALaDhwEBwADWMh0AABhAAgAADCBHAQPAANYyHQAA0AEoTnLSAQBgp3UAikQHAAAGkAAAAAPIFAAAbEEdMwUAABSOAAAAA8hRwAAwgLVMBwAABpAAAAADqFRHAdsNAECRrVevHAUMAAgAAMD2cxAQAGxBHbMLAADQAbiSDkClUvGOAVBYqU7pAAAAhSUAAMAAsggQALagjpkC2KSLCQBlCgFFZwoAAAZQaY4CBoAydQAcBQwAFI4AAAADyC4AANiCOmYXAABQOAIAAAwgUwAAsAV1zBQAAFA4AgAADCBTAACwBXWs6FMA9TJeVAAoap0qC1MAADCASvMsAHf+AJSlC+BZAABAIQkAADCASrMLAADKwkFAAEAhCQAAMIAcBAQAW1DHTAEAAIUjAADAADIFAABbUMdMAQAAhSMAAMAA8iwAABjAWqYDAAADSAAAAAEAABgEhdsG2Ol0PAwIgFJbbb4/1TcdAABAAAAAtpeTAAFgC+pY0aez62W8qABQ1DpVFqYAAGAAmQIAgC2oYx4GBAAUjgAAAAPIw4AAYABrmQ4AAAwgAQAABAAAYBDYBggAW1DHbAMEAApHAACAAVSaKQAAKAtTAABAIQkAACAAAACDwDZAANiCOmYNAABQOAIAAAwgTwMEgAGsZToAADCABAAAEAAAgEFgGyAAbEEdsw0QANAB2OzuAAAUqU6VhQ4AAOgAFPMu350/AGXqAlgDAAAUkgAAAAIAADAISrMGAADKwhoAAKCQBAAAEAAAgEFQqDUAZXmGMgCUvZbpAADAABIAAEAAAAAGgWcBAMAW1DHnAAAAhSMAAIAAAAAMAmsAAGAL6pg1AABA4QgAACAAAAACAACwI5ViEWCn08l/rVQq3jEACutCnUp1yyJAAKBwBAAAEAAAgEFQqDUA6x2e4CAgAMqgLLVMBwAABlDRAoDbfAB2ssLUuaIFgOU1f9Bq1TZAAAot1alUrx5NndtuRTsHYDobS9kYvvQLtVotH+12WxAAoHi39t3uQ7VqDam+zegArO7+7AJOXryAIo10oMLw8HA+LAYEoKgBYGhoKB8XDgK6ZJzJvu0BAWAV2QV7IBunVvn9aDabsXfvXgEAgMIGgFSnRkZGHjrB9pJadmK1GicAZB772Md2brjhhtuXlx85RZLa/tdee61PGACFdfTo0VWnqVNdS/Ut1TkBYBWjo6PxhCc84W1rJKc4cOBA7NmzJ18HAABFkepSqk+pTq1Vw7L69uepzgkAa3j2s599W3ah7rv09y/Mrdx4440WAQJQKKkupfqU6tRqU9VZXbs/q2//u0g/c+ECwNGjR88cO3bsj5eWlh6xgKLVauXTANdff32sNk0AANst1aMjR47k9SnVqUtrV6pnWV17S1bfJgWAdaT2yOMf//jXL69R4dPFfOITnxj79u3LLzQAXC2pDqV69OQnP3nNReqpnmV17bVFav8XMgAkz3/+82/ftWvX76w1j5J2BDzjGc+I3bt3CwEAXLXin+pQqkfrrPyPVM9SXSvaz1/IAJDaKN/4jd/4w7Ozs2dX+3pabJFd0Ljlllvy5JWaBbYHArAdUr1JdSfVn1SHUj1aa3F6qmOpnhVxF1thHwb0zGc+885nP/vZ37+4uBhrhYCUuJ71rGfFTTfdlJ+8lNLYagkMAK5Uqi+pzqR6k+pOqj+pDq1V/FP9yurYy1M9K+LrqRT5zvn++++PH/zBH/z1paWlr1nrbOW08jK9GefOnYu77747JicnY25uzicVgE2V5vAPHTqUzqx5aEv6WjU0hYWsbv3WK1/5yq85fPhwIe9M60W+2NlFS/smv+32228/1mg0nrva91w4Knh8fDxuvvnmWFhYiNOnT8fU1FSevi6syASAy7pDzm4w6/V6ZPUnn+s/ePBgvgbtwhTAerIb1//z0pe+9FuLWvwLHwBWUlR6QNCXZ+MPs/Gsdb4v/zW9UWmbYBoAsFlS4e/zILp3p7p16NCh6SK/nnpJrns6O/kLsvHr2Xj+BoHBpxSAq+Vt2fjabDxQ9F1q1RJd1PQEpS/Jxk+mOu8zBkCBdFbq05dEgZ74t1MCQLKQje9e6Qa8z+cNgAJ430pd+u6VOlUKhZ8CuPg4xYv8WTbSmcpfn42XZONJPn8AbLM7svHabLwxGzOr1S4BYGuki/3z2fi1bHxWNr4yG8/JxmN9JgHYIndn413Z+O1svCMbs2V9IYUPAOkhCmlr3zrSxf/jlXEwG0/Mxs0rvx7NxkTJgw4AV0daxXc+Gyey8c/Z+ODKr6c3+oOpbhV9UXql6C2Ke+65Jx2l6BHAAJRGqq3pwKCiPQCoVAEAANh8VZcAAAQAAEAAAAAEAABAAAAABAAAQAAAAAQAAEAAAAAEAABAAAAABAAAQAAAAAQAAEAAAAAEAABAAAAABAAAEAAAAAEAABAAAAABAAAQAAAAAQAAEAAAAAEAABAAAAABAAAQAAAAAQAAEAAAAAEAABAAAAABAAAQAABAAAAABAAAQAAAAAQAAEAAAAAEAABAAAAABAAAQAAAAAQAAEAAAAAEAABAAAAABAAAQAAAAAQAAEAAAAABAAAQAAAAAQAAEAAAAAEAABAAAAABAAAonv8vwADUO7uUAABtvAAAAABJRU5ErkJggg==;" parent="1" vertex="1">
          <mxGeometry x="-160" y="230" width="40" height="40" as="geometry" />
        </mxCell>
        <mxCell id="u8F_S0l8aTNUOHP5Od4l-48" value="" style="shape=image;verticalLabelPosition=bottom;labelBackgroundColor=default;verticalAlign=top;aspect=fixed;imageAspect=0;image=data:image/png,iVBORw0KGgoAAAANSUhEUgAAAgAAAAIACAYAAAD0eNT6AAAAGXRFWHRTb2Z0d2FyZQBBZG9iZSBJbWFnZVJlYWR5ccllPAAAA2hpVFh0WE1MOmNvbS5hZG9iZS54bXAAAAAAADw/eHBhY2tldCBiZWdpbj0i77u/IiBpZD0iVzVNME1wQ2VoaUh6cmVTek5UY3prYzlkIj8+IDx4OnhtcG1ldGEgeG1sbnM6eD0iYWRvYmU6bnM6bWV0YS8iIHg6eG1wdGs9IkFkb2JlIFhNUCBDb3JlIDUuMy1jMDExIDY2LjE0NTY2MSwgMjAxMi8wMi8wNi0xNDo1NjoyNyAgICAgICAgIj4gPHJkZjpSREYgeG1sbnM6cmRmPSJodHRwOi8vd3d3LnczLm9yZy8xOTk5LzAyLzIyLXJkZi1zeW50YXgtbnMjIj4gPHJkZjpEZXNjcmlwdGlvbiByZGY6YWJvdXQ9IiIgeG1sbnM6eG1wTU09Imh0dHA6Ly9ucy5hZG9iZS5jb20veGFwLzEuMC9tbS8iIHhtbG5zOnN0UmVmPSJodHRwOi8vbnMuYWRvYmUuY29tL3hhcC8xLjAvc1R5cGUvUmVzb3VyY2VSZWYjIiB4bWxuczp4bXA9Imh0dHA6Ly9ucy5hZG9iZS5jb20veGFwLzEuMC8iIHhtcE1NOk9yaWdpbmFsRG9jdW1lbnRJRD0ieG1wLmRpZDowNTgwMTE3NDA3MjA2ODExODIyQURGNjBFNjIyQUY5OSIgeG1wTU06RG9jdW1lbnRJRD0ieG1wLmRpZDoyRUVCRjJFQzBGOTMxMUU0OEQ3N0I2MTEwMjI1QUFDQiIgeG1wTU06SW5zdGFuY2VJRD0ieG1wLmlpZDo5NDM3QTE3MDBGOTExMUU0OEQ3N0I2MTEwMjI1QUFDQiIgeG1wOkNyZWF0b3JUb29sPSJBZG9iZSBQaG90b3Nob3AgQ1M2IChNYWNpbnRvc2gpIj4gPHhtcE1NOkRlcml2ZWRGcm9tIHN0UmVmOmluc3RhbmNlSUQ9InhtcC5paWQ6MEE4MDExNzQwNzIwNjgxMTgyMkFERjYwRTYyMkFGOTkiIHN0UmVmOmRvY3VtZW50SUQ9InhtcC5kaWQ6MDU4MDExNzQwNzIwNjgxMTgyMkFERjYwRTYyMkFGOTkiLz4gPC9yZGY6RGVzY3JpcHRpb24+IDwvcmRmOlJERj4gPC94OnhtcG1ldGE+IDw/eHBhY2tldCBlbmQ9InIiPz4GBJbzAAAoP0lEQVR42uzdCZhlZ1kn8PcuVfdWdVX13p1OJ9CBoAQIyjJBgXFXQNRxwdFxG3VcwEFnxuV5cMFRVMAZd1RAURkc1+CGojgoEmdQYdCwaBAJQ5JOpzvV6XRX1151lznfudVJ06nldrqq+py6v598T2NXdafuuZe8//N+y6l0u90AAAZL1SUAAAEAABAAAAABAAAQAAAAAQAAEAAAAAEAABAAAAABAAAQAAAAAQAAEAAAAAEAABAAAAABAAAQAAAAAQAABAAAQAAAAAQAAEAAAAAEAABAAAAABAAAQAAAAAQAAEAAAAAEAABAAAAABAAAQAAAAAQAAEAAAAAEAAAQAAAAAQAAEAAAAAEAABAAAAABAAAQAAAAAQAAEAAAAAEAABAAAAABAAAQAAAAAQAAEAAAAAEAABAAAEAAAAAEAABAAAAABAAAQAAAAAQAAEAAAAAEAACgAOpF/wEXFxej3W5HpVLxbgFQCt1uN5rNZlSrxb3PLnwAmJycjJmZmX4v4oFs3JSNp6z8em02dpfhdQJQOK1sTGXjvmx8KBv/uPLrAxv9wU6nE8eOHYuRkREB4NFKd/6p+K8TAHZl43Oz8RXZ+JRsHPOZBWCL3JWNv8vG72Tj7dmYLesLKfOdcSr835CNl2TjST6TAGyDYyvjK7NxRzZem403ZmNGANgCaS4ljYu8IBs/lo2n+SwCcJWkm8/XZOM/ZOP7svFnF9etoivbLoBmNn4iG3+s+ANQEJ+cjT9ZqU/NsvzQZQoAaYHf72fju7JR83kDoGD19LtW6tSBMvzAZVkDcE02/jAbz9rwBdXr+QCAzdRqtfKxgResdAO+uFKpnBIArkB2AcezX27dqPgPDw9HrVaL+++/P/7hH/4h7rzzzjh79mzMzc3lb5hzBADoV5rDTzeTo6OjsXfv3rjxxhvj6U9/ehw+fDg/m2ZpaWm9P57q1a3Ly8uf32w2pwWARyFd4KyA/2JWvJ+73huUiv9HPvKReOtb3xrvec974r777lPwAdjUQHDttdfGLbfcEi984QvjCU94Ql6j1rrBTHXr5MmTr280Gl+d1ahCrgisFHWlYjpEISvkL56enn7tWmcApMKffT3e8pa3xJvf/OY4f/58/numAADYbKnYp6I/MTERL3rRi+KLvuiLYnx8fM1uQKpj2ddfmgWHXyjiiYCFDQBTU1M33nvvve/Jivne1b6ejlhMd/qvfvWr4wMf+ED+/6cpAADYSmkKYGFhIZ761KfGy172srwzkP7/NULD2euuu+6W3bt331m011HIXQDp/P9Tp07917WKf6PRiOPHj8cP/dAPxQc/+MHYtWuX4g/Atkj1JtWdVH9SHUr1KN2EribVsVTPUl0TAPpw9uzZp2UJ6ytW+9rQ0FA88MAD8cpXvjJf6JcWaADAdkv1J9WhH/uxH8sXoKf6tEbH4CtSXRMANpDmTObn57+1Wq0+4kqmhRYpeb3xjW+MO+64o9APWQBg50t16EMf+lC87nWvy2vUagsCUz3L6tqLU30TANaxsLCwP7tQX5j++4UjgC+M1Pp/xzveEW9/+9vz9gsAXG2pHr3rXe+Kd77znXmdurR2JVld+zdZfTskAKzj/Pnznx69x/hemqDyFf+33npr3iWwzQ+AIkj1KNWlVJ9SnVpjxf/hrL79awFgDekCzs3NPX+14p62973//e/P9/unhAUARZHqUqpP73vf+/J6tVpIyOrb84o0DVCoALCwsFCdn59/2moBIF202267rRRPWAJg8KT6lKYBVivyqa6l+pbqnACwugPZRbrm0t9MB/uklf8f/vCHHfIDQCGl+pTq1OTk5Kq1KqtvR6P3bBsBYBWHs/GIRRJpPiWd6z81NRVFPE0JAC6sVVunVu2PAj0psGi30+Pdbnd4tTb//Px8ftJS2gZoGgCAoklt/lSnUr1KLq1Vqb5lv4zpAKxuaK2Lmo5eXF5e9gkDoLBSnUr1ap2dakMCwBoBaq0vuOsHoAw2qFeF2cNuQh0ABlDhltRffHLSer8HAEXtAKxVy4pEBwAABpAAAAACAAAgAAAAO1KhFgGWZeEEAPRTzzb6PR0AAEAAAAAEAABgkzkICAC2oI45CAgAKBwBAAAEAABAAAAAdiSLAAFgC+qYRYAAQOEIAAAgAAAAg8AaAADYgjpmDQAAUDgCAAAIAADAICjUGoCyzJsAQD/1bKPf0wEAAAQAAEAAAAA2mXMAAGAL6ljR17PVy3hRB/uTFVFdrEZ0VvlaJfvtZif/tcyvr7Jc2Zlv3VC33O8N0Fed0gFgS4pjesfmnjoXnZHOx4eASq9wNj/UjMpCpZyFJnt93ZFuLD1uafWAU2ZZZhs6ORSV+YoQAAgA/d7lu/NfkRXF7mg3TvzkiVi6bukRX67N1OJxX/a4GProUHSHy3e9UoBZumEpTr/4dFSWdlaVTO/HwdcejMa/NEr53gCXX8dMAbDpd8nVhZW1m0sf/05W56u9LkHJX18q/jstAFx4bQBFYRcAAAgAAMAgsAYAALagjnkcMABQOAJAmbRX9sivFyI7LhMAG7MLoMDFvrp00ar+Wlbb93SidW2rd6DMaiEgbTGvV6I6V41uq/cN3Vq3t+3M3nMAihoA1ps3GYg1ABeKfvZr+1A75o7NxeJTFmPhSQuxeHQx2ofb0Z5oR2uiFdF65J9tjbXinp+9J4buGYrm8WY0b29G46ONGP7YcFRmK9GtCwMAapkOQGGktn5lsRKd/Z2Yee5MzHzuTMw+czYWji088h3q9Ir9IzoAqSlQ7cbCJy7kYzr7v7xxMF2LxocbMfHXE7Hrtl3R/KdmHh7ykwQFAQAdAK7SHf98NVpHWzH1pVNx7gvPxcITFx7++nJ8/GE//bjk+9uj7Zh75lw+qi+pxti7xmLvrXtj11/tyoNHHgQAEACutjJsndgMaZ4+zemf+aYz8eBXPRhLR5ceLvqb+XLbKyM1D4Y6cf5zzudj/LbxOPgLB2PkPSPRGe6IggADVsv8a/9q3PUvVmPmc2Zi8rsmY/6m+VXv3LdEZ+WfU4mY/vTpmH3WbOx/0/448JoDUZmrRLfhrAWAQWEb4DbKz7ivVuL095yOe157T6/4L21T8f+4GNr7Z6aOwOlvyX6WX7snWo9vRXXWxwFAAGBzi39a5LenEyd+5kRM/sfJfMHethf+S7V7QSAtOLzr1+6K+X81H9UZHwkAAeAquHj7xKWj1MX/UCeOv+54TD1vqlf42wX6AbOfJ61BOP6Lx2P+lnmdAIABqGP+Tb/VxX8pK/57s+L/muP5nfYV3/Vv1da97OdaPrQc9/7cvbH45MXeo4UB0AHgUUh3+fWI+370vkdf/FPBH75o1GLtXQIXf++jeWdTJ+Dapbjvx++L9r5279hhAASA7bBe66RSKVdBSqv9z3z7mTj//PO97X2Xo7ZSyLOX3LyjGft+d18c/f6jcewbjkXjVCNi6JHvZG2uFrvftjtG/nEkKu3Kw2HgMkPA3M1zcf/33h+VTmVztyQC7HCpTpVlCqCQ5wDsiGQ1V42558zF5DdPrn5y33p3/Flxr52vxZ4/3RMTfzSRB4DquWq+ja+7t5tPKzxiKqDaCxzX/Og1UTtTy48Qnv6s6XzNweLjFnv//H5DSPZ9Z190Nnb97a7Yfevu6Iw5LAhgp9U35wBshazgdyY6ceplp3pn7/fb+k9361mt3fd7+2L/r+yP4TuG80KfDurp7Orkf2+3uc5Z/ul7RztRO1GLxt83ovnuZux7w76Y+uKpeOBbHojlw8v9/Swrn9HJ75iMXX+zK2oP1HoPIAJgx7AGYCsu6nw1zr3oXMzfPH9ZxX/o1FA85tsfE0e++0gM/fNQXszzo3prl/kD1HpBId25V6erse/1++KGr7ohJt4x0f/6gLQe4LFL8eA3PJjvYgBAANgya82ZdDqd0kwNVFqVaB9px5l/f6b/tn9WlJt3NvP5/dTy7zQ7vTv9zbim9W7ejajfVY/rXnJdHPzVg72+Tz/vfLs3FbB001Jv2gGAvmrZhbpV5HUApZgCuLD4rwznAVQWKnH+88/nd8993f1nxb9xVyOuf8n1MfThod6jftNLXO1ldleuwRrJIv/KWo+hbHTzcHLohw/l3/fANz6w8XMH0iOG97Xi7FedjcMvP5yfHLi1/6tZmSPrxs5bfNiNHXGmBbBx8b+4bukADIq0SG+8G2e/+GzfVz+114/8wJEY+tBQb55/q2pDKkC1brSH23Hw1Qdj/B3jj9xJsMZrOvf552LpmC4AwE5Sim2AZZkCqC5VY/6T5mPhyQv9rbivR+z9/b2x6693RWd8m1bap55PK+KaV1wTQyeHNu4BZd/bOtiKmefPCAAAfdaxtaYABICdqh0x+2mz+bz7hnfytew/U7XY+z/3Rqe2vdvs0nTA0EeG4sAbDvT9CZh64VR0d3d7TxQEQAeAC1U18q1ys58829/3ZwFg9O9Ho/FPjU1b8Hc50nTDxB9MROOjjY2nApYj5p80HwtPWsi7HAAIAJtfR0v6IKC0wG75huVYevxS33fJ47eNX7076iyA1E/XY+/v7N34+QIr4WbmM2byKQEAyl/L3M5tZgDYt5yvmt/wSX/V3kOCGh9o5AvzrpZ0wNDYX45F7Wytr7MGZp47YxoAQAeAS++S249tr/+wnouuev1cPern61f1HUinFA5/bDhGbx/dOABkuWbxxsXebgAPCQIQADa9KJXkIQqr1sjrWn1f9er5aj6uZgfgQmEfe/dY77/X1xnV3jHD80+f7z1oCIBS1zHPAthE7fF2+X7o7M6/+d5mDD04FN3OBrsXGhFLn7C08ZoBAApPANjU2Fe+H7nT6ETjXxpx7N8ei25lgxdQ6T3lMB1VDIAAsHn1c61jbHfi8alFOe423c0vZx+Ej/X5Uaj2ni8AQLlrmQ7AVbntjvzkvzTSYsCrvg6g0lsQCMDgsAtgs++m+5EesnOgFcsHly2oA0AASMq8C6B2rtbni+y10RduWXCwDsAOU5Y6pgOwieonL2NGJfscTH3eVHQnHKwDgABQXpWI2t213imA/XT1szv/+ZvnY/oF01Gd9TYAIACUUmrpp7309QfrfR2re2EHwOR3TEbrca2oLngrABjgAFDW+f88ABwfykffV3U5YukxS3HiVSfyHQGVBQsCAXbETaE1AAMkq92V+crDx+r2ayli9jmzcfyXjkfrWCuq09VSHigEgA7A4KpFjL1jLH/S32Vd2RQCPmU27vrNu+L8V57PH7aTTtwTBAAYmABQ5m2A6Vjd5gebMfr3o5d/xFIWApaPLMe9P3Fv3Psr98bcp81FpVPJFwh6+h5AeXgY0CBK0wBzldj36/ti9lNne7sBLuf9Xur9HdOfMR3Tz52OsfeOxZ7f2xOj7xqN+ol6dNvZB2hUWwCAAQsAZegEtJvt2PXnu/KpgJnPmukV9ct6kQ8HgZlPmcnH8H3DMfru0Rh721g0726uHSoqUaqOyWqvvbuD5z3Sa9uRz7UAPq5OCQBXUOBL/TCgdNffiTj8qsOx8JSFaB1qXX4IuDgIpF+OLMXSlyzFuS85F0OnhqK9q53vIFjzzwGglm3AIsCtePMb3Rj+0HAcedmR3ta+oSv8C5dXwkBaJ3Boufc43u7q4SNfNzBXjeq8tQMAlCgAlHkR4MU6Y50Y+19jce3Lr+0d8jO8SX9xa427/Hb2n7F2nPipE3H6R07H7GfORutoK6qL1XwhYQoEnjsAoI5dYBHgFoeAid+aiNrpWpx89clYvma5dze/FZ+BNH9e6cb80+bzEd8cMXT/UAzfMRxjt49F8z3NaPy/RtRO9Y4p7A518wHAYBIAtiEE7PqLXfGYr31MTP7AZEx/+nTvC0tb9A+88PdWetMFy4eX825Auvtv3NuI5j82Y+yvxmL0b1Z2FlS7+ZRFmC0AEACuptIvAlwjBAx9ZCiOfvPRmPqqqXjgxQ/0ugHpKYBb1ZZPl+vihYJZgV88tpiPqS+YyncWjP/leEz83kQ0P9DMpxDytQWCAMCm1LHValmRWAS4XR+IZr4JLPa8YU889kWPjQO/dKD34KC0NmB4O36AeGghYRppZ8GZrz0Td/3OXXHvL98bc8+dy9cLVBYlAIBBIABs89VO3YD6yXoc/JGDcezLj8Whnz0UjTsbDweB7erJrOws6Na6Mf3Z03HPm+6Jkz990vMIAASAq3SnvAN2AGz4Goe60dmVBYG767H/v+/Pg8D133Z97P7T3VE/e1FXYGgbfpjOShDIrnE6Z+Cu370rpr5uKqpLthEC7ORaZhHg1fyADHfzETMRY38yFmNvHYvlY8t5Oz4dB7xw80JvrcAFrZWCvYVBoHWwFfe96r6Y/6T5OPSqQ1E5X+ktEgRgRxEAiqCW1d/RXmWvH6/H7jftjt2/sTta17di/ub5PBDMffJcLN2wFJ2RztZtJYx46Bjis195NpaOLcXR/3I0qier+RoGAASArbkj3glHAW9WVyDlgvtqMX73eIz/8Xh09nVi6bqlWHzmYkx+x2S09rTylftb80PEQ48oPv6rx+O6b70u6vfUe7sEANgRtcwiwCJ/iNJagdFOvl4g5iIa72/ExJsnovZgLe8aPEKasr+wfqC2Od2A+Zvm48RPn4j2vnZUlqwJANgpBICyqPW2EuZTAJXVv16frsfBXzoYY+8ci9p87eEwcCXvchYC5p4xF6deceqhBx0BUH4OAtopUnFuR+x54544cPxALD55MeaeM5dv8Zt/+vzDDxBafhR/d/Znzn/B+Rj5p5HY93P7ojMuBQBsVMeKfhCQRYA7LASkKYNuvRvDHx6Oxj818kCw+NTFmH7+dEy9cCqWr1u+/CDQ7YWL0y85HaPvGs2nIrojAhlAmZkC2KFBIG3dS2sHUhho3N6Ig684GMe+7Fgc+slDUX9g5ayBy5nST0cFT3Ti9Hee7sVG9R9AANhMO+VxwIUKA2ntwHgnag/UYv9P9g4eSocO5QcNXc5iweWImc+YidnPm+09XhiA0tYx/xYfpA9l2lWwuxP1u+px7UuvjUM/dSgqnUr/IWDls/vg1z3YmwKQyQBKq1RrAAa+E5DX3O76X98oaXZ7HYHU0k/dgNrZWpx8xcleMe9nbV+rtytg/inzMfLekc09G+DCz78Dk0X+qnSzYCDu/svCFMCABon0zrdH27H7jbtj/xv29x8FO73DiuY+c27rDiICKHkIMAVA4eNfZ7gT+39qf4y8b+SyHks886wZ0wAA5S4BDLTszj89/nf/L+yPSqvS386A9DiCY8uxfP2yJwYCCABXrpTt//SjtfocBT0/J50uuOudu6L5/mZ/jyBuZy9nbysflbYAAFDGeuYgoCst/umI3vHuxnfO6eY6naU/H5e3/36bYmBlphLjt43H/DPm+3vdWVDo7O+YAgAoKUcBX4FU0NORu6d+5lR0a9317/CHI8bePhYHf/hg7zz/osmCTOPvG5dV0NuPsQoQYL27/0t/XwDYSR2A7O558dhivsd+I0NHhwo7DdCtdqN+ph616Vq0d7X7W+HvkQAApWUR4BVevVQwU+HMw8DSOiPVy7FO8dr/F6xMUVQWKsX9GQHYuQGgTAsB0zn7tdO1/Ijdfopm+3A72gfbxd0/XwnFH2BA6pgOwBVevepUNYZO9LF0Pq2cP9KK1uFWb7ud+AiAf4WXWFbLG/c0+goA7bF2LH3iUnG3zl1mB6B6yscHQADYJGU8C6D5D82+v3f202aL+SI6kS/+a4+3+1vcl70dtcmaKQOAktYxt3BX+kbXujF853DUztU2fqpeVlhnP3U2WkdbhTtBLz0VsH1tO7qN7sYBIL3UmVrUZmv57gEAdAAGLwAMd2Po7qE8BGwYAFoRy0eWY+YFM1FdKNilz4r+wjMW+vveWu/uv36q3jv/AAAB4IqKaRmPAk675uYqMfZ3Y32+yIizX3M2WgdTGihO8e/u6sbsM/qfnmjc2ehNAThJAqCU9UwHYDNkdXD0r0Z7R/1udEWzor/4+MU49w3norZYK8aHYKEaC09biIUnL/QdSkb/76hjgAF0AAa7C5Aeqdv8YDNGPjDS3x1xO+LMt5yJuefORXXmKr8F3V4X49xXn8unMzYs6llmqc5WY/Rdo9r/ACWuY4UMAGWMUWkaYPdbdvf3/Wmh/WgnTv34qVi+aTmqc9Wrtpo+/bNTEDn/vPO9Jxb20e0YuX0kGh9u9BYMAlDK+mYKYLO6AI1OjL11LIbuGervkbpLvWcInHjdiVj6hKWoTm//W1FZrET7QDsmXz7Z3+r/lZCy+/d39443tgUQoLRK9TTAQk8FpNb4yWrs/Y29Mfm9k/39mayILty4EPe+4d645juviZG/G4nOrs7asay7cYLs9zqlM//TP+vkfzsZCzctPPS8gnVlwWb4I8Mx+hej0R5ub/4agO4lY0dF/4ffv1J2uYDLqmFleBqgDsBmdgGanZj47YlofKSRP/633xCwdMNS3Pume2Pqm6aiulyNyvwW3lpnn7+07qBzJCv+P38yZj5vpr/iv/Ij7fvlfb1nH1j9D1BqAsBmyopiKo4HfuJAr53e79XNCnC6Gz/1I6fixK+ciMWnLeYL7fIgsFmBsdOb768uVWP2hbNx/LeOx8xn91n8V+7+R98zGhN/MJGvXwCg9CWrWNabAihFFyArjmN/OhZ7bt0T577iXP8FttW7y575nJmY+9S5fEHh+K3j0by9mW8vTCvuu5XLuAbpycOtSu+5A2mf/1g35j5jLs593bmY/pzpXjjp92er9cLDgR/Pgk06K2jE/3AANqpjRZ8C0MjdbJXeY4IPvOpAvq9+4SkL/Rfa7ko3oNmJs//ubJz70nMx8t6RGH/HeIz87UgMfWwo7wys2RVI7f35av49nX2daF3XiuXrlmP+OfMx85yZ3j7/dPTAcvS34n/l9aQ/c+A1Bx5eowCADsB2paYyLZzqDnWjdqYWR777SBx/4/FoXdPqPwQk7d5Id/1zz5nLRyrswx8bzkNAa0+r9z2X3PGnnQinv/d0dOqd/HkD+eOHD11U6ZfjkX9uI0MRu9+8O/a+dm90RhR/gJ1Sy3QAtkgqlsMfHI6jLzkaJ15/oleIly73L4mH/kxnqBMLT1rIx6qFvNObfjj/Rec//s8vx6NfRzAcMfbnY3Ho5Yd60w9WjADsGP6VvpUhYFcnmn/XjKPfejTqk/X+dwasFwaWYt0pgIe+J43Woyz+lYeL/5H/fCRfjJi6GgAIAFtmtaMTO51e67lSKd/JM53xLAS8uxnXff110byj2QsBRX4ZqSe00vZ/qPgPK/4Afd0/rdSpVLccBUx0xjrR+EAjDwETfzLROylwuIA/6HBvEeGhVx2Ka77nmvywIMUfYGeyBmC7QsBoJ6qT1Tjy0iP5g3TO/KczsXzN8kML/q524U9G3z2ab/VLOw7WPZEQAAFgs+2EXQBrvrbh3uvY/T92x+hto3Huxedi6ounoj2xcqzu8jb+MKlLtfLMguE7h2Pvm/bmpximln+atgDgyuqYcwB4ROFNUwL1++px8PsOxsRvTMT5rz4f08+bjuXDKwlgq7oCFxX9FDjSI4x337o7xv9oPGqna3mXojui5Q+gA6ADsLXdgGwM//NwHPzeg7HndXvyk/pSEFj4pIVo77koAXRWAsHlXoLayrjo72l8tJG3+sfeNhbN9zajeq4a3WY3DyUA6ACwXR+URjcf9ZP1fGpg4jcnYvnxy7H41MWYe9ZcLD5hMZYfsxytva2H797X2tt/8R1+Jj1ieGhyKOofq8foB0aj+Z5mNP6lEbVTtTwYpIODFH4AHQCuZhAY6vb22mf/GbpzKIY/PBzjvzuet+Rb17fy0//S0b6tJ7TizFef6XUILp4mqGb/WajGnt/YE81/zO7sj1ejPl2P+ql61CZrDwWEdKCQog+Ao4CLprLSFbhwi5/9ku7g6+16VP62Et193Zh6wVS0968SAOaqsff1e2Poo0O9KYZab3h6H4BapgNQxkCwshc/7xKkRXqVtb83HUGcL+azfx+AMgWAMiycAICy17J62S7mQIeBbn8foNJep5XX143uDnzruj7DMKCFv6ic9QYAA8gUAAAMYC3TAQCAASQAAMAAchRw2aRtgRfO67/kkcLrbhEEYFvrmF0AbGrxj1ZE893NqB2t5f/9Iel03/O1qCxUyt3XqcaOPMMgf036bYAAcPmpSQegV+Qrs5U4/B2Ho9KtrBoQOs1OdOvlvFbpoKP0lMR9v7gvKp2d1croVnuvLT/uGRjYDoCTALmiLkBq9e/EvfLptVXmK9H458bO/JfCkCkaQAcA1g44jjEGGLwAYAoAgDIryyJAy5IAQAeguB0AAChbF0AHAAAQAACAq8siQADYgjpmCgAAKBwBAAAGUKmOAjYVAECRrVevilbDdAAAQAegOOmpyKkJAPrpAlz6+0WiAwAAA0gAAIABZAoAALagjpkCAAB0AB5tBwAAytYF0AEAAAQAAODqKtVJgABQdE4CBAB0AC43OekAALDTOgBFogMAAANIAACAAVS4KYBOp2MKAIDSWmsKINU3HQAAQAdgo7t9d/8AlLELUORapgMAADoAxU9TugEAlOnOXwC4giKv6ANQ9iDgJEAAQAAAALafo4ABYAvqmF0AAIAOgA4AADoAOgAAgAAAAGwHUwAAsAV1zBQAAKADsBNSEwD0U882+j0dAABAAAAAtlYpFgF2Op389yqVincMgMJKdSrVqwt169L6pgMAAOgAbNQBsA0QgLKwDRAA0AHYqu4AABSpTgkAm1jkFX4AynazagoAANABeLSpSQcAgLJ3AJwECAAIAADA9irNIkAAKAuLAAGAQhIAAGAAOQcAALagjpkCAAB0AHQAANAB0AEAAAQAAGA7OAoYAAawlukAAIAOQHGS06W/BwBl6wIUuZbpAADAABIAAGAAleocAIsBASiy9eqVKQAAQAAAALafo4ABYAvqmCkAAEAH4NGmJh0AAMreAXASIAAgAAAA28siQADYgjpmESAAUDgCAAAMIE8DBIABrGU6AACgA1Dc1KQLAECZ7v51AB7FhQOAnRgMBAAA4KpyFDAADGAt0wEAAB2AcqQqAChqnRIANrHIK/wAlO1m1S4AAEAHQAcAAB0AHQAAQAAAALaDhwEBwADWMh0AABhAAgAADCBHAQPAANYyHQAA0AEoTnLSAQBgp3UAikQHAAAGkAAAAAPIFAAAbEEdMwUAABSOAAAAA8hRwAAwgLVMBwAABpAAAAADqFRHAdsNAECRrVevHAUMAAgAAMD2cxAQAGxBHbMLAADQAbiSDkClUvGOAVBYqU7pAAAAhSUAAMAAsggQALagjpkC2KSLCQBlCgFFZwoAAAZQaY4CBoAydQAcBQwAFI4AAAADyC4AANiCOmYXAABQOAIAAAwgUwAAsAV1zBQAAFA4AgAADCBTAACwBXWs6FMA9TJeVAAoap0qC1MAADCASvMsAHf+AJSlC+BZAABAIQkAADCASrMLAADKwkFAAEAhCQAAMIAcBAQAW1DHTAEAAIUjAADAADIFAABbUMdMAQAAhSMAAMAA8iwAABjAWqYDAAADSAAAAAEAABgEhdsG2Ol0PAwIgFJbbb4/1TcdAABAAAAAtpeTAAFgC+pY0aez62W8qABQ1DpVFqYAAGAAmQIAgC2oYx4GBAAUjgAAAAPIw4AAYABrmQ4AAAwgAQAABAAAYBDYBggAW1DHbAMEAApHAACAAVSaKQAAKAtTAABAIQkAACAAAACDwDZAANiCOmYNAABQOAIAAAwgTwMEgAGsZToAADCABAAAEAAAgEFgGyAAbEEdsw0QANAB2OzuAAAUqU6VhQ4AAOgAFPMu350/AGXqAlgDAAAUkgAAAAIAADAISrMGAADKwhoAAKCQBAAAEAAAgEFQqDUAZXmGMgCUvZbpAADAABIAAEAAAAAGgWcBAMAW1DHnAAAAhSMAAIAAAAAMAmsAAGAL6pg1AABA4QgAACAAAAACAACwI5ViEWCn08l/rVQq3jEACutCnUp1yyJAAKBwBAAAEAAAgEFQqDUA6x2e4CAgAMqgLLVMBwAABlDRAoDbfAB2ssLUuaIFgOU1f9Bq1TZAAAot1alUrx5NndtuRTsHYDobS9kYvvQLtVotH+12WxAAoHi39t3uQ7VqDam+zegArO7+7AJOXryAIo10oMLw8HA+LAYEoKgBYGhoKB8XDgK6ZJzJvu0BAWAV2QV7IBunVvn9aDabsXfvXgEAgMIGgFSnRkZGHjrB9pJadmK1GicAZB772Md2brjhhtuXlx85RZLa/tdee61PGACFdfTo0VWnqVNdS/Ut1TkBYBWjo6PxhCc84W1rJKc4cOBA7NmzJ18HAABFkepSqk+pTq1Vw7L69uepzgkAa3j2s599W3ah7rv09y/Mrdx4440WAQJQKKkupfqU6tRqU9VZXbs/q2//u0g/c+ECwNGjR88cO3bsj5eWlh6xgKLVauXTANdff32sNk0AANst1aMjR47k9SnVqUtrV6pnWV17S1bfJgWAdaT2yOMf//jXL69R4dPFfOITnxj79u3LLzQAXC2pDqV69OQnP3nNReqpnmV17bVFav8XMgAkz3/+82/ftWvX76w1j5J2BDzjGc+I3bt3CwEAXLXin+pQqkfrrPyPVM9SXSvaz1/IAJDaKN/4jd/4w7Ozs2dX+3pabJFd0Ljlllvy5JWaBbYHArAdUr1JdSfVn1SHUj1aa3F6qmOpnhVxF1thHwb0zGc+885nP/vZ37+4uBhrhYCUuJ71rGfFTTfdlJ+8lNLYagkMAK5Uqi+pzqR6k+pOqj+pDq1V/FP9yurYy1M9K+LrqRT5zvn++++PH/zBH/z1paWlr1nrbOW08jK9GefOnYu77747JicnY25uzicVgE2V5vAPHTqUzqx5aEv6WjU0hYWsbv3WK1/5yq85fPhwIe9M60W+2NlFS/smv+32228/1mg0nrva91w4Knh8fDxuvvnmWFhYiNOnT8fU1FSevi6syASAy7pDzm4w6/V6ZPUnn+s/ePBgvgbtwhTAerIb1//z0pe+9FuLWvwLHwBWUlR6QNCXZ+MPs/Gsdb4v/zW9UWmbYBoAsFlS4e/zILp3p7p16NCh6SK/nnpJrns6O/kLsvHr2Xj+BoHBpxSAq+Vt2fjabDxQ9F1q1RJd1PQEpS/Jxk+mOu8zBkCBdFbq05dEgZ74t1MCQLKQje9e6Qa8z+cNgAJ430pd+u6VOlUKhZ8CuPg4xYv8WTbSmcpfn42XZONJPn8AbLM7svHabLwxGzOr1S4BYGuki/3z2fi1bHxWNr4yG8/JxmN9JgHYIndn413Z+O1svCMbs2V9IYUPAOkhCmlr3zrSxf/jlXEwG0/Mxs0rvx7NxkTJgw4AV0daxXc+Gyey8c/Z+ODKr6c3+oOpbhV9UXql6C2Ke+65Jx2l6BHAAJRGqq3pwKCiPQCoVAEAANh8VZcAAAQAAEAAAAAEAABAAAAABAAAQAAAAAQAAEAAAAAEAABAAAAABAAAQAAAAAQAAEAAAAAEAABAAAAABAAAEAAAAAEAABAAAAABAAAQAAAAAQAAEAAAAAEAABAAAAABAAAQAAAAAQAAEAAAAAEAABAAAAABAAAQAABAAAAABAAAQAAAAAQAAEAAAAAEAABAAAAABAAAQAAAAAQAAEAAAAAEAABAAAAABAAAQAAAAAQAAEAAAAABAAAQAAAAAQAAEAAAAAEAABAAAAABAAAonv8vwADUO7uUAABtvAAAAABJRU5ErkJggg==;" parent="1" vertex="1">
          <mxGeometry x="-160" y="310" width="40" height="40" as="geometry" />
        </mxCell>
        <mxCell id="u8F_S0l8aTNUOHP5Od4l-49" value="" style="shape=image;verticalLabelPosition=bottom;labelBackgroundColor=default;verticalAlign=top;aspect=fixed;imageAspect=0;image=data:image/png,iVBORw0KGgoAAAANSUhEUgAAAgAAAAIACAYAAAD0eNT6AAAAGXRFWHRTb2Z0d2FyZQBBZG9iZSBJbWFnZVJlYWR5ccllPAAAA2hpVFh0WE1MOmNvbS5hZG9iZS54bXAAAAAAADw/eHBhY2tldCBiZWdpbj0i77u/IiBpZD0iVzVNME1wQ2VoaUh6cmVTek5UY3prYzlkIj8+IDx4OnhtcG1ldGEgeG1sbnM6eD0iYWRvYmU6bnM6bWV0YS8iIHg6eG1wdGs9IkFkb2JlIFhNUCBDb3JlIDUuMy1jMDExIDY2LjE0NTY2MSwgMjAxMi8wMi8wNi0xNDo1NjoyNyAgICAgICAgIj4gPHJkZjpSREYgeG1sbnM6cmRmPSJodHRwOi8vd3d3LnczLm9yZy8xOTk5LzAyLzIyLXJkZi1zeW50YXgtbnMjIj4gPHJkZjpEZXNjcmlwdGlvbiByZGY6YWJvdXQ9IiIgeG1sbnM6eG1wTU09Imh0dHA6Ly9ucy5hZG9iZS5jb20veGFwLzEuMC9tbS8iIHhtbG5zOnN0UmVmPSJodHRwOi8vbnMuYWRvYmUuY29tL3hhcC8xLjAvc1R5cGUvUmVzb3VyY2VSZWYjIiB4bWxuczp4bXA9Imh0dHA6Ly9ucy5hZG9iZS5jb20veGFwLzEuMC8iIHhtcE1NOk9yaWdpbmFsRG9jdW1lbnRJRD0ieG1wLmRpZDowNTgwMTE3NDA3MjA2ODExODIyQURGNjBFNjIyQUY5OSIgeG1wTU06RG9jdW1lbnRJRD0ieG1wLmRpZDoyRUVCRjJFQzBGOTMxMUU0OEQ3N0I2MTEwMjI1QUFDQiIgeG1wTU06SW5zdGFuY2VJRD0ieG1wLmlpZDo5NDM3QTE3MDBGOTExMUU0OEQ3N0I2MTEwMjI1QUFDQiIgeG1wOkNyZWF0b3JUb29sPSJBZG9iZSBQaG90b3Nob3AgQ1M2IChNYWNpbnRvc2gpIj4gPHhtcE1NOkRlcml2ZWRGcm9tIHN0UmVmOmluc3RhbmNlSUQ9InhtcC5paWQ6MEE4MDExNzQwNzIwNjgxMTgyMkFERjYwRTYyMkFGOTkiIHN0UmVmOmRvY3VtZW50SUQ9InhtcC5kaWQ6MDU4MDExNzQwNzIwNjgxMTgyMkFERjYwRTYyMkFGOTkiLz4gPC9yZGY6RGVzY3JpcHRpb24+IDwvcmRmOlJERj4gPC94OnhtcG1ldGE+IDw/eHBhY2tldCBlbmQ9InIiPz4GBJbzAAAoP0lEQVR42uzdCZhlZ1kn8PcuVfdWdVX13p1OJ9CBoAQIyjJBgXFXQNRxwdFxG3VcwEFnxuV5cMFRVMAZd1RAURkc1+CGojgoEmdQYdCwaBAJQ5JOpzvV6XRX1151lznfudVJ06nldrqq+py6v598T2NXdafuuZe8//N+y6l0u90AAAZL1SUAAAEAABAAAAABAAAQAAAAAQAAEAAAAAEAABAAAAABAAAQAAAAAQAAEAAAAAEAABAAAAABAAAQAAAAAQAABAAAQAAAAAQAAEAAAAAEAABAAAAABAAAQAAAAAQAAEAAAAAEAABAAAAABAAAQAAAAAQAAEAAAAAEAAAQAAAAAQAAEAAAAAEAABAAAAABAAAQAAAAAQAAEAAAAAEAABAAAAABAAAQAAAAAQAAEAAAAAEAABAAAEAAAAAEAABAAAAABAAAQAAAAAQAAEAAAAAEAACgAOpF/wEXFxej3W5HpVLxbgFQCt1uN5rNZlSrxb3PLnwAmJycjJmZmX4v4oFs3JSNp6z8em02dpfhdQJQOK1sTGXjvmx8KBv/uPLrAxv9wU6nE8eOHYuRkREB4NFKd/6p+K8TAHZl43Oz8RXZ+JRsHPOZBWCL3JWNv8vG72Tj7dmYLesLKfOdcSr835CNl2TjST6TAGyDYyvjK7NxRzZem403ZmNGANgCaS4ljYu8IBs/lo2n+SwCcJWkm8/XZOM/ZOP7svFnF9etoivbLoBmNn4iG3+s+ANQEJ+cjT9ZqU/NsvzQZQoAaYHf72fju7JR83kDoGD19LtW6tSBMvzAZVkDcE02/jAbz9rwBdXr+QCAzdRqtfKxgResdAO+uFKpnBIArkB2AcezX27dqPgPDw9HrVaL+++/P/7hH/4h7rzzzjh79mzMzc3lb5hzBADoV5rDTzeTo6OjsXfv3rjxxhvj6U9/ehw+fDg/m2ZpaWm9P57q1a3Ly8uf32w2pwWARyFd4KyA/2JWvJ+73huUiv9HPvKReOtb3xrvec974r777lPwAdjUQHDttdfGLbfcEi984QvjCU94Ql6j1rrBTHXr5MmTr280Gl+d1ahCrgisFHWlYjpEISvkL56enn7tWmcApMKffT3e8pa3xJvf/OY4f/58/numAADYbKnYp6I/MTERL3rRi+KLvuiLYnx8fM1uQKpj2ddfmgWHXyjiiYCFDQBTU1M33nvvve/Jivne1b6ejlhMd/qvfvWr4wMf+ED+/6cpAADYSmkKYGFhIZ761KfGy172srwzkP7/NULD2euuu+6W3bt331m011HIXQDp/P9Tp07917WKf6PRiOPHj8cP/dAPxQc/+MHYtWuX4g/Atkj1JtWdVH9SHUr1KN2EribVsVTPUl0TAPpw9uzZp2UJ6ytW+9rQ0FA88MAD8cpXvjJf6JcWaADAdkv1J9WhH/uxH8sXoKf6tEbH4CtSXRMANpDmTObn57+1Wq0+4kqmhRYpeb3xjW+MO+64o9APWQBg50t16EMf+lC87nWvy2vUagsCUz3L6tqLU30TANaxsLCwP7tQX5j++4UjgC+M1Pp/xzveEW9/+9vz9gsAXG2pHr3rXe+Kd77znXmdurR2JVld+zdZfTskAKzj/Pnznx69x/hemqDyFf+33npr3iWwzQ+AIkj1KNWlVJ9SnVpjxf/hrL79awFgDekCzs3NPX+14p62973//e/P9/unhAUARZHqUqpP73vf+/J6tVpIyOrb84o0DVCoALCwsFCdn59/2moBIF202267rRRPWAJg8KT6lKYBVivyqa6l+pbqnACwugPZRbrm0t9MB/uklf8f/vCHHfIDQCGl+pTq1OTk5Kq1KqtvR6P3bBsBYBWHs/GIRRJpPiWd6z81NRVFPE0JAC6sVVunVu2PAj0psGi30+Pdbnd4tTb//Px8ftJS2gZoGgCAoklt/lSnUr1KLq1Vqb5lv4zpAKxuaK2Lmo5eXF5e9gkDoLBSnUr1ap2dakMCwBoBaq0vuOsHoAw2qFeF2cNuQh0ABlDhltRffHLSer8HAEXtAKxVy4pEBwAABpAAAAACAAAgAAAAO1KhFgGWZeEEAPRTzzb6PR0AAEAAAAAEAABgkzkICAC2oI45CAgAKBwBAAAEAABAAAAAdiSLAAFgC+qYRYAAQOEIAAAgAAAAg8AaAADYgjpmDQAAUDgCAAAIAADAICjUGoCyzJsAQD/1bKPf0wEAAAQAAEAAAAA2mXMAAGAL6ljR17PVy3hRB/uTFVFdrEZ0VvlaJfvtZif/tcyvr7Jc2Zlv3VC33O8N0Fed0gFgS4pjesfmnjoXnZHOx4eASq9wNj/UjMpCpZyFJnt93ZFuLD1uafWAU2ZZZhs6ORSV+YoQAAgA/d7lu/NfkRXF7mg3TvzkiVi6bukRX67N1OJxX/a4GProUHSHy3e9UoBZumEpTr/4dFSWdlaVTO/HwdcejMa/NEr53gCXX8dMAbDpd8nVhZW1m0sf/05W56u9LkHJX18q/jstAFx4bQBFYRcAAAgAAMAgsAYAALagjnkcMABQOAJAmbRX9sivFyI7LhMAG7MLoMDFvrp00ar+Wlbb93SidW2rd6DMaiEgbTGvV6I6V41uq/cN3Vq3t+3M3nMAihoA1ps3GYg1ABeKfvZr+1A75o7NxeJTFmPhSQuxeHQx2ofb0Z5oR2uiFdF65J9tjbXinp+9J4buGYrm8WY0b29G46ONGP7YcFRmK9GtCwMAapkOQGGktn5lsRKd/Z2Yee5MzHzuTMw+czYWji088h3q9Ir9IzoAqSlQ7cbCJy7kYzr7v7xxMF2LxocbMfHXE7Hrtl3R/KdmHh7ykwQFAQAdAK7SHf98NVpHWzH1pVNx7gvPxcITFx7++nJ8/GE//bjk+9uj7Zh75lw+qi+pxti7xmLvrXtj11/tyoNHHgQAEACutjJsndgMaZ4+zemf+aYz8eBXPRhLR5ceLvqb+XLbKyM1D4Y6cf5zzudj/LbxOPgLB2PkPSPRGe6IggADVsv8a/9q3PUvVmPmc2Zi8rsmY/6m+VXv3LdEZ+WfU4mY/vTpmH3WbOx/0/448JoDUZmrRLfhrAWAQWEb4DbKz7ivVuL095yOe157T6/4L21T8f+4GNr7Z6aOwOlvyX6WX7snWo9vRXXWxwFAAGBzi39a5LenEyd+5kRM/sfJfMHethf+S7V7QSAtOLzr1+6K+X81H9UZHwkAAeAquHj7xKWj1MX/UCeOv+54TD1vqlf42wX6AbOfJ61BOP6Lx2P+lnmdAIABqGP+Tb/VxX8pK/57s+L/muP5nfYV3/Vv1da97OdaPrQc9/7cvbH45MXeo4UB0AHgUUh3+fWI+370vkdf/FPBH75o1GLtXQIXf++jeWdTJ+Dapbjvx++L9r5279hhAASA7bBe66RSKVdBSqv9z3z7mTj//PO97X2Xo7ZSyLOX3LyjGft+d18c/f6jcewbjkXjVCNi6JHvZG2uFrvftjtG/nEkKu3Kw2HgMkPA3M1zcf/33h+VTmVztyQC7HCpTpVlCqCQ5wDsiGQ1V42558zF5DdPrn5y33p3/Flxr52vxZ4/3RMTfzSRB4DquWq+ja+7t5tPKzxiKqDaCxzX/Og1UTtTy48Qnv6s6XzNweLjFnv//H5DSPZ9Z190Nnb97a7Yfevu6Iw5LAhgp9U35wBshazgdyY6ceplp3pn7/fb+k9361mt3fd7+2L/r+yP4TuG80KfDurp7Orkf2+3uc5Z/ul7RztRO1GLxt83ovnuZux7w76Y+uKpeOBbHojlw8v9/Swrn9HJ75iMXX+zK2oP1HoPIAJgx7AGYCsu6nw1zr3oXMzfPH9ZxX/o1FA85tsfE0e++0gM/fNQXszzo3prl/kD1HpBId25V6erse/1++KGr7ohJt4x0f/6gLQe4LFL8eA3PJjvYgBAANgya82ZdDqd0kwNVFqVaB9px5l/f6b/tn9WlJt3NvP5/dTy7zQ7vTv9zbim9W7ejajfVY/rXnJdHPzVg72+Tz/vfLs3FbB001Jv2gGAvmrZhbpV5HUApZgCuLD4rwznAVQWKnH+88/nd8993f1nxb9xVyOuf8n1MfThod6jftNLXO1ldleuwRrJIv/KWo+hbHTzcHLohw/l3/fANz6w8XMH0iOG97Xi7FedjcMvP5yfHLi1/6tZmSPrxs5bfNiNHXGmBbBx8b+4bukADIq0SG+8G2e/+GzfVz+114/8wJEY+tBQb55/q2pDKkC1brSH23Hw1Qdj/B3jj9xJsMZrOvf552LpmC4AwE5Sim2AZZkCqC5VY/6T5mPhyQv9rbivR+z9/b2x6693RWd8m1bap55PK+KaV1wTQyeHNu4BZd/bOtiKmefPCAAAfdaxtaYABICdqh0x+2mz+bz7hnfytew/U7XY+z/3Rqe2vdvs0nTA0EeG4sAbDvT9CZh64VR0d3d7TxQEQAeAC1U18q1ys58829/3ZwFg9O9Ho/FPjU1b8Hc50nTDxB9MROOjjY2nApYj5p80HwtPWsi7HAAIAJtfR0v6IKC0wG75huVYevxS33fJ47eNX7076iyA1E/XY+/v7N34+QIr4WbmM2byKQEAyl/L3M5tZgDYt5yvmt/wSX/V3kOCGh9o5AvzrpZ0wNDYX45F7Wytr7MGZp47YxoAQAeAS++S249tr/+wnouuev1cPern61f1HUinFA5/bDhGbx/dOABkuWbxxsXebgAPCQIQADa9KJXkIQqr1sjrWn1f9er5aj6uZgfgQmEfe/dY77/X1xnV3jHD80+f7z1oCIBS1zHPAthE7fF2+X7o7M6/+d5mDD04FN3OBrsXGhFLn7C08ZoBAApPANjU2Fe+H7nT6ETjXxpx7N8ei25lgxdQ6T3lMB1VDIAAsHn1c61jbHfi8alFOe423c0vZx+Ej/X5Uaj2ni8AQLlrmQ7AVbntjvzkvzTSYsCrvg6g0lsQCMDgsAtgs++m+5EesnOgFcsHly2oA0AASMq8C6B2rtbni+y10RduWXCwDsAOU5Y6pgOwieonL2NGJfscTH3eVHQnHKwDgABQXpWI2t213imA/XT1szv/+ZvnY/oF01Gd9TYAIACUUmrpp7309QfrfR2re2EHwOR3TEbrca2oLngrABjgAFDW+f88ABwfykffV3U5YukxS3HiVSfyHQGVBQsCAXbETaE1AAMkq92V+crDx+r2ayli9jmzcfyXjkfrWCuq09VSHigEgA7A4KpFjL1jLH/S32Vd2RQCPmU27vrNu+L8V57PH7aTTtwTBAAYmABQ5m2A6Vjd5gebMfr3o5d/xFIWApaPLMe9P3Fv3Psr98bcp81FpVPJFwh6+h5AeXgY0CBK0wBzldj36/ti9lNne7sBLuf9Xur9HdOfMR3Tz52OsfeOxZ7f2xOj7xqN+ol6dNvZB2hUWwCAAQsAZegEtJvt2PXnu/KpgJnPmukV9ct6kQ8HgZlPmcnH8H3DMfru0Rh721g0726uHSoqUaqOyWqvvbuD5z3Sa9uRz7UAPq5OCQBXUOBL/TCgdNffiTj8qsOx8JSFaB1qXX4IuDgIpF+OLMXSlyzFuS85F0OnhqK9q53vIFjzzwGglm3AIsCtePMb3Rj+0HAcedmR3ta+oSv8C5dXwkBaJ3Boufc43u7q4SNfNzBXjeq8tQMAlCgAlHkR4MU6Y50Y+19jce3Lr+0d8jO8SX9xa427/Hb2n7F2nPipE3H6R07H7GfORutoK6qL1XwhYQoEnjsAoI5dYBHgFoeAid+aiNrpWpx89clYvma5dze/FZ+BNH9e6cb80+bzEd8cMXT/UAzfMRxjt49F8z3NaPy/RtRO9Y4p7A518wHAYBIAtiEE7PqLXfGYr31MTP7AZEx/+nTvC0tb9A+88PdWetMFy4eX825Auvtv3NuI5j82Y+yvxmL0b1Z2FlS7+ZRFmC0AEACuptIvAlwjBAx9ZCiOfvPRmPqqqXjgxQ/0ugHpKYBb1ZZPl+vihYJZgV88tpiPqS+YyncWjP/leEz83kQ0P9DMpxDytQWCAMCm1LHValmRWAS4XR+IZr4JLPa8YU889kWPjQO/dKD34KC0NmB4O36AeGghYRppZ8GZrz0Td/3OXXHvL98bc8+dy9cLVBYlAIBBIABs89VO3YD6yXoc/JGDcezLj8Whnz0UjTsbDweB7erJrOws6Na6Mf3Z03HPm+6Jkz990vMIAASAq3SnvAN2AGz4Goe60dmVBYG767H/v+/Pg8D133Z97P7T3VE/e1FXYGgbfpjOShDIrnE6Z+Cu370rpr5uKqpLthEC7ORaZhHg1fyADHfzETMRY38yFmNvHYvlY8t5Oz4dB7xw80JvrcAFrZWCvYVBoHWwFfe96r6Y/6T5OPSqQ1E5X+ktEgRgRxEAiqCW1d/RXmWvH6/H7jftjt2/sTta17di/ub5PBDMffJcLN2wFJ2RztZtJYx46Bjis195NpaOLcXR/3I0qier+RoGAASArbkj3glHAW9WVyDlgvtqMX73eIz/8Xh09nVi6bqlWHzmYkx+x2S09rTylftb80PEQ48oPv6rx+O6b70u6vfUe7sEANgRtcwiwCJ/iNJagdFOvl4g5iIa72/ExJsnovZgLe8aPEKasr+wfqC2Od2A+Zvm48RPn4j2vnZUlqwJANgpBICyqPW2EuZTAJXVv16frsfBXzoYY+8ci9p87eEwcCXvchYC5p4xF6deceqhBx0BUH4OAtopUnFuR+x54544cPxALD55MeaeM5dv8Zt/+vzDDxBafhR/d/Znzn/B+Rj5p5HY93P7ojMuBQBsVMeKfhCQRYA7LASkKYNuvRvDHx6Oxj818kCw+NTFmH7+dEy9cCqWr1u+/CDQ7YWL0y85HaPvGs2nIrojAhlAmZkC2KFBIG3dS2sHUhho3N6Ig684GMe+7Fgc+slDUX9g5ayBy5nST0cFT3Ti9Hee7sVG9R9AANhMO+VxwIUKA2ntwHgnag/UYv9P9g4eSocO5QcNXc5iweWImc+YidnPm+09XhiA0tYx/xYfpA9l2lWwuxP1u+px7UuvjUM/dSgqnUr/IWDls/vg1z3YmwKQyQBKq1RrAAa+E5DX3O76X98oaXZ7HYHU0k/dgNrZWpx8xcleMe9nbV+rtytg/inzMfLekc09G+DCz78Dk0X+qnSzYCDu/svCFMCABon0zrdH27H7jbtj/xv29x8FO73DiuY+c27rDiICKHkIMAVA4eNfZ7gT+39qf4y8b+SyHks886wZ0wAA5S4BDLTszj89/nf/L+yPSqvS386A9DiCY8uxfP2yJwYCCABXrpTt//SjtfocBT0/J50uuOudu6L5/mZ/jyBuZy9nbysflbYAAFDGeuYgoCst/umI3vHuxnfO6eY6naU/H5e3/36bYmBlphLjt43H/DPm+3vdWVDo7O+YAgAoKUcBX4FU0NORu6d+5lR0a9317/CHI8bePhYHf/hg7zz/osmCTOPvG5dV0NuPsQoQYL27/0t/XwDYSR2A7O558dhivsd+I0NHhwo7DdCtdqN+ph616Vq0d7X7W+HvkQAApWUR4BVevVQwU+HMw8DSOiPVy7FO8dr/F6xMUVQWKsX9GQHYuQGgTAsB0zn7tdO1/Ijdfopm+3A72gfbxd0/XwnFH2BA6pgOwBVevepUNYZO9LF0Pq2cP9KK1uFWb7ud+AiAf4WXWFbLG/c0+goA7bF2LH3iUnG3zl1mB6B6yscHQADYJGU8C6D5D82+v3f202aL+SI6kS/+a4+3+1vcl70dtcmaKQOAktYxt3BX+kbXujF853DUztU2fqpeVlhnP3U2WkdbhTtBLz0VsH1tO7qN7sYBIL3UmVrUZmv57gEAdAAGLwAMd2Po7qE8BGwYAFoRy0eWY+YFM1FdKNilz4r+wjMW+vveWu/uv36q3jv/AAAB4IqKaRmPAk675uYqMfZ3Y32+yIizX3M2WgdTGihO8e/u6sbsM/qfnmjc2ehNAThJAqCU9UwHYDNkdXD0r0Z7R/1udEWzor/4+MU49w3norZYK8aHYKEaC09biIUnL/QdSkb/76hjgAF0AAa7C5Aeqdv8YDNGPjDS3x1xO+LMt5yJuefORXXmKr8F3V4X49xXn8unMzYs6llmqc5WY/Rdo9r/ACWuY4UMAGWMUWkaYPdbdvf3/Wmh/WgnTv34qVi+aTmqc9Wrtpo+/bNTEDn/vPO9Jxb20e0YuX0kGh9u9BYMAlDK+mYKYLO6AI1OjL11LIbuGervkbpLvWcInHjdiVj6hKWoTm//W1FZrET7QDsmXz7Z3+r/lZCy+/d39443tgUQoLRK9TTAQk8FpNb4yWrs/Y29Mfm9k/39mayILty4EPe+4d645juviZG/G4nOrs7asay7cYLs9zqlM//TP+vkfzsZCzctPPS8gnVlwWb4I8Mx+hej0R5ub/4agO4lY0dF/4ffv1J2uYDLqmFleBqgDsBmdgGanZj47YlofKSRP/633xCwdMNS3Pume2Pqm6aiulyNyvwW3lpnn7+07qBzJCv+P38yZj5vpr/iv/Ij7fvlfb1nH1j9D1BqAsBmyopiKo4HfuJAr53e79XNCnC6Gz/1I6fixK+ciMWnLeYL7fIgsFmBsdOb768uVWP2hbNx/LeOx8xn91n8V+7+R98zGhN/MJGvXwCg9CWrWNabAihFFyArjmN/OhZ7bt0T577iXP8FttW7y575nJmY+9S5fEHh+K3j0by9mW8vTCvuu5XLuAbpycOtSu+5A2mf/1g35j5jLs593bmY/pzpXjjp92er9cLDgR/Pgk06K2jE/3AANqpjRZ8C0MjdbJXeY4IPvOpAvq9+4SkL/Rfa7ko3oNmJs//ubJz70nMx8t6RGH/HeIz87UgMfWwo7wys2RVI7f35av49nX2daF3XiuXrlmP+OfMx85yZ3j7/dPTAcvS34n/l9aQ/c+A1Bx5eowCADsB2paYyLZzqDnWjdqYWR777SBx/4/FoXdPqPwQk7d5Id/1zz5nLRyrswx8bzkNAa0+r9z2X3PGnnQinv/d0dOqd/HkD+eOHD11U6ZfjkX9uI0MRu9+8O/a+dm90RhR/gJ1Sy3QAtkgqlsMfHI6jLzkaJ15/oleIly73L4mH/kxnqBMLT1rIx6qFvNObfjj/Rec//s8vx6NfRzAcMfbnY3Ho5Yd60w9WjADsGP6VvpUhYFcnmn/XjKPfejTqk/X+dwasFwaWYt0pgIe+J43Woyz+lYeL/5H/fCRfjJi6GgAIAFtmtaMTO51e67lSKd/JM53xLAS8uxnXff110byj2QsBRX4ZqSe00vZ/qPgPK/4Afd0/rdSpVLccBUx0xjrR+EAjDwETfzLROylwuIA/6HBvEeGhVx2Ka77nmvywIMUfYGeyBmC7QsBoJ6qT1Tjy0iP5g3TO/KczsXzN8kML/q524U9G3z2ab/VLOw7WPZEQAAFgs+2EXQBrvrbh3uvY/T92x+hto3Huxedi6ounoj2xcqzu8jb+MKlLtfLMguE7h2Pvm/bmpximln+atgDgyuqYcwB4ROFNUwL1++px8PsOxsRvTMT5rz4f08+bjuXDKwlgq7oCFxX9FDjSI4x337o7xv9oPGqna3mXojui5Q+gA6ADsLXdgGwM//NwHPzeg7HndXvyk/pSEFj4pIVo77koAXRWAsHlXoLayrjo72l8tJG3+sfeNhbN9zajeq4a3WY3DyUA6ACwXR+URjcf9ZP1fGpg4jcnYvnxy7H41MWYe9ZcLD5hMZYfsxytva2H797X2tt/8R1+Jj1ieGhyKOofq8foB0aj+Z5mNP6lEbVTtTwYpIODFH4AHQCuZhAY6vb22mf/GbpzKIY/PBzjvzuet+Rb17fy0//S0b6tJ7TizFef6XUILp4mqGb/WajGnt/YE81/zO7sj1ejPl2P+ql61CZrDwWEdKCQog+Ao4CLprLSFbhwi5/9ku7g6+16VP62Et193Zh6wVS0968SAOaqsff1e2Poo0O9KYZab3h6H4BapgNQxkCwshc/7xKkRXqVtb83HUGcL+azfx+AMgWAMiycAICy17J62S7mQIeBbn8foNJep5XX143uDnzruj7DMKCFv6ic9QYAA8gUAAAMYC3TAQCAASQAAMAAchRw2aRtgRfO67/kkcLrbhEEYFvrmF0AbGrxj1ZE893NqB2t5f/9Iel03/O1qCxUyt3XqcaOPMMgf036bYAAcPmpSQegV+Qrs5U4/B2Ho9KtrBoQOs1OdOvlvFbpoKP0lMR9v7gvKp2d1croVnuvLT/uGRjYDoCTALmiLkBq9e/EvfLptVXmK9H458bO/JfCkCkaQAcA1g44jjEGGLwAYAoAgDIryyJAy5IAQAeguB0AAChbF0AHAAAQAACAq8siQADYgjpmCgAAKBwBAAAGUKmOAjYVAECRrVevilbDdAAAQAegOOmpyKkJAPrpAlz6+0WiAwAAA0gAAIABZAoAALagjpkCAAB0AB5tBwAAytYF0AEAAAQAAODqKtVJgABQdE4CBAB0AC43OekAALDTOgBFogMAAANIAACAAVS4KYBOp2MKAIDSWmsKINU3HQAAQAdgo7t9d/8AlLELUORapgMAADoAxU9TugEAlOnOXwC4giKv6ANQ9iDgJEAAQAAAALafo4ABYAvqmF0AAIAOgA4AADoAOgAAgAAAAGwHUwAAsAV1zBQAAKADsBNSEwD0U882+j0dAABAAAAAtlYpFgF2Op389yqVincMgMJKdSrVqwt169L6pgMAAOgAbNQBsA0QgLKwDRAA0AHYqu4AABSpTgkAm1jkFX4AynazagoAANABeLSpSQcAgLJ3AJwECAAIAADA9irNIkAAKAuLAAGAQhIAAGAAOQcAALagjpkCAAB0AHQAANAB0AEAAAQAAGA7OAoYAAawlukAAIAOQHGS06W/BwBl6wIUuZbpAADAABIAAGAAleocAIsBASiy9eqVKQAAQAAAALafo4ABYAvqmCkAAEAH4NGmJh0AAMreAXASIAAgAAAA28siQADYgjpmESAAUDgCAAAMIE8DBIABrGU6AACgA1Dc1KQLAECZ7v51AB7FhQOAnRgMBAAA4KpyFDAADGAt0wEAAB2AcqQqAChqnRIANrHIK/wAlO1m1S4AAEAHQAcAAB0AHQAAQAAAALaDhwEBwADWMh0AABhAAgAADCBHAQPAANYyHQAA0AEoTnLSAQBgp3UAikQHAAAGkAAAAAPIFAAAbEEdMwUAABSOAAAAA8hRwAAwgLVMBwAABpAAAAADqFRHAdsNAECRrVevHAUMAAgAAMD2cxAQAGxBHbMLAADQAbiSDkClUvGOAVBYqU7pAAAAhSUAAMAAsggQALagjpkC2KSLCQBlCgFFZwoAAAZQaY4CBoAydQAcBQwAFI4AAAADyC4AANiCOmYXAABQOAIAAAwgUwAAsAV1zBQAAFA4AgAADCBTAACwBXWs6FMA9TJeVAAoap0qC1MAADCASvMsAHf+AJSlC+BZAABAIQkAADCASrMLAADKwkFAAEAhCQAAMIAcBAQAW1DHTAEAAIUjAADAADIFAABbUMdMAQAAhSMAAMAA8iwAABjAWqYDAAADSAAAAAEAABgEhdsG2Ol0PAwIgFJbbb4/1TcdAABAAAAAtpeTAAFgC+pY0aez62W8qABQ1DpVFqYAAGAAmQIAgC2oYx4GBAAUjgAAAAPIw4AAYABrmQ4AAAwgAQAABAAAYBDYBggAW1DHbAMEAApHAACAAVSaKQAAKAtTAABAIQkAACAAAACDwDZAANiCOmYNAABQOAIAAAwgTwMEgAGsZToAADCABAAAEAAAgEFgGyAAbEEdsw0QANAB2OzuAAAUqU6VhQ4AAOgAFPMu350/AGXqAlgDAAAUkgAAAAIAADAISrMGAADKwhoAAKCQBAAAEAAAgEFQqDUAZXmGMgCUvZbpAADAABIAAEAAAAAGgWcBAMAW1DHnAAAAhSMAAIAAAAAMAmsAAGAL6pg1AABA4QgAACAAAAACAACwI5ViEWCn08l/rVQq3jEACutCnUp1yyJAAKBwBAAAEAAAgEFQqDUA6x2e4CAgAMqgLLVMBwAABlDRAoDbfAB2ssLUuaIFgOU1f9Bq1TZAAAot1alUrx5NndtuRTsHYDobS9kYvvQLtVotH+12WxAAoHi39t3uQ7VqDam+zegArO7+7AJOXryAIo10oMLw8HA+LAYEoKgBYGhoKB8XDgK6ZJzJvu0BAWAV2QV7IBunVvn9aDabsXfvXgEAgMIGgFSnRkZGHjrB9pJadmK1GicAZB772Md2brjhhtuXlx85RZLa/tdee61PGACFdfTo0VWnqVNdS/Ut1TkBYBWjo6PxhCc84W1rJKc4cOBA7NmzJ18HAABFkepSqk+pTq1Vw7L69uepzgkAa3j2s599W3ah7rv09y/Mrdx4440WAQJQKKkupfqU6tRqU9VZXbs/q2//u0g/c+ECwNGjR88cO3bsj5eWlh6xgKLVauXTANdff32sNk0AANst1aMjR47k9SnVqUtrV6pnWV17S1bfJgWAdaT2yOMf//jXL69R4dPFfOITnxj79u3LLzQAXC2pDqV69OQnP3nNReqpnmV17bVFav8XMgAkz3/+82/ftWvX76w1j5J2BDzjGc+I3bt3CwEAXLXin+pQqkfrrPyPVM9SXSvaz1/IAJDaKN/4jd/4w7Ozs2dX+3pabJFd0Ljlllvy5JWaBbYHArAdUr1JdSfVn1SHUj1aa3F6qmOpnhVxF1thHwb0zGc+885nP/vZ37+4uBhrhYCUuJ71rGfFTTfdlJ+8lNLYagkMAK5Uqi+pzqR6k+pOqj+pDq1V/FP9yurYy1M9K+LrqRT5zvn++++PH/zBH/z1paWlr1nrbOW08jK9GefOnYu77747JicnY25uzicVgE2V5vAPHTqUzqx5aEv6WjU0hYWsbv3WK1/5yq85fPhwIe9M60W+2NlFS/smv+32228/1mg0nrva91w4Knh8fDxuvvnmWFhYiNOnT8fU1FSevi6syASAy7pDzm4w6/V6ZPUnn+s/ePBgvgbtwhTAerIb1//z0pe+9FuLWvwLHwBWUlR6QNCXZ+MPs/Gsdb4v/zW9UWmbYBoAsFlS4e/zILp3p7p16NCh6SK/nnpJrns6O/kLsvHr2Xj+BoHBpxSAq+Vt2fjabDxQ9F1q1RJd1PQEpS/Jxk+mOu8zBkCBdFbq05dEgZ74t1MCQLKQje9e6Qa8z+cNgAJ430pd+u6VOlUKhZ8CuPg4xYv8WTbSmcpfn42XZONJPn8AbLM7svHabLwxGzOr1S4BYGuki/3z2fi1bHxWNr4yG8/JxmN9JgHYIndn413Z+O1svCMbs2V9IYUPAOkhCmlr3zrSxf/jlXEwG0/Mxs0rvx7NxkTJgw4AV0daxXc+Gyey8c/Z+ODKr6c3+oOpbhV9UXql6C2Ke+65Jx2l6BHAAJRGqq3pwKCiPQCoVAEAANh8VZcAAAQAAEAAAAAEAABAAAAABAAAQAAAAAQAAEAAAAAEAABAAAAABAAAQAAAAAQAAEAAAAAEAABAAAAABAAAEAAAAAEAABAAAAABAAAQAAAAAQAAEAAAAAEAABAAAAABAAAQAAAAAQAAEAAAAAEAABAAAAABAAAQAABAAAAABAAAQAAAAAQAAEAAAAAEAABAAAAABAAAQAAAAAQAAEAAAAAEAABAAAAABAAAQAAAAAQAAEAAAAABAAAQAAAAAQAAEAAAAAEAABAAAAABAAAonv8vwADUO7uUAABtvAAAAABJRU5ErkJggg==;" parent="1" vertex="1">
          <mxGeometry x="-160" y="390" width="40" height="40" as="geometry" />
        </mxCell>
        <mxCell id="u8F_S0l8aTNUOHP5Od4l-54" value="" style="shape=image;verticalLabelPosition=bottom;labelBackgroundColor=default;verticalAlign=top;aspect=fixed;imageAspect=0;image=data:image/png,iVBORw0KGgoAAAANSUhEUgAAAQAAAAEACAYAAABccqhmAAAACXBIWXMAAAsSAAALEgHS3X78AAAgAElEQVR4nO19C9htU9X/2O9+zzmO+6ULUUrI5etTqJSiXCKUCEWRikMlukgKkUtCd8otSRS5JPVFNwmhlCRKSu73eyeHc97LWt8z/88Y/+f3H/+59l5rzrnWmmu/czzPet73vGfvueZljN8cc8xxIUo0U6k35KnzveOWd5h/r0RE2xDRgUT0LSK6nIhuI6LHiGghEeX8TBPRIiJawP93LxH9nYiuJ6JfEtEPiOgbRHQEEX2QiHYkotcR0SpEtNiQ/o0TUb/mOUjUMJnFHOOF7fMi49Mv+D/8+1gDwlHXmG0C59KetIXzUYakH5pWJKJdiOhrRPRHInoahNz2ZPwM+syg7z5DRPcQ0ZVEdCYRfYaI3kFEaw8ABln/rqz7jCVheGHQpt6JQtEmk0hfho3d9HVxIlqWiF5IRC8lorVYCNYkolV5J16GiOYS0ayS78Y5GNSXlxHRR4joUiL6d4GgTvIzxbu9FvxMPdPwTMH3J/jn9BBwmGBg+CkRHcMawwsHzHECgwhImM4IfRGZ/1+amXxjItqOiHYnov2I6GAiOoqIjiOiLxLRl4noeCL6PBEdRkQfJaK9iOidRLQtq5CGeVcgojkl+ifAUGWnrEpFO6uh5xLR63kMRxPROaxS30xED7DwPcOq9SJ+FvLfzE78FBHdR0R/JaKriOiHrFYfwnP4BiJ6QQmAMH1cn4gOJaJr+T0ofNMsgFNKqH12fP19DRYCEhMDwMEcL35HRCcw35h1R0pg0AIVMXyPmXELItqfVcofE9EtRPQ4M7ar6ohMZZh3PhHdycx8IQPH/swkZhddYkD/Q6iTwniaXkJEexDRSUT0+4LdNfSzgM/eFxPRkUS0E2sQyzNoGmC9yTL3skPbBLTuPtsAJmMgGAQKjzEI7sNzXYYvEwUg2+T2eDc2u9tpRHRDifOjLDii/6BHq6BlmMt87yHeMU9mTeONRPScAWMrez63zQPurM8W9GnKMh5Uqwc9Wq2WuZkaAgpPWf4u7w+xw9cFDLka/1QBIJgx/oz5z9gxkJJWEIj0RBpVc1Mi+gIR3WhRJWXx9NlvELPrBR+kOg5SI2U3K2Kup1hITySiPfnMPWuAkPfU3/CYsxIfT661vHOqQJ3GcYXcNQftnDbV3qcPbQPCNGgu+LkniOhsInqzWrcEBI6kd7n/5jPs3yyLVMTwTewug1RJ3HVtfTD/9w8i+i4R7UtE67AmoAkFfz0iOoUZLqaddRhodkno8wprLfOOn7uRj4Oo8SUgcBD8HltiL1OTnHVElRykTtrU50kGOHNseBcRrQxz8QoiOld9r2gO2h77THgyNeeiGaD28xBrqi9W/J2AwEJoJe+xhflPFgGZ7jDDZxVUypztGZeyajlZMA+63fS0t66Zsi/J//+Hj32rAb8nY2HBZLydnUFk8mQyuyr0ZRgHf8czs/48HiWS0HdHK8gB0M114vMKeH/GEZ5tjfPJJQXq7UxheBsgIADOlHkYxbWchP97hIg+AfaeOn1EoiVEvo/B9dXUDBT89IzukwH/inYn/2d8I7YqkImRpnG4yvo5TEja6dJT5qlyVRsLP2UKCFAjOAuOBSOvDYjabxxjHuQJQOtp2wuVnu48RXyir2FtDl1tgEOm3iP9kRsD424+stoARtC9HyYBVaIk/Okp8yCfGH+IR5mPFpUI+ME2xHFpquB2qS5e1O9BGfgOES3FcmLzCem88H8GBjvVsuDPBOeVMmOdHvDEODfSZ/P7H4jotRy1uC4RvZqINuPw3r2Z30xMyAXsNfmAyimQq3YnG7xuxvbF9mV+/yePaWSOBDKAoywLWIfwF50Ri0JFy8QDDPOhr2ssocaPrrpTHu3aYgramgPhoUc5AKkMLc738VtxOPLJRHS1xbNSxlK3G3ORNpBx/4QGRbtGTdLxI2DRQgv/MIafrpkJMTim6IxZtzDo98n4Bwn7InZSeZgjG83Ocytn37mL/z6fb2iGzSHOdd2AoHdO+ftpEFsxp2KOhuU5xuSTHO33QMEYi+IrQo4JDYRngAx1zi4gHT6gQPhDTFhWkuEnGOWNq+2vieh8ZpgTGJwOUc/hnCPgRD6XXUREV3Ac/cMsFFkJYKjba08LG6qSOHYj1OfxWHdnZpe8BotzJpzZLECz+d/m78tx2OuGnKbLRL59ji3X13F4rG08kzWPXVvVZczXQ5juuEfSmKWIaHPOC3GDAsCsprHpMQkQ/JbzOgwaU3QkHd1BCYWv8OsJt2V6eZbvWI3gHsTehevyOXFWgHEtwfHu5py2M7/jVAaW+woiFPOaBV8HHD3OIDeP8xP4jruIluFz9z4MqLda1qMub84i9flxFt4qqnNvSFi2icX4LAf6aKAL6bdSNKY7OFisEyAgqLoOx0wLE/gsfBE6ynM3EX2biN7DmX/GKubKK3qq5r2by16N72AtwqiT/4J5CMkgMq/47yv5luV5BWPWYxo2LvmMhCNjhiMbjXPk5od47I9bBKbOnRP5Yh81jlA5KDZhwH9UrUNdQCAg8CRntJJ5jpJ6cAa7SS2Ky6TYdjr0rf4eZ+FZ0tIXVPNCJ/LUADI25LO/KBDYUCB4MTOmfm/d0We4c9rm4Pmcoegnyvpep8DgEciEkIcwpI1ZwOD57MV6q2VcRYDtC2wGDLaOGQRkkr6h0MtV+HHnkN8f5tRTRg0flkijDRLBkwyz+4HQhmQG81zD53mktuegSJVeg9Xof9YEBBog5ShyuupbiPH14d+zWPO8QfFrCGO3bd3Nv98aIwjIpLxFMXzVCSja9RexYU4MIjHnYZM+vUoxZR5wLj4+IGNQLGTTQuayVvCHgp0zlMDgfBl7iFCoeepZeG83TqCKQOALbkXajcm3GA0I9GBx/6E6mwUY7BVsyBMKkeO+LurBzmA7Brkys8zH78AgRJECYFmBeQdb7kMKTF5gSLsE1iY0WPbh99mcru1Ryy1FSBCY5gS4UYCATMCRFtXfV/gPVe+JVfD1XBxnmYvMUZ2V342lnWJZdA/SQPBeIrpdAYFtLnxBwNgihMZqHteKfI8fCtxs8vEs38LY5rQxkolcDbLy2go5lB2cLP4CNvDp98RM0seNLGOrCoYyj/I3U8Oga7v+MMJxLMHeohMBz9E2EDA+HUK9msaF4Pxm0Ip9HeFscvIgpI8ba3MRT1cd8xH+J9j5pKs73XWOc1Ek/HKl1aWyZK5A8F985NPaQEgQMI5MQr0GjjyLs9txiDHZrgjNLVMrJIizjofFX6s1T7HjBdXowFIHyWLvG0D4cQ73Ve2PKmkbwceBpyYCqM/yU9bFFHNpYtfEMe0M9RL0mHw1gb0t76ud5GWneOz+uNtlcK3VJeGXXcS4zt5vGVOVRUWDn3FLngnCPygN+k2W+HlfEJD5/URD84vg9lK4MvSxC2jZuQtCiRvREuUlL4QSVC7nflwQU8a5i2q/LO7nlWrmcwyS++tRVPnL0DhsBGhM87Go2wyrO6n3NTWmc6EvrsCmeeYjTW4Y8pJPKzTLHDtvCld2xdg3DAinPefiOkv7M5GQkcWhCufJBwQESBZyeTX9vibGJBsG7uQum6iM5c9N88s4OD5Meagv90Hl1a4BgCzoly3M6TIXT0EO+Zmk+g9zNxaLuoCsj81JA+6dHBLcFP/hO/b31G70LdOmTYyjDwviuuMhcpl74C6q/oN2/6qLJ3NhvOS6OBd10zjcEtwdEAQm+KepQNUWsO3pAQLyOQEzU4259s1DOn4qIGmVDuNATUaWrpJM8jGeu798z5Qa76IW1DQIrAyaZ0gQOKoFzUve9R7om4vbuMjTjU0dA0wE3j0eu54Mchs1EV23/Puo/i/iNhMADAeB5cCa7nsFncHvW7cIAh8IAGaLOPCK6gIC6exWiuld0MpkO+kqyTx8yEELsu3+B3J7SfUvP/fLBASBKfCsM6G+TQOxjOlw6E9VfpLNZFfVZi0d/SJMvOvZf4+O7v5If/Awgsp3/toxv4cYqA+awM2BQGCCf5pkJtSwRV3etRTUzKiqUUr/ze1C7ZuJFPGsmmVWUOpecFzoGsnOsJmjFqSBsFbEHmHqQ5Wpu5RG5WpJn+S/zVPvaJKvzlJjKftMqniH4AAmDa4G9fyqTrR00iQN6SrTy0KdEcAIajSIRO4ku9xanDYL59bHs24+JBgda3gs8xRfle0/GgJrVf93hYl2va/cvKMAICD4HBXz7br7v6uj8xATjUPJOS3IPp51P274KIDRpJlD/7FWgi1NnjcJk37J8fwvHbyHwz+7SDIHuysQdDGCmrNrEvywICCl53Ty0aqb1BT/zawzNbROuLnM9wAwo52/WLUZlH7loAEgsp7V4esumdCL1JiqMFgrvtszgPQG5WoPyGGzup8NjU1qArMhd2KVwjZ4vNywLhlb0sNKOalCXLt25SUM8FxIeV11DmRBH2Gkx3YT+VHPskn5hGVP8E9TX7BpoL5GaYtVNhjz+5tCA4BM7ss9J3UK4v27pgH0Ia4bhd8FBL+p2kwUhsbgZuAhJUSu9qqMiDZQ7ddNl3kCwHah+asPiRx9dr57OXloF0nm4JuwQ7gy1cYdBcEukGiW21jm3tVR66cNaWu+R0yRM7NJBQUAmdRPOjL/VEtBF3VGQFbN9S9zYLzXEjWbnNUnM/N0XbvqAAA43xMA3hm6r9LQSQAAZTuGn/9yR1XfHkSjuRqX5HumQEYX56CL69WHmn4uR4FcFR9tqt8/8ASA2q6XL4GOuTC/SezQRQOg9HdvYIqq6r/8uzYLbaL/h4T5X20J/InVb6PHP3/kCQA71dHPHhRycBWAbTvK/NLfb3kujCnVnfz+20vX5hqyPQVZd5rg3Z+r91aVs7fWAQCLQTIGl/vJSU702EUAkD7/BcafORyBToW2EjVbteo2JVSZoxZgSoDVfYTzvQY0cSrB+Axj3zEBaFUAeBpCLbt09y19XdUjBkIW8t3cVjr/N0cy129T4J1FaguYDVWHXTbaaa5LGRwAdBBQ2Y6hV9XcDjPQDg67PzLaQk4L3TUA7Dr1wIZzmWOkXaaA/O01AvkSKs6kKgAYPlsdxu5NgiKvdIy0kkHc0kHjH0GfD/eMgfhLAcNIfrg+v2ucf8cH/57Ao3yZck2rqPyNeUXhEuD4JbcXci16kPLsGQc5k8/OhySnQQFgY8vLyjwCGuZc00WSSbzQcfeQzxsDIrERMFSFY9NOsicMLhe/OFev2oFrT7j42eeWG4SN4L2h+m/oNY7RjFgkxNjrgpF0bAuLWlsFAH5G3aVxdS5zuQLdv6Bd47b6OiLahQOEjKZxAvugm+d4IjqM049tz74ItmjKmaod9C0Cb3zhjyCiS/noqUG7qvDnlmCuMwMDgIxjJ0c+Ezm7NlB//r+ObecIADJhxoega4Rq2QIPtSzjHWM251M0Zb8uYFB52mE+H2D31EO43d4MBAIt+JtyEc67BuyQuupw7ggCkshVKvOG0uYMfQzW2WWjOT9gn7zjABAALgjdsQZI0H1LR/DDbK1XcBRgPoRBJwoeZF79mPvpTwFDjvJNw5jy9DO5JX9vmXecM1uATxZAC/hgwLmO1tvWRzVBADD10LoGAOOqgksVVNYgUIY5i5hU/7+Ahe7Pk5ywVa5bacRsBMjUO0DxUNwF9TWfi6DnJXnaHDFC8zQ6AbloAKayMoU0uIcCgPM6CAC+qIxMKBVufXci2/en1Dn3EdidcBxdJhnDypy5F/kLMzO57u65w/w/DfUcQvC1OSLe4SBneNu0vZqv2uLgqwKACXDoGgDY4rPrZC4fZhQmQJAyO9SKPIYuXsEKvwjPGBfXx2AtcD3qFvzcArpY2q4fyNdmIbynSp9yXvt1VJveJAPb0RMALuwoAOgUTTEBQBEYyBEhZyv4Rh3VBJBXDoSxTrQg+Ll6BGjNLY0vwMq6bO+5+z9SR0JQ6dy2jhMuSPk/1E3me4HjDUDbIIBMOgGBWP0OroEE8+DO25bg5+rMfbbqqwsJeBwC6+VyBViLr40YkTb3BACTp61L5OsAFQsQoG2gS7UYZf4/C3yEV3htrkVmSR/uQwIe51nWrMwjnz9NzR3F5Al4XcfUfxGS3Tqg/pcFgQmOj8fxxUjSt/fC3Mci/Lni62tbPmoiGB1Qh71HAOAVjqmVZOH+wYPsCskkfhqEJwbG8wWB+4joeRFfEYrwrw999nHeqeuZ5p93EtEcj/HKpri2Y31DW8GdoOvag0AKnyCFJ1vIsR6CEU8GAGib6XxBYELZY2Jdh1ns3ITAFZPw59AfE1y0rMd8FhWbqbq2/4Ebn1rWdUnPMMUJ9mOvrYM1EaZnyjoOAnV5sYUi6csRCrBCqP1FTlW5hz9GziHy5vrOFwC+rsZctg+N5SzsAyrPlJRg41B+um4bwCDPvxBCgFeEORc3MYFIsQCy8MTqcOtSNXnHIIFHV2sN5pnnfL7ak697nC26qmwhYDRScPcnjgCgI+K64pRitJ4nlODU+eh7fIwNQE9CV0DQRwHj4RiLFiB9OEX10dVTEoW+qI1pNZ8u7zG/b+0IACEqbosGsFedsiWL8w21OFVRqo0ySz60lGMaNF/hH/Q58YDT36sqHDkz3ZoRaGUiCC/ms6wLwGltSV+l3ccRqZ/n0OrNiOgczxgP30Ic8vn3eGrWU3Xn2xRU+bjDhCFKSYWVrtASEMFXtwaADHU9I/oBfAvxNc5CIzUJ9RpU3TXk++bnVyIA5b5yhJGxuQgDrtOjPHebFuRQuBoEyGW95HvvV+MoSyKspzqe/2Wst3veRAwlGdjbYZIzh47eUXdHA5Pp678aAoC8oHgo0nM5/PUGy9xW3S3le6aG3goR2AJ6EN3nmg0Xv3cCz5d+h1xFv15930UDCHH/PhsyFru62Z9dtxZXVBmnymQ1Uru8husoLAVWp/DrnflK6IONsSRHIfat6o4pAvO+FrUAYdpXFQh12XmTsTwB9+EyJhSMvqXGQ+a4XrJjGy2tKgBInzb00OSEVz7k8H5no9jDDmiFA3uLmoCYyTDLnyy7S1MgYFRiXFjMcGvoA5b5ddlBfgLtN00ynk85CKRW+58Bi/wsy3jQ6LbAQeiKAOBwNRaXeptVx41jb7TexlUgEC5odaCagJjJMMzvWgAAnNetLfOFQHCkEmYXJnqybieSIXNs6GI1jipjkLWZx23NKmnMnvS8XhUAMIZFV552rQIkoPf3pqpNCbqc7rBQeY3JFOumKxsEABRged+/IcZbg4AQlmwrCwJ4VZZzyre2jgFz2KXWp+qySQs2iITf1gsUUZgBAJgsTFXmDr1rXW895N2nqPHVRsJ8n1DoWXayZNL/2JHzv9AvHRFaL6qLzURA825mFg0COlTbperNBBjNsM0mSPjgpSoRRh334D21npMO61IkhF+qOHc62AkzGsVWsPT/kiDMVo4LlcGOJtbZLgDBpQEAoCoI4HcmIZjK5CYoYvI/OvQTP385NU++KecxNdcqA3hK5ms/mNMsgG/HhONVqoz7e2qNq/LGfOCJ2mUJ1RYXA0ptxQtrJiyJXoU5cF5cQlnxsxNwjfpSxdR9FbVYVTOTvj3Mjk9NUtFOWLbvZdT/Pqj+CwNHF044AoChZTi9u8+xpw3Q/j+M9zeHjqMh8GPQ1ihWBMJ04A96MJ1NEzA+Aq/lvknpMGLrtw18yvZ1mq+kmgRmXwczmZOzCvot/16ajWU4j5mn8LseAXSdDZdjm4zhIDWPjQnFDxyEAj//nQ5oAD5ZWnAxD2RPrZAgMMkOQUhLcP4/ZKqy7bflD+BTdxEF8DjVnuYt27k/8xT+zJIXsAoAfLNr1384wZ9xWDBUN2+KXPgJ+ne2IwCIUG0Hpal1+moXEMAz/tfUPLpeKbkwckh++ryjK+xEgb8Ezsn5qu0Qwp+r9x+r3j+MFlMepi7q/5/bsKH5JAjFzz4TOJ96HSRM9G1PABDr9LmejKjRH+MGTLYm4p1Q3uGiUopDUFMkAvMFx37bPPEQvFBTdbmNyUu+/3NqPMN46k1qTV3GfFwb17YhDIHCuDu0MYAKJIt1micA7MvtLFtwDnUFARTcKQaaPQEgXNbknw2nbROBOVqBo6sn3lzwWP15jcKfq/d/Ro2niITXj7f0rezaR2FI73O9exdmk0k7KnJDoE8ItM1PW1uiqzjtDAICBKY7HePo5bMLAhe8rPNIabPCS7zK3wrqB4QS/lyt8SfUeIbx1S0gO1XehyXATRXkVkgQ50wLA5Z5plRdtVjJN1WTzIsp+U1Qs11KrCED+ILAtEeOAP15o542tbOIwHwEeMnl6CJG5XmQtxLXK7Tw5+r9+6nx2Ejm83Vq/VzGe6pqs1HyXTRh+gdbuHduAwCQOfrq2kuXtvIBAZlbl/bwyPIBNf4m5vhdAGRV+i289Ccw9glP6vmpAwCm+Pe9S8yZ/N+xjnKDsvO2Eu+rjTSSuTCb/L6xanPUAQDHekwgEAjFzG0czWQuNvMQWPx8k/UDMof6gHh0dg3+eYCdiFqnpT1Cg2srZRyQZDFP9ASAD1tCeoW+AszQduEL6e93GwTlHiQCXWQR6LLCL8KYNTiHGazZMH98mcuN1PezyNdnKLncO3elZPiYSlLpeguwj4U5cLxfiqD6Dfb3CmqeluDMRC6biZ6vpuYtq5ATsK/8HVzU/8aDfwaRvPwoT4egO8E4FisAnOEJAEX54hAEpP4dgmnTINDWVaAtP19bR6HccY3fXUIoxx2zS6G8PBZLIF0f6rXLgKoimnzvlTGpNEDSn+96AoCp+FLEHD1YyH0bNmLZ+izRmstD/5r2t+hKBabMUmRlfMD4NlFrmnlozK3LijDGihySWJVZbffk4yMWDCSovUuJ3UEWdGuYz4kWzrQ5n8XXUnNQJ8m6HwDz3AToZQUCmQXOCSjr/uUA6v+uqs0o6BpPO0BRJFfX8wFkEAtQZtGEeV6mKjA1adWW381u1dSajKksvVWEMITwT3u8t2wylTmq8m+Vfk5DivPnxGQz6ysjlqsdIPaqwVd4AkAVl00BgdkQgyBgWbc2gGuyY4M7jTDzMqoGQ11jtAn/k46ZlYdZ5vsqiY5LqTN5x/cL3tEayeB2cVg0nISpiIuGjqmabVUYTX5uBG2VIRQ6Yz94ChihTm3AFsDUb0nbqupdWpXn8MblNIihqHqMlfn6WQVDsqv6/87Y1H8R1lVV2XCXCZwXqR1gjiWWvwoATEBCzyrg1gPmWY0ZLK/ZNoBn2oMbXg95z6EOglJlPTS4HM/vfYPjfE5BeHvRLc/yHlecmK2pScNsZcJ8dNkIJQhZwrMkum9wDQrg3lCotC7HFwGAoy3vb8MOkAVW+SdgXXaF96/r6IiElZx06TEBhN2UbLgcMWKVD2932cZqm3nccmDYc1UAeJI9Jn1oDPqzMjMD7kBTgYQGBaSteoFzPdKDDxJ83PWvY0MrAtxyjkVgseKV0YQJ1qrnkVMyU/JhrtujUv9JdejdCuVcFmn9iFBOFu/ljuG1GLYZytEJF/+NRHQtvG8ygEaAgnJyC2vhk4KtCAARIKfY4co2n7M9rPTy87UWwPapQITOcrbCplFQiLzuIQoshqYxEDS92GUerIEQUojQNiDAe2tAIJC1+LaahyZoXDlE+abuRkG+HPLnFY3rSli7zPPmRMDlIMexoFx8HdqNlnrKWu7CdBdAW12/4RhmHQ7VP+Kj076QbUgLvstanNPCWsi7XqBsHS4quQjlbXwGt83boES3WYCgL/K4QcJxm9LmsWjGVpJJ/aqnP8D9nMopBvLxTssaFCQNBPPA39xl99R3zk2DsTD5OQ7zruf+YnUeH6vAv3mF98nnTY1GAluWT/lxAYy/xL7zE3RwZ0DfqnaArIVsNFWTVVYRJNeaca6k2z/WUxszCUzbAAAZx/aKl1yPXyL4vQrViScc50yy9EihzpMViJVpUz4nbR6m5iVKQgu1S6FDW3bVfoQpwbOac8WFoDkKjKc6dARAWpyrIAkIVAFfPIKVSTzb96xOJHP2I2jzOR65MtCHZO1INkSnkM4qiyafN6XHY6LfODKFMO1uDQNaH3wGfACgzXvnvkqWUnUHxXFcVgLIxvjnNg6bF/Luby3z72LIlL7/okTfoyGd8KCqHQCLPL4wkoHrktVVdqC8JQNOURHMLiWd1Nlzqp6h9eeHlTsbg9JqLkla5Tt/h5iWqxQ4VOn3sDwSUZJ08s0ei1YluUJTTkBPOzCEfNZci75EtdkUABzsCMRyFDMGsRiY77cegiRgdsaQsfT454vZoccVAB7nttb3kAH0LIwi8UdVWsbR7zm3LFhb5x5576s8d4QHW8jd7mO8jKlmg68qjZ9dABWVBwnT0uy5iWtYFfDncrm2qn3WoHV6187+OLkXKYGuin53QoWXNqjIEl12LFiyuq1rtNMVE1YFAFPQtE0AkHlbwSOQBgWqzG3MYp5Hvv9wluv7PPqbtZCPIZp6AbFMgDDJnp6GNAOEbalw6H/ucgyL4fyp7+ddtABUz1cash59lYilKgA8DrdGmef1ZSdpDPznXRJbImIf2SIDCpB91EGI8pb96eV9f3Rk5CgKT8A4iHNFuORIzBx46moPAJj0SG2O/fxYiX5GTabjNzve4crEm0CXtsjHkCafL6pZ3wQtoe6gqzKy+c5rIlFB5f0XK3B10QIeLpFS62cOAKD7I7+72Cv+zYV3B/UxatJ3uK7XgcagskZLEyECe4gnADQdUy/ztLZngdBnImJCfbtU1TNQ+wVIFeGi5B0Xq89XeQf2y9X4F3t+zKEkE7utx4INCq6gDlWsPbbh/svc76DmvupOeW/LRtiyyWdDXq/1LAFBeQNP5wJ/ytKyAa4D/6dlDeBj0B8XADAlxZo8y/n6AIhgmXNwTKQLiLpk1kG+OmpApabvNQwA+tZoJEgm83yPTCg5J8McZrmtg4Qx5imGiz2gxjehhnzelH2PcRcyAHdLAC3gSVyCDd8AABkCSURBVEuath7//H6DAKDVfxPS3Wnj3zABqnImkgV+j2qzyf7v6OkH0MZOqjPbZB1ICNqUYxAK9pdVuz3+eW7DACCg9BD7PGBfOkuYJQhdK32i0prcjXwLVaAn4JINz/m6HldmMV0BDnLW+YcCWl/vwDFo3yV/X4jdXwPSyBBG07kio0nY2IYqvaqjb3gbdQ9lt/4gMLCLYDzLPvE4D7GQCMeHA2kBp6l2Df3KgV99AECnjo/t2OVMfZVkwYUhBQR2Um02udvcDcLscpOxb0Pq9JjH+R/n+pYO7EKLW2o1uIDdFOQJlCKt1zUAAHr3v2jUhB8Hs55jNZtY7kZ/AQzhcoT5QYN9D3HzEqsBcJAWUBUA8HsXQtsmk8/fFLDUCQDyji3V2EaKDKr+yQFVM3WWNszdJMlifNEzz+EjDRh3fNNoodF1nwgNgHXZAqb53ybzs0QDunhQVhX+kbz6K5MkxOcYUCa1U2z1DmSRd6+577Jbf9vz/D/RcFlwV5J5/IAar6sWcAW3t5JjEZiqAIC8sYca00iRMObGavAhq6/WRSIAL/G4yZBF/pVqs45+Lu+Ygw77eWPkgq+pzzX5cAyuIL0NZ6Jyyf9Q9ZmClOUxVcOqjcYhVbVrbfQmVOkiul4tXBUGE0YyIFgHgMnOsQf0MXO8//+SajNmkj6+02PcOaypcTPe2vL/dRr/Oh/1V4ZkcMcFKI/cdKowec/Rqu9lHZrkOznfL9cBAAKGv1TvcwGpzWvqY92kLfdVQSDn369xDKJytWtFXe23LqeaqscAZOofNjxh0vfXOvZd2zG2Cgxg0r9XQp9cnX/uiDQAaBD1VTZf10jBrAAUQgt/Hkm+i9aOAS5XLDpW2qfUtiv1+HyMu0yVRcca8uMB+y/McxIwl6uN5STVZldI5vEyJWAuIDDtAKJ5TdmJRoqEqY5XjFoFAGRhP6TabKrvBweyOB8T6JpNGOf5RPSY2gGrzGvXw1BDaWm55feQwo88cFxHwba1PO+4i5oKrk0Spox2rXqkx2uSW/iCQL8gbZnLnN7cQcEfVk8wtBDngXb/f0dU96JTTkGymGYiX8HtNcW08p4zHRlMHwUeBX/7fqDUaz558z8doC9tkgjSi1QdhxgAIFM8YzJldXmunUkGfJjDjqUZ9piGJ1EAYMMCUHJhhJvZ88xlHPL5t4Pwu6q9xvFltRHYkWzlxKqAdN7Q7m9Aqutz3UrGYF3zvWkHiqJgGxehk6um66BwSJXjgDDPpQHAtMlYhToJbSKPAr+0CQCZ4hVTrGVG7v6afOqmCQgYv/c2tID1LADmAwLXQ6ba8Qr98In7H9VAlL7K5dimFpCpeX6MS83NyN0/ZDy3LsU81kL/T1RCXPUooEHgXyosdaxEH45xnEME3j/QaJEIlgkcu7+BqL58yDojCB0xQkDrvUArc74/190r5wIMa7UUH/BcFXbrAwKTkIrbpFAj0AZ6AyLhMO1X1ffKO+eNIFPatICmDYKZWpv7WkhqEy3ZztKuPgFtnKnkXbtbGMwVBPAo9FOoKCzv66l3vw0YzNWOci8Xch01pkSQfkTNU9MAMMk/Tam8UQPaYLHrUx1kYl0EFY8CriAwDUAwn4gOhV1D3jnbkrnWFTxNiPaoMmWR41kTIJApUL+FE40kUjSXz74o0F1RY3GXuc8xEMUGAjiunM+xJof9mvBuc759wmFnw/c822LVpSZIxrS6Ryh37gEAGfDDLiMMtM4kk3GUB0LLBN/Q8hi2gD75xJJrbQCBYCFH+72XiD6rhN/FgPrDEbn6K7M+pwGPua5NXmGO8V2XtzwH0SP0mszcVRFaX7Fs1xLK9lUFIcwa5MpoaE/QQGBjti5cobZBAm5rWLSAOkAgs7T9atWXREAyKT90dGZBpP15i+qsvPNkCwiE2E3wyKPtJS52k1s7GPbrSgJwX+ex1x3rn8M7TlF9SKRIJmY7YFAXLaDujDvDCEHnosAggOMc9HuZNgQszyi4YRhFQu9AvBEIDQKZajs5/VSgMUteN5/0zm2oW2Ow2LcqZojh0c5HpujqBpb+j/JGc4DilzoAYJJ/7qfe7UriFDbGbY2NGqCE8AzEz27QEkP3oSpPE0klfRk1hxyAc2aQqnp9DWW/MtXmbz36NzbEAQxJAKHThBltH3C82sLJN85F1PDEiP/+btCvmHb/YVeNN4FHZey1AFxJ+OFVgdN+Z56Gv0ECb3w+VuFEJ9uw89fmbDifrdrojWLSUFctwITsNgUCIjDbWoQ/Vg0AgWACHI82U+sxSoQCck3A0l8Z8CwW+EQglZJjIuxF82tCw9/EuRkuYFfvZyx8tIgLopwI8SPUZW0ArwRdnDb0IjRVZ20ckp2KILmGObcJBBMAXKMUGWijU2GsodZnin/+jWM0ytIynIbtYM4Y/dCQ9bL12fz7q8CLnQUB6fhZIMw+NwKbqHZDk0z4epzkoUvCbwMBAc+FYEcZFRCQcRxag/Bn0JaUVJ/D75zFgGDcuV/GaeD2ZYG9HHIW6PYm+cFbMf1MA3DnrNUs22UQ0Bl3qjpsFHlg9WpkqNU4tzu+tyvCPwgE7mqxAEtdayUFP9AZKqSvxhTHpdzKNpUbWSO4hzeIRQO+bxP4QbykP7MIksvM6fK6CQhcbBGqKsw8VWNJ8T7cK9/uKfwh7vdDg8CEulLtJCOpvi/NoCaCGkr4cwf+nOQ5nqog8GXeKyBw+ihoAa4FRBCNc0bjkIgo/VsSagSEigJEBmkDDHCuBdDMrUaXjwI6IrAOL8AMfk5DRKcIuE2ND7mu2K7wfaftOCKoPw1U+/2QQNdbY9DOVQGFXxYNz3P5ALffOsFA9+kOBjtcl64QpnJ/2iN3Qt6Bp6jScSdJBG0TC8JVES7ZVRdA2KurWoTM/5OAwi8L9hAbE7flJJ/PDlnoJphJxndQR3cTfbVcZwxAHsHT5lV4cJJOXxJICzBC67qL4XfODij8ssuaQiPrq3ea69ADieg3DAaY9KNuBtYAeicRLUHdJKO93B1JduC8oXUTnjc3Hp117BIAeI0anIuwiaC9z3FCBAC+CqDiIow24Tc/3wj9sgXmLAfHoZABRlWYyaQ+65IWIP3cQc3bKANADvzZRhHd6Eo9aQPbk0S0qmq7bB8OCxDrr/uD98YalDB91FE1Wa6rAIA5lnSJmcaU00+VtGl5hx/c8G7sEGAPXMS1LAlDsgDZWXoVgntEcKcDCv8eBS6j8t4VoOgHttE0CMgxpWu17HQl6pkAALk6ulXxShzJaxybwa1MSTERyl0sE+sq/HiuPkD1oaeAYAt2IJF+t+EfoI9QXbkSFIBaA+7GZ4r6nwOP3TUKAFAUKVgVBLQA7jrAHiB/2xLa8En2KT+ljcNBkORB33CxNYjw67Zc34+7YJW5m4CwYel3zKRrJromTc1a0Lp8H+SzP3dgrUqRDGIvEAoXgyCCxxRHXenz9iwIGX3GIvwu78Sz9Ncs7xTB/wjs+riQrruXDfiqMjP2wyQk7QIJgH9C8UtVAJhW7rk+a9HkI7z2YxpBusojo4u2wD8DFngJ3DD030T0uOU9rsIv7zPGTE0b8D31vWoBsxqE/z4HTQa//xA4BXVhw/higYNVlfnLgWdswTlVeTCvWcNAja3p6tmNGAQ3UEeAqgZB2zWcGONE7X8iUHAPCv93YDE24luF36nPC4P5vFMzmIzhVHYMcS1hlrMh1njVxW4IFF75Dsxr5rBm3+ckr/Mtn5tiQRNvzUFRe1mBm3Adwo+AbSIPRwYAbAUxfYtyYjKIc1g9xwX2FX5ZiJuJ6D1EdBIncdCfDaVmavVVxvBtnrc5llqGVQDAGNTW6QAASN/O9wSAnbmdVdgP4iwO/gqRRETPbQgQQJ67YxSzPsvCzoIEoq5HARQULQyhdmG8QrMJvU9672Fjkt+/AvO3mLoWc9EA1uwQAPxI8UhVIXqHpW0Doi9nQPg8g8zv2HYzn702UTOQ51mu8HQte7f+CvgihF0hU5vi0aO2+5Ma0GsKBNZFYERVruO6DdubKAj/DPEOm1YjQVBCs6GEmQsAPNuRI4D07QJPAHib8tAcG/C+uXxTtRrbkDbk4+q6HDa+DDuh7cZHiwcCOndp1X8+OLzFvE5BSz+7Cm1dBhndXl1WZGwPGf0DlmKi80D4XWwAC7iku7QbK0nffuAJADtadlFx1JrN2sCsIV6l5v/fykJvS/cVcpMZSePfMLrUMzinyw+OU8Zv1MqteG6EUeVac6FjtmJ5jwmpfV4HAEDoV451JjJHI5pk8N2ac/xdBNmicnW1GPLoh2P8JwRudWGNnGkMKvOix9xMAAHb8SVnA+M6sPPItab528OKUVw0gPlQqjx25jJq+18cAC8DXlrD0qZR9VdiFX8H9uj8Et+53wbpxm1CH9qfwGbzMSnDZ8zu34fdbbKjSTl9hB+vkn7C50xS7p9v5BJVwtQuc5NBMNVS1A1aHHZfVwC4kMO/f8wJNm7is/uCIVoF2pTqciKybQBG65gxwl/WZz8b0V0fnVsOt8wH2kh8hB/n85EO5AUQzeQFHsU/sgrzIvn9BjkJheZBGx+cqsY/o0iXFstGDASKri3v4/OmJlNo9Y/wfV+tCN83t0MOYz7HnQx2cbzSqzu/XxU+EFA3WgrNZADAhf94QMYvsxBNgguqsqeo3f4FbOW/Fj4T6lqzS+GlwgfbNCiYeYtHP9n5Z7Tw68X/iBKCEIyg0bdJAECN5lZOdb4CG3wO4WxBUphE+odnVN8+yrtvhwzLsWuDe1uEZdSOfgfDuGe88GsQeBcI/4THTlhkcW9K+PE95uct7M1nC3Cx+ZiH6KMAwG2qIGWMJFrR4Za179KTWXZ9AfUH4egnNQcTWXaB9XnHROG1nd+GLUAG57+cHTqebgEE9LvwnFrneRS1Dx3GHOsGcDIAQJcFf1ptOuexZ+GMs/ZXpT5cB33NIjSDLLby4P2tfP9c9oe/XwlH3UwhP22FJuoQehsA3NKBDLM9S2WpLmgAWQHvyf//HTwTDSXhL0E4Sa/i+9yisE58bExzHVvXhW6fQbnmBABu6gAACAhcB+sbu+DnStNEwTd+B58E46vRcJLKX4EwySaxB9dX+Dw7bPc2Z63vgmstqpiXOviZd/XpWoqpxcA7dLoDQj9t2XTuZCOfFGiljsx9tKSR05xlX8HJQA5jd86vcgruD3JVIlNQktQCyA74WQCAUblqGgYAsaeZlvVdsQUbTT5E4It2et2/q7l+BWZeinnOOwkEfY/Piwawnkdmoq49XQGAMTD+Nl1HIR8i8LLL2zTGv3NaOHNMRbIViUkUkES4Jd5bfh8fEuIpi/LDGVJzToTpT5HXmRNw2s4iiE0JegZ+GGJPsn33L5xQ5PWWm5WYQTYRCMG6sMCuNQO6BAA3dAQA5jk4AWUDboNsjwi5xAJIspei9h/gTEAHsh1KC/mghCOJIiRZwP2A2WKNP7BdFWaOGkDMu5PYZz7n4ASUWYRfX7mWaWeaM0pfw+7ahj9eW5BNOQl9x0mOAifA4scSjqyFXfrmAwBdsQF8y+OGJhvyf4vYwPgAa0RmV/8mW+x3ZvvDsgX9k+pPSehHhNBAcwQwCub+axoMht0rVxX+Ll4DXgb9rqIBTPPvx3EeBZMUdHsOLNqM81CuxVmR5pYQZPP/SeBnEAhsbynwYcv8GwoMis6tNqF/hBNcYJHVsu+ZBsPV+AhnAsr49zdUfCcakpOjzgwlQfnl2LorWXgQDIYVkciH/HuYIcom1H9gTzLTrxepYplVAeDmDgDAUjD3rrUP1uW2ZsHt0BgIdxLwRFZC9dgEbHyUXVKLAlJwt9buyNo1GYFjECObsOBfE9GhbG1GWscTAG6JOBhIhHJ1Ry0n459PwRk+CXoib9djQ2sT0T5EdAbvyE94uhBPsCHqbvYcO5OIPsUhopK1F2mWp3BMg8PK7Mg1sE0tQl11jLNaHkuiEQUC+fuyXDziLUT0XtYUDuV87sfxrcIXuLrLIZzlaC9OBLI5V6Z5/pDsPHjFJDvZS7i4h6tw/DPihCAy17tBn6sYAKf498tbHkeiEaS6r3/Q2mxTW+VvL4KS59mIpQQT28RBoCVVAYBJ/t0EfxlKlvtEtVEPjErofmxzSdZ/R2NUlff5ZMoVALgn4qSgogGcCABQ5fw/wb8fy+3EbuxMlKgyADzfMUpOAOB+TrAyaolAMtAAjOeeoQQAiUaGRDhWUBVpR60uwBgbWX2cgN7ObXXB4SlRokq0NGQPdr0iW2qEqwFNwdVpsgEkGjla0tNJJtbagNKXVR1vOTL++TQk3IxpfIkSRbFDxiogslu/3tLnKkecuyK+5kyUyJsWY+chVwAwV4gvjBAA5Ly+q6cPwNUtjyNRolppjspmXBUAjHq9WoQAEMoH4NwIx5YoUTCaxVWFXAFgEbs1x6oBnAQAUHZs+PkTVHuJEo0U9Tmph1i8qwKA+c4rI7aSX+LpA7A/t5N8ABKNJLkWzMDQ5I0iBQANbi4+ADtAW4kSjST9xgMAcs6UEyMAGP+ERz2ON1NEtEGkY0uUKBj9zBEARFC2jkxIxBaxpmOuA/nsfyCUOib7RqJEtZ2T8xFwlRUg2sICVmUeGde/Is51kCiRN8mudp4nAJh4+5gAQPrxfsfzv2hCv255HIkSNbJTngEA4CIoe0cGAD61ABAIz4rsaJMoUVASgf26g6DgVZnJXhTTVZkI7FmOmo34ABwV2bgSJQpKwthfAABwEZRDVXsx3m64aDZ7RabZJEoUlERgD3VUlQUAjlPtdT3GQeZgS24rHQESjSSJwO7vaAMQ1drUu4tFUMSwuYpjrkN0cV5dtZko0UiRqLZ7OqrKAgDfj0hQQoUBPxx5pqNEiYIBwI7A/C4FQn9K8Y1pd8/z/+8jAbREiWrfLTe3nH+rAICJJYjtWHOE583G+dxOAoFEIw8A66sS5lXV5dsi8piTMZ0Ddo0q538xbB7P7aQbgEQjS7K7vdizOtCjEZ6XMcLRRQPYJ8KbjUSJagGAZTi7b1UAwLRgK6s22050+rACqbLjkTFtEdHNRqJEtacFu9NRYGSXNceItgVGwOe/YCd3AbRnWSuKBdASJaqVemz1RsNeF0OC5bz+TgAzlyQg90Rc7zBRolrox2A0c7k2M5F3bRvN5N1HO94ApCjARDOOZMc+3dNqfnhERjOXBCcCGObnN7mdfsvjSJSoM6GzJqS4zSOAnNWX43qFLkeAVAw00Ywj2eX2gl3TRW3+TSTjeIuD8Gtj4Sbc1liL40mUqBESJt/SYtgr84jh7MGWfQEEAL7qaMuQcTxORMtzW70Wx5MoUSMkTP4SIlpo2Q3L7pxGE1iv5Z1zLufxQ2Aq+4gmc3lLfU+UqFVajK+/XM7OU8p7rmnjmbxvZ3WMyTyyAPUbHkOiRK3TLx3sAHkE12eixVyt+lNW+FMSkEQzmmS3+4rj/TkK0GsaFiCx1O/msfvLceF+LiaSKNGMBIA9HIQoU1do31VtNiH8KxHRQ+rs73L9l7IAJ5qRJCr0GqqSTlUtIGdhenkDgjQOcQzXwrurCn+qA5goEZBrTAAK4EU1AgAK5yrQXxR+F/X/rghDmhMlaoxEsA4CgXLRAkSgduL2ZgXo25hlV94TCn+6Cj+q/19Q85Ao0Yw8BqzKRTFdBArP4I9BSO0sh77YhN6o/e8gomvgvS7Crz+/kAuJGkrn/0QzloT5z/bQAlAo/0pEK0Lb4/yzpx4R9qLddx0iOoSIboF3TSmDn4vzkvTzTDX+RIlmJIkAbKwEy9UYmHNxDrlbL0vLckaeIzm116QSfPRTcN35Mf//2mr8iRLRTD8K/NyiYruCgHkuI6J9iWgjNt4Zf/vn8s3DJnymP47fK2d7fCY9BV/v/uL590Uebzr7J0oEgrClcgt2PV9rr0Lz+wIims+2hoUD2piw+CS4CL0WfrnhMGnQlubxpsCfRImUMFzqqAVoEBBr+6BkI1Mg8NMBhV4LP95UmNBhQ2n3T5QISM7CG1rOzVWFUQvysCeUwNv6gEE/x/AYk/AnSmQhEYyT1Jk5tHDW/WB/ZQwXtzy3iRJ15hhgzsh3qLNzV0AANQoR/qvALyFZ/RMlKqEFSO1Al2CbtgTfJvxXEtHiPKYk/IkSVQCBgy2ptmIEgaIbiAshgCgJf6JEDseBMyz5ArLId/2cKwULJeFPlKgi4R35BQWaQFtAoG8R8KrxH1DjT48jUaJEFQh3zrPBHjDVAgjo3X5aCb5xLjoWzvvpqi9RosAgcCQInD4S1AEENn8C7Vy0iAN7Xgb9TMKfKFFAQjV6OyK6DwRQRw/6goFuZ7rAo/AhrgewlhL8pPInSlQTyc66AhGdrPLwY+BOWQ8/m7egHDFsSUqf4RqA74dCHqKlJENfokQNEKrXr2DbwDMlffxtgj4Jn7WBhEky8iMi+jARrWbpSxL8RIkapp4CgtWJ6NMcx7/QU/1/hMODj+bAneUL3p1U/USJWiab6v1Sztdv4vwvIaKbuIbgAt7pjbbwBBHdzpl9z+MgnfdxIJKE6iL12KEnCT3VT/8LmEHwWN/4s/8AAAAASUVORK5CYII=;" parent="1" vertex="1">
          <mxGeometry x="440" y="-30" width="50" height="50" as="geometry" />
        </mxCell>
        <mxCell id="u8F_S0l8aTNUOHP5Od4l-55" value="" style="shape=image;verticalLabelPosition=bottom;labelBackgroundColor=default;verticalAlign=top;aspect=fixed;imageAspect=0;image=data:image/png,iVBORw0KGgoAAAANSUhEUgAAAQAAAAEACAYAAABccqhmAAAACXBIWXMAAAsSAAALEgHS3X78AAAgAElEQVR4nO19CZhUx3Xu6Z4ZZmCGYYcZ9mGfgQFmWIQEEkggJIQASQgQWhBiR2izbMnarWgXyCAkQDi249jO9+I423PeF784fs5L7NiJ8+LYzuLnOIntOI7tOLafV8Vi6XrfqVt177nVt3v6VtXdeu75vvp61u5bVef8deqsADkNVioMMKL83MaAz8DvOwHgOgB4BwC8DwA+BQD/CAA/AIBfAgAT4yIAvAUAvxC/+zcA+CoA/BUAfBIAfgsATgPA0wBwGABuAoDLAGAyALQM8HyNANAQ8RrkFDPhZhbFxjaITaajocLv6M+LMQhHVHMOEjid95PvRdejFpLPoVIHAGwHgJMA8NcA8HMi5EGjJEa1v6n2v28CwLcA4M8A4AMA8BgAbAWA7irAIPc/K/s+aEkyvGTQuD6TCkWSTCKfZaC547MOA4CRADAFAGYCwDwhBHMAYJo4iUcAwFAAaKrxs+kaVHuWuQBwLwB8HAB+UkFQz4txQZz2quCXlHGRjAvk/8+J14sDgMM5AQx/CADPC41hSpU1zsEgBSSZDoW+EuHv2wWTrwSA6wHgDgC4BwAeAYBnAeBlAHgFAI4DwFEAeAEAngSABwBgHwDsAICNQoVE5h0DAM01PJ8EhjAnZViqdLIijQOAVWIOzwHAbwiV+u8A4DtC+N4UqvVbYvxS/AxP4h8DwLcB4B8A4NMA8HtCrX5crOHlADCxBoDAZ+wHgCcA4HPic6jwXRQCeEERapMTX/1/FSwkSJyrAg54vfhLADgm+Ab3nVIOBglQJYYvCGZcBwD3CZXyDwDg7wHgh4KxdVVHylTIvD8FgG8IZv4dARz3CSbBU7S1yvPbUCcl46nUBQC7AOAUAHy+wulqe/xC3L1/HwCeAYCbhQYxWoAmAuuXA9ZentBBAhr1MwcBTEkAQTVQ+IEAwYNirWvhy5wsUNDiFsRpjKfbrwLAF2q4P8oNp+hfbagqaC3Mhf/3PXFiviE0jTUAMLbK3Gq9nwetAz1Z/6vCM10ImA9Vq6sNVa2Wa3NhAFD4ccDP5efbOOGjAgamzP9CBUDAOf6R4D+0Y1DKtQJLpC4kqpqrAeAlAPhigCopN0+9+1VjdnXDq6mO1dRIeZpVYq4fCyF9HQB2izt3UxUhLyg/o9ecTnE9+VzAZ16ooE7Tedk8NaudnEGqvckzJA0IF4nmQv/uRwDwYQBYr+xbDgSapJ5yC8Ud9isBm1SJ4eM4XaqpkvTUDXoG/N3XAOBDAHAIAHqEJqASFfxFAHBWMFyaTtaBQDNLQs9C7LVcd/p3XxTXQarx5UCgIfgFYYn9n8oilzKiSlZTJ4PU5/MC4PDacAsATCJrsRgAflP5v0prkPTcB8MoKWsuNQOq/XxPaKrTFf7OgSCAqJW8ICzMfxMgIBczzPClEColE/aMjwvV8nyFdVDfNx/J7WtJsS/J3/9MXPtmEH7PjYUVFuMGEQwiF08uZlaFvhbGoV/TO7P69/QqkQt9drQCRgAd3YnjK/D+oCN6t8Xgk49VUG8HC8MHAQIFwMGyDvW4l+fJ774PAG8n9p4oY0RSSxT53kbcVxcGoeDno35HifCv1O7k7zA24poKMlHX1EhcWZ8gC5KfdPkYLEBwnvzug+RaUPfagFT7MTDmu2IBqPU0F/x82BmFAoNCUYwCAygk/UwlhbdlQJb0GGC4ed1qAzSDbg9ZBKoS5cKfj1CjYchQ1tA8jAt5oVjUAwgoJG0foDLw6wAwXMhJUExI5oX/MTJZaenOBT81I/FTMtQYNnYym7PpHrbwjudY903vYHM338dmbTjEutbuYlNX3cw6l2xg4+avYiOnL2TDxk9jjUOHs0KxofJ7FqS2EMvzU76Xti/8+p8A4NJ6uhLICTxLJp6Qyo+oX1DUw1qG+J+MCYj1E4+uW0rWAjWArqt2seX3nGVLD73Olhw8yZYePs2W3X2GLTtyli27+zRbcuAk69v7Clu8+0U2f/ujbOY1+9nkS29gY+ddylonTOeaRPB8I59nJW2gJNKlJVXLdk01yQd/WkxMxuWrk7c8KKNGLVj0npm8QHjPJUEr+Pd4EhYbh7DGllY2pG0Ua24fw5pHjGfN7WP5940tbfz3hYbGgYXABZcE5ii+HjP3Erb4rpfZkgOvssV3vcT69hwV4xgX/v5972b9+4/z3yNQLDvyBlt6+BT/+cLbn2GzrzvMJi7byEZMW8A1hZjBgMoCNRC+n8hQ5uwC8oHvryD89gWx0gYVihzlkcHbOmeykV0LOcOM713NOvquZp1LrvWNjr71bMLCK9m4npVs9OylnCnaOmaylpEdXDAcoajheeIGhSChLxS5UI/sWsTnNW31TjZ742HWc/M7OeMvuvMFtnj3S1x43LH7Jf7zhXc8y+bveIzN3fIAm7l+L5u6ahtfr9GzlrBh46Y69+9anyOy4Wlmw8ZOYfO3P8Y1AC78e18JHggKAhz6OTCccEEBNYhFu55nszYcZBMWXcWGjplUgddi8xT8uajrkCm7gHzQG8kE7Qt/AJPhydYyqpMLLiL6jHW7WfdND/F7Im46brijJp5y1cTlqCqKsdz9/gxnJK5WHniV/x/+PwrG/B2P87tn11V38M9AMEFgaRrWHt4YFcE6NDQP5ffeKStvZt1bH2Z9dx3lc0YGR5VYqsrI+Hgq9u9Txn45TvC5Lzn4GlmvN9jSQ69xQcI1xXv3lJVb+RogwJaBcFxgIIQSgR6FF+dJT38VBMp+tkeAAv5u/3EHEO4+w7+fd8ODrLP/GjZ09MSAdS/EcSX4ukgWo7KV+pO/R+RMqwY/6wzf1DqSjZm9jJ9ueMfDzaRqnsvsiPZy491ToNpABiIqpE+NRKE47VMl8Y6JJysaoTr713PNYcjw0azQ0BSL4Ld1dLGpl29nvbc9zYUWGZjPfd9xMWe/Wlz7OOZfr73eySk/B9cAfzfvxrezKZfdyOdedreO+k5NTmYEJf5MAQLv7iXhh/4KgOAcGM4c8eezN97Nwc6n/UQLBBIE/p+oaJVqEJAGv2YR6cSIKmN+5ycbXGxsYqNm9LGZ6/fwU9lB7NPeac2Z1i/ElYbKHOGF4hgBB2GEOnKGPwv+7fCJs8VzFyIR/hHT5nPGRIHENcBXd/7K3CnDhxmV18a/BlzTEMDTe+vTbNoVt7D2Kd1+63uUBlWyLh2L1rKlB19z+aEaCPTTw6Fsrh4YIJ8hsODcJl2yWWg9kcwryC6AYHBtmkFAnv6nFfQyE36yqWi06li8jqvhcjNQ8KgKV0nIbY6qYLHnGL9HIxCgtdmq8JO1aB0/jQs+10YOve6d8jHMfyBhcVRpB5AQDHq2PcK1oiHDx5D5RH89wNN6yQHnqlMrCPRX22fOZ8f4e+Lc0GYybfWtfltBIVIQwO83pREEpPBvEA+qVuExYni8W09YuIart/yEwdNVbEYtal4cw30GcQWZu+V+uwwtNCA8TSddssm9q7raSAxCXwsg+MHQAQOpGeA1CbUC9OH79zgCIBC8g0Zf/oyoGQlNJewa9QWBndQK0N6w9xU2fc2trGUk1QiKUcQLyJ9jvcXUgIBU/YeKKjf0YTWF32MINLBhoIej4p+I9ZQLLfz89Tg/GVpGddg7EcR7DBs3hXVvfci9kwYZupJch8pgINXo4841Ze+7ua3EDwQRGFDFe46Y2uNqJbog0F9pbgIIpEYwecUWxUNSiAIELooCuKkAAXn6PxOg+mszOw50y0ljk6tapozZfQCw5xhbdvg0m9C7xjpTozrrnKbpXotq4Og7OQ8jELzCNQI0lgbtv00QQFsEfybN60B/BSBwv3aB4AzrvfVdbMyc5TbBLQgEMIt2uSKDsZMMVJhBqvIGNXIIJfxoOZ9x9R7fSRe08GkYquo/Z/N9dhkYgE1cep3wNjj2jjSuQ3iBOeaenGjIRduOKygRgcCIab2u65OCQL/VeR11PEWHT7FZ1x7gcRjOcxhfdYJsAt8l5eMSiRiUyPNe5cG0hR/dR3h/5sKf8pOuL+C5MEjGJhOjS8sBwnSq+zYEBoUS54hXPQy6UnnCJghgIJPjHjXzjFSfl2OXQRBAcMOwY0tzCnIR/jEkREXi8ze0+DuLUmxq4YEXTiCHo1LZ2qComJm/7jnKnxmF1arwXyaEP6V3fdtAgNcbvPKhkdPTBizaBsR7jV9whYgTOBYhCHjghp+FgWPFpmYbcwrSBPYncRWQH3ZWeRhtqz/GZMuTP+3M7jNA7j/BQ2cbh7ZbYNKCa/8IimhLet6RAoGYK/LAvBsf5FGdNgGVHjaTlm9yDxrbxuSg6w7OqWfbo57L0FwToBG23ySpxLFkEMoPmUJaUBnd+6dcdlNmhD/o9MfYcWN0F/+LBiTXt1/Hwl9ZYI7y+aNVfcycZWXCa2t0XbXLp21GCwKOhrP4rqNs1IzFNp5f1QLujVMLkB/yKHmI8AAgGH7UzD629NCpzJx2ePeXz4gGnwW3POGpd8auvqmuOzELaxEZEKCRUMQ6eAFVtrQBGV/SwObd8IADtgQEop4TAoF7YOgDGy0ei99/Ke76AY2icywboFdc1U3AJBrMTOM+fkuW2bgY1VHtTrNxCy73AZruQBDBjDY0UlFrf9LzTQwERAwBaoazrt1v6w7tA5IhbaME/2HodjRrXmYg3PuKEym6YostEJAHL7bOi9wjIE//9UZuP7EB6AdWVf+kmbDWTbV9+getRVbWI1IQENcs9BJg8pc9ECjy1/bJc92Esai0rkp2gWlX7DABASl38hrwiiKjkZBEl/doq/+C4bEiixOYkZ6ovrCn/4RFa80YUvzfyOm9ItW2PIFnsA46f8cucIot2Pkkaxk5wToIdCxeF5k9IGhOPhBYvdN0HhdIb8JYrgFtAPAtRQMI/eBYaMJJJc2Oultu+Q+oIKOj+u94XJSvys5axLreAgTw/rzw9meJNd2em3DmNfvd1OYo96BcuznDC65oPjc9fLFj9mwho5EAgVQtrlGE38rpnxVmdP3+l93km1P400e6pK7P5DUo7nX3QOAkL0hiDwQK/BXBHFN9o7QH0Dm5c0N+OnKGZ0zS5wkJAtIluFOR1UgA4BXxYee07/6rbynzw2aJEXF4ySw6AOD8D2aQobuLvn8W1iIdIPCsvetAQYYLL3DyLWJKqXZf95/g5cg0NUpaQeiFOJKE/lrf+o+W/xF8slQDSJrBat40HvN/is2+7pAhwzkAMH3NbW4dO8oU+ajtOrBg51Pckk/X1HRPpqy8ucweEPWcZC4JhiprApo0BP5uVFeAAkn8kf38Qqr/zqTGdl/m3v2zAgC+jTp8ygtQ0Tp5ZCHLyYHMnY+B94F/LQKGerY+zBqGtNgBAcCKU0M8d2wMNhlqC0Dw0ZhHSTEERqr+7ySnv5bxDws3UuNfFgY1/vXe9iusobnV/PS/8vb89LcBAodP8zByU8EHAujtU3oEAMRVXekY12jmbLpX99mlDeA/hZE+MgB4t/b9nxfxHMEzpLKm/lPjn+u2KRjc/Ud1+AQ/K+uQVhDglvTLt/vW2BSgp63eGctVQD1cUAPReG4pi6idT4/SE/C/tDQAko7plrLKCOPTEwBRGg1F2gAg/gfDW7NmBE3bUH3qqAlgph/lN71R8KJU73hWFFqNNiybVpPy104MDQAol0ujighsI519w/n/XQOLTHH10n0zp/5XaidV48Dipvg+krFy4TcVHCKY+4+z4RNnmYNAwflf7C/oXNPicwtiwVcNTYba4660DQBSleg1S/st8DRPaVzJEuPLyD/M69bYHB9TYYEIyVQ5AFgUHl6x91Vekgu7OGnvE/iHkzD0WqQgQA8ZDE2mh6YGAFwv5NWaMVC+0Vat05+4/7AybDbv/471363uYnC6zLn+HpGBlh0jaNaMghhlair4IASwffK8MoNgVHNAAMPSZZoAIA2B22wDgAwqeEjLACgmMnzS3GwKP2Eur/Rz2JPF+XuMXvPdXTOyDtkzCp7mpeRNwRrEvmETmijD1j0b00ne2s0QAHbYBgD5RqcIAGiVYlJr/aV9eC6akzwbTT/s11kD7DNH1yAr65BFewCusdvTzzBce9jYKWXCGhkAdC0yBYBbbAOApI8pGYChFnHypTfyfnpZMgBKRnISNrSCNHwDC57KrL+k51Xv9gDeoMVGleaCjNuQUZv2tQDfFWDqfFMAuDkKAEBD4F+ZBAHR7L+snHw0TNOt9a6pUja3jyuL+096fvU2+vaq5drOWCjXVuCvQ0d3RlaW3TMCHmfDJ83RBQApk5uiAIAWAPhX8QEXw6NoMZMeAHqiuN1+wt7/Za2/eSsyB4BZHP4km+Pc8Oyvz2+gBay51S3WSj/L5jO3jp+u86wUAK6y6QaULsBRSgHQUAtYaGzi7hmn9Fc2mJ+qZZivX2hoNDpBPObJ1hUoi0P1Csy4+i4zAIBo8zdoIFDziHGmlYKXRQEAahJQqAfEqCrqAkyaQWreGOH+m7FutybjCAAsNrD52x9124ara6B6BoJi0LO0bontV9A6im49nn/d7CowY91u68lsUlvBMHl/b8HQAPBLAJilyK4RSRTp02v6KfPeJ7gnX+bi/4+8wTr61msyD439998fvSE6/KJnwB0VfhZQMiwr6xnZHqlCT9rF8yq8B15ly+99Dy8nZlS/sSDc2RNn+4DcFgDwGpM7n9TVNKVM/hQARkcBACsDPqxmAcDwxqwxLL0CYM0+ygS6tf5RxfPcoA5zolcA1VQEmmVHznLDFV4VnHHG/RmeOrytlYyl4O9T3iI96XWLc2/8Qu+VEscKO7zIxp0v8I7KeGpjBach7Vpx9kwdmLVnK5jLczW/ZuK1oE1C0F5njSQArCPCrxEENCeTQUD8dc9R3XuZ5wJdcQNbfs97uACjoDulv49yuwhGBmJqMP5NZ996Nr53NRvXs4rHoY/vXcNjB5B5kYkxFgGZGm0pyOQIHvIZg07DehV892uhhqMwOr34XuTFWlBjwwg+vHpG0V5s9Oyl1q4BNNIUm5Vonv5SO/8cWCbpSrjeBACwR3ul+2/aT39HLWsyYpy5m+7lpz8WnsS2XxjthaAS+n0LBV42Cpkb3wdPIqd2/mlnfeuwj2Alwcevcd74OnvjYR6m7ZYNr8KLNkaxqYVXI7LF0/KqOemSzT6gCQEAMkfno7ZTgc3yAMSiI8M7VW+zwZTU/49tnk0NgG2dM1lDS+vAa4UbHzgqMy/6pycu28iBygOCdHdWNm+s4Zy+2EsBo/TK17L6mhmNQnk7OzsawGleLUsDAGh07nFFbq0BwM0mAID90GhCRdJMFQaV3Q4uthjKBnNKsCA/w7JY4xes5tcK7m4Ud8ssgwB9ZmnNRz7qWnsnicsg6xqFwEOVJCFyqOmur6UgIKkBPGi7KOigBAA/Kq+0wGARnUbyvcmzYbkyPJ24sAhtIGsggP0XVZUfT33UctyCLC4QRrm2UHEUG5t4ZyjTawCNAXALnIYbNAx4iyK31gBgmwkAYIJD5gBAoLJmfnYygwABnlCoDdBmFx7DJb/GAwuFtw9OMM8ez0fO9yLJ/SgEtnMzCjbb/hi/LmoCgLwG9ERlA7jJCACm92bOBmBYoikVQIAGQzQUqhGIad6DMuE/9DpvnhIEckmv7/jeNW6Cm7YG4Aab3WV6+n8/ioKgEgA2kg8MDQDtU7ozVQLL8wA8ZewBSJpJ8RUTseLofReF8FtopR3B2hb466iZ/aKRiF5+Bw02Q6+Ob9/CuwA/CxGQjANYawIAbZ2z3J73aWS8sk3Zix6A19ic648kz2wWGNXLxkwvCKiBPXgqGrTLimVd27F8uMhv0QYAszoAjBgAf1WRWUhNJOCwcVMzFa0mawBi555UMqAOCBSKbO7m+30RbGnaCxp4xcuv+1pnp20UjCNcPdAwrgYsAeD+KNqCSQBYbFIQFNMxnVz49CcDUbVs4tINrvAkz3TmIICRcb23xdMAU0/4ndiLeTe8jZyE6QXfIW2j2OLdL2nxtRcCfJJ1b31Yl8eoRr5WkVkrJK2JkwHgTV0AwMgptcZ6WoftIqCpGW7Xm+6yZJYk98T/DHgaYimvTh9wpXUUm5qN+FoWLXGbzejXAPgZAHQoMmuV2kTbIe2CIBjHnoWCIBbKM6UeBJwotnS0JVNV/46+q33PammUFKEpBfzMOM1b76A5zcb1rDQ1AGK1rkgJvQFfGgwlwShDalcB0mPQSJg0aGBzk14Sy548CDiqcM+2R2x5XdR1uyiusOcCalqWTD4L7SrSExD2kJFfY7VoTT6TIcCniZxGRv9DCwBIRlwWioLSfu1u19l4Bq3qcp4w7Dmx5hetAIKvS3OyDUpUq//YeSt8z6i5hqrQV1qni8p6an0mJniFTQ32BwA9ygpF7RoAUgPYF4UBEBRUOa2gTiiGw/RWWU8t9RqAAACjAhL6wl/t7y6QTTdiXGS6npvf6WuDndR6O2XXHtNtjEkFX34tDdZyfFtUtX4BAO4WdfN+Q6vKtTKwWxStFpzA/R/5YVFU/QApqjyotWAkeSILwUD+8kwGbcDDM/BFcp/bJ9w6jwLASQD4JAD8kPz9eSNtwAXlyxPVAlyPy92ndQNh1PlTAP1PsXarAaA1gK8/QwRIY88cvsauxGHDganWM2aultZD+eWfAaAZIiSpAdxAFrmk5TLJgCvQtUbvfokNGT46LgBgSkjn2IB9GAcAuwDgCwFMoHWCYQ+9hbcn06hUvQe3jOq0cRLKnx8T60UJreNDxNerlP8Pv37u1XZLqHBg1f/vVSwOPaSW8+EoT3+5cEgLTGIBuMV0x2OpLwwinwvdUfqtwEIPuZ5yff9MrHlThXvduwKAI6QWIE+wHYl1bHJLYW2533TdpPD/iPjD5eFVDDjM3kfW28iWgrEiWLYtnAYg5/2Aybwlr+CVJrL7v+oK/A/CdOE9Adfs8/VYS+OgQSlDx0yMMxhFBYHHlY0tKJu8l/xfeGMWydOIuvnlgAFXy67zCVXI9ZIAiHEqywlwFqpUuP5FwNppAQCWH1t+z9lwGoC4/7tJTuHnTece6f1fpU8TxA3BbM4EccKm2VOxAcDeV3gIcwIAQNf1WrHuVPApEDyjgIZWkBbt2RArALgdcbXbYVFL+AEi/LUYs8/bAABMVqqVpynI4rwNCoBI0PtqlflaJYku71UYLnwxRXSZpDgYiD5X64SuOAGACrBk6p+QHG8VBCTRlm1aINC1dpeWJduarUWvEAad8+dr5N9FyjqVtPfKbXq7uuYrFBX+Bbc8aeL1kJ64s8r8IiPJfG9X0DNke+zJqQg8qblE08TZOghtCwQkyP6rCMWm+xCUqi2vZSWtvPaY7QB+P3hD1H5wCZifVNa2ZA4A4bpeu+6/K26xofVE1glYJYkw15igJ/rVMRklze5ADwBOcNdlQgCggsDXAGBiFSb/ay2XVoLp2m7R1Q0HTYHy5wQgg+Lg5XrdQ9a0ZBxZSVyptcS3eOq/k2o+akaf7300eOOnhCciif+vlBRkZECZteGQGzmVZgBwcgF6kgAAdW2luvd1AJipMLVE/kcV5g7tDsTAp7h6N1D/v3sShnf/1aL+NxDV/5fi741cp2AIADzGZNdzvFqT5mfLeX8KEiBkvK+QhQxvCLxkU6oNgVY6Agm3Z+PQNtuaAMYIXEqYWzL4cuX/Qn8euqRMqtvo18Lf5OOPEGsj1+SDFe7B8vt2YSyj61gyEn7NK4AM/pm5fo8JT8g5PExkMhaSWsBvKYtZV4ZAWqUFqxnrAgAHu+XXk2Cigi0QOC8CgihhpNu/m9RtpPEAsawxB4CzBn0XXc3o5QBBoGAQdO8vWQOAGuwnZTkP3Zdmzv1HF/gxsgHhDYGjO/2NMlMg9OWb5QRqYM03PQAQnWSv3uO1pta/RlSKdjupbP4nAv7GKiPbB4A3vJp/4YXhXIV4CbomH1XAwl5WZaF2N6Av+s8swlTu7ZfiuPfbLRAqBnY/tVFPPWoAQC1l9OxlOszpxYmv2sYuue99RJMwznKT6E/zBrBaE4iTUDK7VkBQXMZZHwAsvNIUAND+IQGAWsOppmqc9QcVAADrF8hIwKo2AGH0xN6FBjygaj2RW/8jMQTSHutJC3z1RI1L9ARXto9auZVHiWHVmOb2cTY1AXoXvCDcYLuNcjWGj4ktV8MHAIvXmgIAhkUjDSURq5+IVPjBe97OJdVDgan6j8ZC1LQ050v3H7MZY1X/KSHq/K0Ws0nUXLwusfjzMACg3auN9I/jbb0PnGTzbnyQ+LuNvApBdgEc31BU3fCa2c4niWYW8ToLGwAKkNYae3M9QXhzATFSn4tM+KH26FZf0hMWmRk5QYcHSkoL8GGQEEnE+UAAA9ZFarCFUk1eptilThEUvPch+mPEnSUGVK8EVmoEoHoah4uWagC4RnTNQsxf8t6vC548QOpW0poV9oUfyve4qg1AqP9zNt1jst9yvu9RZDFWkoaWe438zkPj9TsnDQCcOYQK6Lq9zMOL1SuBfoWbgn5uu+kaT79Su/S6PBH/hhj7JE+q6xMZAExddXPFNfPUfyfmwcDgSTWAzUnc/0FBncuUBwy9gHOuv4dHRCVZjSYeAPCuOty4ePgUm7BobbqKjdKrWUwxGhYiAVXeo8bRaIUf1P6Ap6sCgJyvZo1JKvzfAYARkAJq104Ndu9O6QwI8gFAtykA3OgCAGUIZHyMINNghogAwHmG0bP62RIBynEYAtE2wguBmjXFlFGBpfiEH9x9m37l7VUTqTz1/16Tz5NazYeSVP9V0vQ7p7tjsJUilcQLoBo7KQhgFFniwk+et61jpm8d4iq9hqHIhgAQnbEP9GoCqtZ/Q/U/9uSfaiQ//Fm9gKDgrippAQEaBzBmjmYcQIU7dRAIdPZfQ/43WW2guT1eV6B8bZ0wPRXzBx0NYM2tgbkAEVj/f0DKnMUeBBQEAJtM/M44sAVUnPHnYQAAnwtVYirQYXFm7P0AACAASURBVJkDK75W6srrgsDhU9xd6IFHMdlON7c/E0sHJyvxFkmOgufqreTSdoN/Nt5tQ/3/SFrUf4k+HSIlUSJVSWvxyB05XclAJ42SgXB0XVmuHpaBgFARsVyaW4Y8IUHAu3jPzQ/HVircdQWu2GK0zskAQJG/Tlx6XVkgkD/2/zQbJ696Zur/zjSo/yp91iT+fPSsJalLDLJZDwBzASpFPPpB4ChnFKzTn3RfPDytwja6yG4bdoM1dnMoyisClcf+a3f+vUhKnI9Ng/oPCgq928QOoHYNTgMI0GdAo5iJMKKLq5ow+e6Me47yaweuh5uDQBgtrtG19s5YWrhRoF14x3Nx9mDwjQbd7k+u5wQPsfJrrJv6e81+G+r/f0uL+q8CwHYjO0ChkLqmodRva9CzjQ90/QwU66D6itEyjqCB9gPvShCDNuAGtmyLNysQP+MAaltzY5qr9/5j5l7Cpl6xw2i9sLAnDWhTU3/HzFluQ/3fochd4iTVkGlK2/DwdoCVlSOpkgMAbNqgrbq5G9699aGa7tPlxkG0C5xh87c/5lWODc9EoZ+30p02UgDgdoAzJp2BQs/RTX8+8obB9cPh3xae3u438rqaze3PmLg4pfqP8TajFblLFdF6dKWsFwih/umG5mHazIZdbmlyTc2nIREMBA/8fwRJ7OirgmcUwtGxeG2sAVpuoEzUdgAxP9yX6Wtu45+J64saaKGoDzqNLa2cV3xagAj9RRchBQvDXIfUqP+gqCOvaTUNrZCGmjQIOB6AV3mtfJNW1VhvH2u/hXWp+YHAAUVkJgQTBEs/CFgEgpA17myttQTcxbtfNCkPXmVe3hphnwf0criu2f3Heaq2SRNYzKKcv+NxX30LzkMHX2Mjphr1O5AawCZF3lJD8oFu09IAyJh3g1ePrj9xADjmngwm6qgb6CROBi3BoNrAgVf5nXL2dYdZ6/hp9oFAtg2fd2ksRsDACkwzFvmexWwUiOAVWGf/elcwPe3mOD98jK56iq1HupB5uXP9A+QiSfEOamyaCpL3kZmk4qqWHcBpsJh8fQDXeMMrtxzWZzy3B4JX+szohJTagHg2ZFxUL5tHjLMHBO6VbFmsVzJPZT7DQ6cpX9gYWPIcazHgqc8/j5Sj6xfP0Nph1gDG5zkRc5m4bKPuXKj6j9p1Kk9/FQi+oGcHEHkB0xemIi+ABm9gEI9N67DZCekPHJLXAjRUTrlsq1dtyGSI58Y6iLFWB6bdcnY+pe+WC3Ax410f39d/6istug6e5HkpWsLqS/py7Cby/TU9SGrlH2xtnsr7PyjI9KpJPEDTsPbU1Acoj04rpkKQgq4FqAlwINj9EjcUevHmBgAwoy8RAJBuM68Qa1F7DthrUIZZy/euBKbL7j7tZWaG3mt/GjVeJywYNKXr72/TfvIDecBtpnkBtBpNYsJvXqxSq2ecDSBAZkeD44SFV+mpsy4ALI5dG6MAMGOdqKJsdP2a5NoWyqPzrHUnZvLvMZ4An50DAM8iNSr7LdX/JxUZS7UdYBIA/EyZSPjqqgnXCfQZpHQTgQLqHUT3rB5z43UAPw/TU40AYGa8GoBvLtz9auoNECXZ1+G93PNmqHPp83Un2mG0ZmjtR/DF5++97Ve4a9BCN6jutKv/Kn3GpD4AduJVI6qSAAD5dVvHDD0AGCBNNCrhkcyMJapMgMuJy0gGANzkGV2VnMx7+KS53BpfiZ/6iNYxc/1eI7BpHT9drP8ZHkmpxzd8yNP/j9Mc+KOSVFFeIOgV+hpQbGxKvF+ALwrQ0CeNXoS4eiDSiDo0SJkAwJi5K2J1A0ZQPcfX7oyGYpeDwDGu7czdfL/R56A3BtV/5F23pbxZ1989imylmuRDrlcmU9I/NY8mHgSEgGSSVothvLVGAdoss42hvFSg0xwIVAZi5CrgFgnROUnF/2AcPgWzIC1gCbYo3/EYKxQbtfcbozTxvbC+heZ70MCf76el8EdYwmKF3zOpE8g3LMHOwe6JsAVPBH1fNHZ+xbusThBQ0sbLOAuDVr/KGKnSDhA3NLH52x718jECAKB//wkesWnifkTAx0jGcT2rbBj/3pu1uz9Fqt/V6hfgi557MbGwYM8SvVuTGRxmHTZ2is9AFw8AiDJm2t2MyhtdxLn2FAQME2kCvDGOVhnkCeiXOfsGV75i4xDu+kN3tsb/qxrzFVkEACv9AuIsSBEMAMKQc7mZVRgrCcVpy6DBNCOm9viexaSOYewAbNMYSNRzDDAK2o8+UrPPLcSiofnhZ7heI70h7/6YWJdJkmjVSyZTylrbMLdn/YrNmkKUXDy984o1DCZrMzIO7GaclBFQvYo5+Rjm4c0di68uq83Yr4YDmxQmLRRMSptT9f9tWTL+BRE++N+JyUijRjj1efy0shMhbgAwNaRNWBhfq+3yEttmlXXmbr7PS8xKRPilMfAY71GAUX1aYEwGrgn659V2dH3kyoFuQ9PPMQAA/PonovFu5ox/oKDWCRN3IC9Mue0Rnw83XgA4q1+cQgJAjDn1XvDSSda99WEjddlp3V57DYNIAUDYY2Zdu99OF9/+9YEVmvvk1ckC0Bie/h/M4t0/CAA2Kp6AklZyRQLXABcAlm4w1ACujL+ohpHx0hlNw0Y4RtiYvBc1uwRl+rNlLaDPRkKQOQBkJvGnVhqp7w4U3YOndFeN4ooWAN5gky7ZbOZL71npC0ONXFhMry5AojHJ+yYOAG4D0dvNhNNnX1K1gGOiFkFf3ADAiL3s81AnJO8uHzVxB2KFFsdyG28LcS8vXTecNv6EGiunWArLs1nqrOMb6OunZdr6kgMAVf0/lHXjHygTOEAQTisqUO2qEw8AOKo0FnjQ21h5kk73MXL0QmJY2cZXEDQdDVut5Tgoc8R+jGpcwJKDJzloxwwA0kiO2vKYLBv/KlUJ+i8F7UJtFGal0dMoHmu6nQKVjUPbygpFRicktISZGfNSF2CSwh8IcLtf4kU+KNBqRwdu96IDjeMnzE//4/Vy+qv0p1rZgVKIWtrYwtufLXPdRM1wTmz449wirr/JhVj6Hnon5Bmvv6AmA2MsvFrcMg0AwF+FFqCd6FQhf7+P1AbE0mExA4D0lPXUi/EPFCR7p35UoLMJXVftqtp7PRKG4xVqX2JNrSM1mUz2PSxvDR7F6SjvsCPdgpp66ct4x1YDZdIwymoFuNccE0Et8DqBDkA7748Vg83fN/Tpj6HzdSX8dDKLyD1H6xqg9g6My6CGzDZ84mw9gZLhwF2LfBqA7Wf3xc3f8ax+3HxCxUDDzNOuFkDCtQ86AID2k+YR4+MEACkXV9er+i/tAX9jdA0Y2saZO65rAFWpMYmECkjYgb3uaKvtSLQA4SYz8v+7HZo8jSVpoa9uC3jRii0ARM0GBBWsR2kaQVmj8Nel66+WIiH61wBecjnGa4Ds6rJau6uLK1TUk2ETBNRouTGymahuFGChSNqCp+P+r86X7o1xqrD4v7aOGVzrWXDrU0ZNYDSLfuxSZAXq8RqwUpl8qq8BNDQUC3poGwJlWarOWWUdY9KVNiuKaI6eWB4fnwLBD5yz0HxaRuln79H/m7l+L69EFbHwyyGF/x8BoBkGAWGa8D/oJQc5A1WzqFXpICbDgXn9ZkwG3KVI05tNn1/1j0+74hYf6Oj6xuOKXDSZtxR+K9GBIOv5TTNt4T0os/5qITm5l02vAbRUWHx2gNO8USYVFL2KsT1WjYFqEou2sZKMWRsOpsr/X8vc0R7gWu4NXXetmGsQZVdiv+Hvu2nv9mv7GrBKQcHQuQEjpi2I1KIedXFKzGiTfmd6mukLguP6M6hBl5oqTGEBwN0fXzXfWOP3mYbwM3L6PzMYTn/1GvAVk2uAkxvgj+GO+pSRgob3Y30mEz72Uf4e8rogoCbJjO2+zEBDEcVLuldWLZyZtuHTgA6eTCqPn4UEAMn3PwSAzsFw+oOCcke1rwFuYM1NvsCavr0RM5ls8qidYecXtAmLrvK52XSEzVP9T7DeW59mDc3DjBmUli9PWrhrXYMotDSITvgl3zNxHaZyUfckrwErTK8B6LJRc7mjZjRZMhqLPtpgiFnXHggsShHq5BPA5KUsm2gmHYF989I+fJrQoddJP8FCmk//nwDAlMF0+lsNCsLhhW9Ge1qpfnaMknMYTNdQVHCDg3i8vehWG0bw/G6wo6xllEF6rBCUiUs3RBKnEAcAOK/HnK7CtzwRhx+faQg/Pf2xUtagOv1BmfCTZEG0YgIcNTo+hnWyA2WfAEOGKHinLtah5wVPagSBPqWVlRf5Z5oVh81LnOCfpIXaFKRtVBCGaE//qYP19DevGCwYHUNAsW1XHBZrVc0c6eaLGzCY+F90X2G6MI+8qwEEVMNX+2QDwxfJVYg73dr2/vi7OdmxiYA94aen/0uD9fRX6dP61wDZ9XV3LFZrn5qJLrcbH7TjbpIgMHYyr1HnGOC8+IZKc7JWKpvYI7Lg+69pj4RdpHPJhjTYAkrK6f8DAOgYrKc/KMh3hCCjXkzA1PmxxQSobjes9UeF2BQEhgwfzYGFewf4fMoNcvQZ8PozYZFBcJLbuWhy2RyTFmaj/XGzIp/T7c7DLAOA5HF8fVqRgUFJEvkmAcCPFaQMXzbcTVyJ3hgoX7nrjfd+l3H3hqeMEGDMN8AahDgfeSUoE37awkq37BcB0Smrbs6k8a/qHonozYS1gJJ4laf/twFglCIDg5akLeAj+jEBpOw26WAbtRZAGQwz/KwxGHmP9snzuFEOtQHu7uTCecxv/Lv6LuPPxNLfeFJGXa4sbhCQWoAD0pGn9rIaT39slQeD/fQHZRG26BcM9ZgYLelxMDE9hR0jHHar6fUBki0gwIhHbEqCNRAQbGR6Lu89zyvXGhSuLPOkZNP4V3WPBEiP711jd38glPBL+9bfA0BTwjKXShoKAP+iHRosm1iujE+NVf3OeMq4d01bqiZ5n6ah7byGfc+2d/Krx/J73sNBAZtQmnyG23UphutTMkDgFEjFOZrVdAQb+f7bBb/npz8huRjPahsDZQ77mEkDWs4jAYE9R52WVRsORsNIBAhQYDHbD1N+O/uvMX5PTKrCuIasuv4G2h96XdJukw7awi/5GV8/lbCcpZakIWQOAPxSQc7wLsGr9/hcWbElCQlV0ywct3YgMB+VXKjJC651gI5fCygF8PDyeiz2aYvkovyeqUtw+KQ5kVTcGZjJnM9CHz62Ao8MBOT7Wnjv5hHjeNqvu1YZdwHW5rZdJdYw8lx/Jkp84+tZwd+56l+B5MJcr91ENMKKO2FAgP9s/wnPKJjGvHRZC3/Oct71x3E1epV/6gkEyqMD38XzL2IQ/oviNQ/6CakJfFk7MpCUd477XutdBY65GYp4wqYWBAQQtE+Zx+ZueYCfjtyDksFMwLDRgZNXbPEBYcR3/3ssnf4FIR9F8V7FegMU88hAMjhTIwjEZAtwhUaomm5XnowMrAGIORU0KzHqdYsTANRISre2o91rWkkR/j83kIeiKJxTi5BLQMg0yYlibbTvaLUSD0psiSE/QD1hsF5h0gJd+3p5pyBmJXZvfdhXqqyeQMDZIy+b03K6cMnQ8FdN4IcAwGQAuBQArgOAzQCwVhjOhyjvUajHoqGp1AKCvABeTboUq/5VgAALncy+7pCoCKxfqShtQ7XToN2jdfx0m/tUIjxLG3yiUEsqEFW+scq1oB0ArgSARwHgtwHgnwDgzQA5eAsAvgYAr4uuW5KK9eAS1OskHJOPWxV+FBjeQdg9UTMk/AoI4LM7mYH1AQKqcROvOWPmrohiny6IV6x32RKC70cAwGoAeAQAPibag1cDmiDNGL9/lQBOZkFAPvgHbWgBszfebd0jUC78p3gGH4btUgDK5BDPjgFHjgYVnzclKuH3qf+HT5kFUEFVwZQ8iio6iEYfDSL8t0UkAc0FgPUAcEgILAYI/WeF9zsvBvWKqeMicTfi+CwAjFRkKVMkH3qpsrBaWkBb50yrcQFlwn/odd5bHnsWZl74lbXDbsjYgMVZv2yCgCr8ETb8KBEt4N8A4P8Kj9YXhUbwLVEF6K0q/x8k8Cq4VAKdEnnvvyBdhgpZBoHfV+5Vhi3FzWrwq6cJ3iOx6oybjqvvVqq02dqajzkIFMs65mbtGuC79+8/wZPF3Bbv0QB1KcTfnRcn94UQAl/L50oQeK8iS4OsgQgBAB7xppQNC8vIZcJ/4FW26M7nvR4BdoSftk4/nzgYCCFBrwZtxpoVEFCjACPOCCyR14tiXCACHqTG29xX+r4X6qHVuFRd/tBICxCbjSm1ag1+LeFHVVjk5rdO6LIp/HLT6H1OzvtCMmBQcDsFYb1CmWqdtGCHAwEE65OilHvqqgQzy0P1RPxvyDBJLeCKAIQLvTjo81XTXmtlZp/w7zvOR/uUbpvCLzfse8KdsxEAPk48IZU2Ovoh5jdx2cZM1QwoK5u28ErT/WIZGaqMLFXkKVMkH/pjiqBoGQRRaCUA1HoVCPIfe00nrJ78PwOAfmX+6A59BwD8qQADWjEp1uuAqgVkBQDweRftet67+9f/KJErJH7/REA8QuYA4BJlciXtoiGXb6/5KlCe6Wel1nyQ8OPrGjFXGSCiWm9HkeuQvBLEw1Ri7bD0WVwdma2AgLj7d627U8ylDjw0UPOQAIAZtpn1BlAQ+A1lYloCUBzSIjrxOBlwlUAgKL7f9R+bWZBVgx/1G6soTctHPav0UIiPmaQGNXlurKnWxhpAMoVAWAoGNQR+MatGQBUA5gUUDNEyCLZ1zuKGPFXQg4Xfie+3lNwTJPy7KoSMyk0bI+wB6nvE7h7EMGFsuRVHR2YbAOBoAUdZ84jxSQskS2BIHvtGyKjETHQUlpbykn4hzLVl6mxZ1pgQ/q4r74jCTYRf36/Mr6AAwToRQMIC7v8xA4B0Cd7ma2aaxuGG/B4QVYCKDYMZAL5ZDwBQKVNQDwTEcJjZsweoJwcyOsbEq0JgKPxSNXsXEX45aGz4q+T/5bXHaL5GQwAnpg3TluxpV/+9nomDapQIn30p61cASXIS+4hQmJ2EhQLPfFMZevFdR9nSu0+LlNFG03s/FX4pyCfFXNQS0SNE3fhvBWxkclGBZP5YkDQLngAO4EfeYJOWb/IBmMncIVtD8tofQB33EzQwCIqkl4ZGNvu6w5xZ8NRA4UdAmHfj21lD81Cbwi8FGY2ZKi0RKdD/pmygdZXfKV2uz9DYBSntQUHUdjN+wWpzAADCM9kwJJbINfl5wWN1oQUUicBctOUaxFcss40qIzINqv1uvX1z9KfC/+tkM1aI9uh/qfy9TAaxJ/hiDpgCixl+Ri3Eiw08qk4aAlMLAKKN++jZSzUBoMBfsfEKFnlFA2hFQODrG2ZN5d9Hlo9A7UzrCc/VBcmJPG9sECQbzTd7Zr9XNdae8MuN+DsAuB0ATokiDurf0iww68I/es4yntSDvQS9XoY6AFBk3VsfSnUjES/v/yQb2bVQby8LMpHsDnbJ/e9jC255ksdBjJ61lDdwTfG1gPLc10XTnbqiArk/f9lGbMBAwGC4GSUS6cdqjPO3yhQYvITCgGo7AoDnFitodhLC7kROi7JUA8CBV3nnaC0AAGd0rd3FU74x/Bu1Q/wa27JhS3YEBGyrhiAzbNwU1tQ6gmsK3G5ENQNRxh1/jlew1vHT+HMNnzirgmZhxG/0UHyu3k5/UCYkIwSteAWcjYo8U+xchfRPe59HmB2ToHhRDyEUyLwm7bKRibNxBXDcgCOna2oA4AxsviprJMrmrAgGCKgICMuOnPH6Ne5+kddPwPoQaEPC6xYO1JgwbXzhrud4EBp6n/Bq0Th0uE1NQlX9fwoA07IeBVgLCDwWoAUkZy0P3pRqX9sdhKGmrtrmpPEKwUdDJ7Ydd36vx3iYVLVg55PZAAB+BVhkBABda+/0AIA2heUG45d5mjm+OlGlx/m6IOAuv+csu+S+93GAQMMydqwaNaPP6PpVA6+xejX+DUQfD7AHpAUEEinsiZVvHPemw6gY0zB38/3GQTH43r23Pc0blKYdAFAgMerTBABmXbufLeGFZUng035H0NGmwg3HR97g64vRpbjWaC/A9Z+49Do2Ynqvc9KX7VUk5cilsRmLiLbW8+mvegXGKRFzgw8EhPA3t4/lKifGMUi1FYEAf9bYIjviFIwAALsSy+YnaQUA/rrnKC91rj3nQpFHEqKAo9DL90RVHzsMoXqPGgI2GsEAqfapPXz9g8uN22nnVkX4qQEZS4YPmtNfTnIZEf50BM/EIvgeU2G688I7nuPuLzT2IcOi8GOcQ0PzsLK/1xkNQ1p4em3qAQDTgO980avVqLm2I6f3cu/QiKk9rK1jBgcUPNEdIR9gLV1DYGT7HxRk9ogiF4OCZPz8drI4dn3paRzEYNnRt571HzjhK1OOgtC5ZEMgWOgO1CKyEAiEKvqCnU/Zbv7BKgt65MJeTfjl1fc9g0Htr7W1WKl+QcBjNLToz7xmH7+L4qnMX/cdZzPW72FDx0wO/B+TgZ+HKnC6AQALtr5mHPQEXLg9N174gJ/IBJ+q/fLk/zCRhUEJANQm8CBZsKiuA5H67msZY+etYHjar3jg17hA4omHVn70M/sY2HJlIOd6kU4AoIlA/i5NdTFKisGvpJz8g1r4VRC4lyycLcOgir6JAAAG8mCpc/Q5z9pwkPv62yfP8xqT8BHNaYUl0GmF5aQFPhAEhOFz6irh8kxv1B7T4Duq8tM7P9KgF34VBG4hwn/OwA+vbkCi6bktIyc40XxBQUuuqhrNZ6OVG11daQUANxHoyFnW2b9erEkmEnhYFb6jp77UaL8LANcqPQdzCrAJ9IsuLVR46cJWE2D172SNd1nB9+dJgYBf6OMwQMkeC+MzAADOFQCTeDIKAKUqd30cHwGACQqf5xRAcnGGiRx8usBBPdeChF4uPi3j9ZuiYu+/kw1KmmliAQDUPkw7LMWWBzBtQdauAKUKvCd//1UAuCmAv3OqQnSRlokCCerCXxBXBDpoPj4jPdeuJ+/3zwQASoMCAEZ1pB4A5OuwcVN9z57iUVIA4IIi+FgF6yFS2guvuLnKH4JokU0QzRJOAMA/1nB6413rQwBwTYCNQYYg082q0+EI0dDRnekHAJH1iNl5GRL6iwGHzjeEkQ8Lw0rKT30DUpETU4oXi8q8WJzj3aIWH5bgPiy6ErUr79FAAo+eIgBQZ7EG1QAgvT0CpfqPobqxBAFBKIGvdNKrfPMZALgLANoUvsvJIhA0GPy91AAWWalMlCkAmJhyAHCCgObd8Lak7/6lKqd8kMb4VVEWDq+plIKaxORkkaRwy4488uvGAfqpyU35PTuViTICAGPSCwC+asDr9yQp6CXSHVjak4L+928B4AXRBVstEJuf+CknCQ7zyQabFyVJPQBMSi0A8GeSjVxk3YNwWkCpijcoaEghP0+Mx9VsSt8RfS7fIexQqpA3ZLWJ52AluYH3iA2mcQJpuw5UKkxSN1cALwjoDdbRd7VODEApQPgvBlRwGmjg3/8QAD4LAGcFf1yq3OkpD+VCn2GSV4FjZPPTko6sCrt8tjoGAKwG/DobM2e5DgCwGtYFf/eWCALDE/0L4lQ/Iyz220Tw2cgq/DLQ9TKnDBE10DxNGIXW/osbDAbyK4cU/my4Ab2W4Cd4I1PNK8BF8fXLomPzVgDYAgDXAcBVog4l9qkcLyruDiTI+Ptc4AcRCGwJaPARVPnXFhhUurcGCf33AeB3lCardRMIZKESUImsyeUheYAakvNAnUFKEuVHCevuDxQGky4gaSsIMiyxAb4fyBAVJNT/R0SS4XNNFSpsfQLA/hO8YpFbAUlPc3pLGHdBWOeld6hIhDsX8JwCiVp2MWHjARFCfK4K06mW5KChAkc1Rv4JAPwJADwhrM2UeowAIMW5AF5H4Ed1i5+WxOuPyR0+F/ScjEOPkboB4CAAvF+cyD8yDCE+JwxR/yoixz4AAO8UKaJ4P1VJ+pln6V0BnNE8YlwqswGpARBrIGqu6UUSlKP65XPKyQoQyJ/jCbMQADYAwJ1CU3hC1HN/WXgVXhLdXR4XVY6wM/LNouprr9AwqvV+py4meZJ1AcB/6QKAUxAkvQCA5bmnr7nVp7WEOP0viK8/FQEv5DTIKWr3D7U2B6mt8mdoA3hTGwBSWhKMxgBMXLZRNwbgvPj6Q2RNc8opEioQoxINPw4KSVZ/To1RYT4PaSIA/EIXADDDLo1FQV0N4PBpNq5npS4AnBNfvyjWSiZ95ZRT5kkCwASTSkZYEx/r7acSAMwKgZSIBoCRe0g5AORUdwAwhnQqDg0ADSntC+AVAjnGho2V5dC1g4BuEGuVJ+TkVHfULtyEWgBQbEpnZyAL3YBK4vUCcZ3mNoCc6o7aSIDSRa3egLenrzegVP+x/Xah2GgCAD8nBTfzGICc6o6GiTJnmgDQxKvtpKk7sHP/d2IA5lx/REf46Vp8EwCak96knHKKilpE8JAWABQaGtmCW57gp22qAIAXAsEYgNtMYwA+k/QG5ZRTlNSsVDMOBwDFRjZ/+6MpBABrMQC/KdYpV/9zqkvCENev6ANAkXVvfYgtOXiSq91p0wDGdmvFADASA3BMrFPuAcipLgkZ+4uC2aXaW/soFHjBTSy8mSoAkDEAU3vc59TUAO4T65THAORUl1QQ2Yl6AADA5my6ly09lC4A4K97jvGKRZo2gIvi6xvFOuUaQE51S39qAgCYbYcWd1karI7qAFwAgCVijfIYgJzqlv7IBABmXrM/dQDg1AF4p2kdgJ+RVOrcCJhT3dLHBMNr1SOYsW43r72fBgCgdQBmbTioI/yMqP//AgBDkt6cnHKKiuSp9hE9AHDu1Zhvj3n3aQAA2gtg6uXbdQ2AUhP6k4T3J6ecIiV5r30/AYDa8wGEYE1ddTMXOBS8pGMBLPQCoED4QWWdcsqprkhatl8T633fdQAABsxJREFUDH8uHAA4gjXpks1c4BwASEsY8Gts9KwlpnUAnhXrk7sAc6pLkoz9EgGA2oVFCFbnkmvZsiNnU6MByK/bOmaYXgH2ifXJXYA51TUAPGGiAYzvXcOWHUnPFQDLk2GZsqbWkToGQFp+/WqxPvkVIKe6BoD79GwADgCMnbfC9QKkAQAwAnDBzid5opImADBRKn2WWJ/cBZhTXZJUbXcLpr+gYwQcNWOxGwqcJADQ+7+FNOD/AIDWhPcnp5xiAYCbCPOHBoD2yfPcgiCJawDcBXiaTVu9Uzyn9v3/8/nJn1O9k7zbrg24/9YwHOEaNm4qqcH3StbbgUsX4EfF2uQgkFPdA0C/0sI8lNrc3D42Fc1B5BUAryOjZvb7tJQQACA9IUfF2uQegJzqluTpNt2kOxAm3KShMjDVQlAr0bwCSA3goFibPAYgp7oHgBGiAaYWAPCyYDufTLQqEAYgeZWAX2CNLa06BkB6BVon1iZ3AeY0KMqCfUOxgocYWBTkgUSLgnjq/0nWfdM7wqr+FACY0Iami7XJbQA51T0VhNXbICV4n5sSnJgWIJuBXnm7rvovwe9bAzRZzSmnuqM/MEoIuny7mxCUmAYgsgA7Fq3V9QDkWYA5DTqSd9z3EgAInw/Qt54kBMWrAcj4A1kJaPikOT5wCjGkB+CMWJOGBPclp5xiIWnl/hUiBKHDgcfMWeZcARKIBqTCv/COZ1lDs7YBMG8GmtOgI3nK7SM2gNBXAMy8owKZxP0f8xHQFqFjw1DmfIVYk2KC+5JTTrGQZPKriSBotgn3YgHiAgFX/Rd9AMbNX6V7/5cGwB8CwGixJoUE9yWnnGIhyeRdAPDLgNOwxlFg82580G0QEjcAOCnAL7IhbaN1NQBpAPxUwvuRU06JUItwf2knBU1ZudVXGixqEPDq/x/lp3/XVXe4YKSh/qtVgBoS3o+ccoqdPmlkB+ic6csKjBIA6GdIA2DrhOm+5wkh/HkRkJwGNcnT7oSWJ4CMuZvv8/UIiAIEKLhI3z9WJjY4/eX9/98BYHjCe5FTTokBwC5FAwitBWAhTlodyDYAqMKPNofeW59ijS1tund/6v7LqwDnNKgNgbNFKSyqGocTqEKBdd/0dl9egA0Q8Am+iPrDz8Daf63jpumo/nSOeR/AnHISpJ8TIARw5PReX16AiSbgE3oh+PiKav+CW55kw8ZN0RV+Vf3/Zl4CLKfBTPLUe1jJCQipBTiC2HXVLi6ki+9ycgPCgECZ0KNbUeQYoLUfYw2mXbHDa/ypL/xU/X9JWYecchqU14Bpoimm/jVAFAmZv+MxrgkgCKhCXVG1J4E9Uujxni/di11rd7HW8ULl1xd+dW4Y/zBHzD+//+c0aEky/4eNtAAhlC0jJ7DeW9/l9A0Up7gMEvIP8TuZSLT/BAcOFHoEgO6tD/HmI/h+FgRfCr+cH75+QJl/TjkNSpICsFI5JbWMgfiKzTlmXXvAPcXRcIeVg1DIl+A4cNIVdi7wIqEHO/t2LF7nlPbyCXvBhvDTOaHRs1uZf045wWC/CnxCOSW1QQDH8ElzeaTgnE33cuPdwtufYb23Pc16tj3CZm+8m9/pJyy8kqfyunf7svcyEnz19JeRf6+I+eZ3/5xyIoJwtRIWrGULCBLaQkMTKzYO4aNQbKgCIEVbQq8Kv/RwYBm0djHfPPEnp5wUYfi4sRZAT/Cqqjv+vmiq3tci/NT1t0HMMz/9c8qJkLwLLyVCo28PSH7QZ5eq//Nijrnw55RTAEnBOCUERgpO1gCAPq+cw+8nvLY55ZSZawDekb8uBEe7e1DCwk9P/k8DQJOYW271zymnGrQA2TuQkftzmkGgVEH4/wwAhok55cKfU04hQOCRgLLhpZQLP61r8DukyGcu/DnlpHEdeH9AvYBSyk99HE+TueTCn1NOIYn6yH+7giaQFBCoHgra1+BrpMefOo+ccsopBNGT88PEHnAhARBQT/uLiuBjcs+L5L6fu/pyyskyCDxDBE69EpRiEHp52lPBf0sk9swlz5kLf045WSSqRl8PAN8mAqhmD5qCgfo+8qRX25d9DwBeBYB5iuDnKn9OOUVE8mQdAwBvKG3Fzyt1BWsxGKrCLgX+QoUipW8CwB8BwB7SyENqKbmhL6ecYiCqXi8WtoE3FUGVAnxBSSwKEvTz5G+DQOIHAPDfAeAIAMwIeJZc8HPKKWYqKEAwCwAeBYC/IJ2GdNX/74u05OdE4s7oCp+dq/o55ZQwBaneMwHgVgB4GQA+BgBfBoDvAsAvxEmP2sKPAOCfAeBzAPARkaRzl0hEkqm6lAoioCcXeoie/j+9kpVAPV91lQAAAABJRU5ErkJggg==;" parent="1" vertex="1">
          <mxGeometry x="170" y="-30" width="53" height="53" as="geometry" />
        </mxCell>
      </root>
    </mxGraphModel>
  </diagram>
</mxfile>
